<svg xmlns="http://www.w3.org/2000/svg" viewBox="0 0 512 512" style="height: 512px; width: 512px;"><defs><filter id="shadow-1" height="300%" width="300%" x="-100%" y="-100%"><feFlood flood-color="rgba(255, 255, 255, 1)" result="flood"></feFlood><feComposite in="flood" in2="SourceGraphic" operator="atop" result="composite"></feComposite><feGaussianBlur in="composite" stdDeviation="15" result="blur"></feGaussianBlur><feOffset dx="0" dy="0" result="offset"></feOffset><feComposite in="SourceGraphic" in2="offset" operator="over"></feComposite></filter><filter id="shadow-16" height="300%" width="300%" x="-100%" y="-100%"><feFlood flood-color="rgba(255, 255, 255, 1)" result="flood"></feFlood><feComposite in="flood" in2="SourceGraphic" operator="atop" result="composite"></feComposite><feGaussianBlur in="composite" stdDeviation="15" result="blur"></feGaussianBlur><feOffset dx="0" dy="0" result="offset"></feOffset><feComposite in="SourceGraphic" in2="offset" operator="over"></feComposite></filter><filter id="shadow-17" height="300%" width="300%" x="-100%" y="-100%"><feFlood flood-color="rgba(255, 255, 255, 1)" result="flood"></feFlood><feComposite in="flood" in2="SourceGraphic" operator="atop" result="composite"></feComposite><feGaussianBlur in="composite" stdDeviation="15" result="blur"></feGaussianBlur><feOffset dx="0" dy="0" result="offset"></feOffset><feComposite in="SourceGraphic" in2="offset" operator="over"></feComposite></filter><filter id="shadow-18" height="300%" width="300%" x="-100%" y="-100%"><feFlood flood-color="rgba(255, 255, 255, 1)" result="flood"></feFlood><feComposite in="flood" in2="SourceGraphic" operator="atop" result="composite"></feComposite><feGaussianBlur in="composite" stdDeviation="15" result="blur"></feGaussianBlur><feOffset dx="0" dy="0" result="offset"></feOffset><feComposite in="SourceGraphic" in2="offset" operator="over"></feComposite></filter><filter id="shadow-19" height="300%" width="300%" x="-100%" y="-100%"><feFlood flood-color="rgba(255, 255, 255, 1)" result="flood"></feFlood><feComposite in="flood" in2="SourceGraphic" operator="atop" result="composite"></feComposite><feGaussianBlur in="composite" stdDeviation="15" result="blur"></feGaussianBlur><feOffset dx="0" dy="0" result="offset"></feOffset><feComposite in="SourceGraphic" in2="offset" operator="over"></feComposite></filter><filter id="shadow-20" height="300%" width="300%" x="-100%" y="-100%"><feFlood flood-color="rgba(255, 255, 255, 1)" result="flood"></feFlood><feComposite in="flood" in2="SourceGraphic" operator="atop" result="composite"></feComposite><feGaussianBlur in="composite" stdDeviation="15" result="blur"></feGaussianBlur><feOffset dx="0" dy="0" result="offset"></feOffset><feComposite in="SourceGraphic" in2="offset" operator="over"></feComposite></filter><filter id="shadow-21" height="300%" width="300%" x="-100%" y="-100%"><feFlood flood-color="rgba(255, 255, 255, 1)" result="flood"></feFlood><feComposite in="flood" in2="SourceGraphic" operator="atop" result="composite"></feComposite><feGaussianBlur in="composite" stdDeviation="15" result="blur"></feGaussianBlur><feOffset dx="0" dy="0" result="offset"></feOffset><feComposite in="SourceGraphic" in2="offset" operator="over"></feComposite></filter><filter id="shadow-22" height="300%" width="300%" x="-100%" y="-100%"><feFlood flood-color="rgba(255, 255, 255, 1)" result="flood"></feFlood><feComposite in="flood" in2="SourceGraphic" operator="atop" result="composite"></feComposite><feGaussianBlur in="composite" stdDeviation="15" result="blur"></feGaussianBlur><feOffset dx="0" dy="0" result="offset"></feOffset><feComposite in="SourceGraphic" in2="offset" operator="over"></feComposite></filter><filter id="shadow-23" height="300%" width="300%" x="-100%" y="-100%"><feFlood flood-color="rgba(255, 255, 255, 1)" result="flood"></feFlood><feComposite in="flood" in2="SourceGraphic" operator="atop" result="composite"></feComposite><feGaussianBlur in="composite" stdDeviation="15" result="blur"></feGaussianBlur><feOffset dx="0" dy="0" result="offset"></feOffset><feComposite in="SourceGraphic" in2="offset" operator="over"></feComposite></filter><filter id="shadow-24" height="300%" width="300%" x="-100%" y="-100%"><feFlood flood-color="rgba(255, 255, 255, 1)" result="flood"></feFlood><feComposite in="flood" in2="SourceGraphic" operator="atop" result="composite"></feComposite><feGaussianBlur in="composite" stdDeviation="15" result="blur"></feGaussianBlur><feOffset dx="0" dy="0" result="offset"></feOffset><feComposite in="SourceGraphic" in2="offset" operator="over"></feComposite></filter><filter id="shadow-27" height="300%" width="300%" x="-100%" y="-100%"><feFlood flood-color="rgba(255, 255, 255, 1)" result="flood"></feFlood><feComposite in="flood" in2="SourceGraphic" operator="atop" result="composite"></feComposite><feGaussianBlur in="composite" stdDeviation="15" result="blur"></feGaussianBlur><feOffset dx="0" dy="0" result="offset"></feOffset><feComposite in="SourceGraphic" in2="offset" operator="over"></feComposite></filter></defs><g class="" transform="translate(1,-1)" style=""><g transform="translate(435.2, 435.2) scale(-0.7, -0.7) rotate(-540, 256, 256) skewX(0) skewY(0)"><path d="M214.02 19.115L214 19.175C252.03 33.57 287.846 53.245 320.393 77.621L368.02 158.4C292.254 72.063 181.72 20.678 64.66 20.604C49.7 20.594 34.633 21.438 19.52 23.139L19.52 41.939C127.694 29.165 233.43 63.231 313.047 130.493L355.361 227.909C290.887 132.486 182.425 73.885 66.395 73.21C50.721 73.125 35.059 74.096 19.516 76.116L19.516 94.966C118.514 81.414 215.636 113.498 286.626 177.23L317.334 265.05C263.412 179.47 168.852 126.394 67.348 125.36C51.339 125.204 35.344 126.34 19.518 128.758L19.518 147.672C112.848 132.492 204.898 165.722 267.195 230.942L287.889 314.859C246.555 230.42 160.67 176.716 67.7 175.423C51.545 175.205 35.408 176.565 19.518 179.483L19.518 198.519C109.031 180.725 198.173 217.679 249.875 287.987L254.495 361.335C225.522 278.322 146.607 224.643 61.238 225.465C47.203 225.604 33.221 227.206 19.518 230.245L19.518 249.433C96.738 230.529 174.851 263.416 216.613 326.573L222.486 384.063C245.816 377.78 270.02 370.845 291.213 363.19C310.407 356.26 327.097 348.665 337.809 341.152C343.163 337.396 346.951 333.674 348.983 330.578C351.016 327.482 351.453 325.394 351.081 322.988L349.829 314.865L486.903 275.309C446.897 159.92 363.67 69.964 260.654 19.114L214.02 19.114Z" class="" fill="#50e3c2" fill-opacity="1"></path><path d="M492.88 293.037L452.684 304.637C454.314 323.297 448.018 341.204 436.287 356.68C422.107 375.387 400.353 391.307 373.924 404.937C328.694 428.267 269.474 444.814 209.527 452.907L213.907 469.257C282.537 461.597 357.247 447.219 412.077 420.719C442.594 405.969 466.71 387.596 480.799 365.389C493.539 345.305 498.574 322.005 492.879 293.036Z" class="" fill="#50e3c2" fill-opacity="1"></path><path d="M434.367 309.922L369.34 328.687C368.604 333.032 366.995 337.197 364.607 340.834C360.682 346.814 355.145 351.82 348.539 356.454C335.326 365.72 317.543 373.552 297.561 380.77C265.634 392.3 229.151 401.768 198.003 409.904L204.647 434.694C263.674 426.904 322.287 410.541 365.357 388.328C390.185 375.523 409.745 360.755 421.394 345.388C430.198 333.774 434.677 322.253 434.366 309.922Z" class="" fill="#ffe0af" fill-opacity="1"></path><path d="M172.613 387.352L139.58 396.202L147.777 426.792C158.589 430.742 166.4 441.172 166.4 453.277C166.4 460.147 163.88 466.477 159.727 471.391L164.443 488.991L197.477 480.141L172.613 387.353Z" class="selected" fill="#f5a623" fill-opacity="1"></path><path d="M138.22 443.79C136.73 443.79 135.34 444.12 134.1 444.7L58.5 464.955C61.522 469.796 63.124 475.388 63.125 481.095C63.125 481.765 63.095 482.425 63.053 483.082L139.013 462.73C143.973 462.344 147.711 458.36 147.711 453.277C147.711 447.927 143.573 443.789 138.221 443.789Z" class="" fill="#f5a623" fill-opacity="1"></path><path d="M32.327 468.985C25.529 468.985 20.217 474.297 20.217 481.095C20.217 487.893 25.529 493.205 32.327 493.205C39.125 493.205 44.438 487.893 44.438 481.095C44.438 474.297 39.125 468.985 32.328 468.985Z" class="" fill="#f5a623" fill-opacity="1"></path></g></g></svg>