<svg xmlns="http://www.w3.org/2000/svg" viewBox="0 0 512 512" style="height: 512px; width: 512px;"><defs><filter id="shadow-1" height="300%" width="300%" x="-100%" y="-100%"><feFlood flood-color="rgba(255, 255, 255, 1)" result="flood"></feFlood><feComposite in="flood" in2="SourceGraphic" operator="atop" result="composite"></feComposite><feGaussianBlur in="composite" stdDeviation="15" result="blur"></feGaussianBlur><feOffset dx="0" dy="0" result="offset"></feOffset><feComposite in="SourceGraphic" in2="offset" operator="over"></feComposite></filter><filter id="shadow-12" height="300%" width="300%" x="-100%" y="-100%"><feFlood flood-color="rgba(255, 255, 255, 1)" result="flood"></feFlood><feComposite in="flood" in2="SourceGraphic" operator="atop" result="composite"></feComposite><feGaussianBlur in="composite" stdDeviation="15" result="blur"></feGaussianBlur><feOffset dx="0" dy="0" result="offset"></feOffset><feComposite in="SourceGraphic" in2="offset" operator="over"></feComposite></filter><filter id="shadow-13" height="300%" width="300%" x="-100%" y="-100%"><feFlood flood-color="rgba(255, 255, 255, 1)" result="flood"></feFlood><feComposite in="flood" in2="SourceGraphic" operator="atop" result="composite"></feComposite><feGaussianBlur in="composite" stdDeviation="15" result="blur"></feGaussianBlur><feOffset dx="0" dy="0" result="offset"></feOffset><feComposite in="SourceGraphic" in2="offset" operator="over"></feComposite></filter></defs><g class="" transform="translate(-1,0)" style=""><g transform="translate(435.2, 435.2) scale(-0.7, -0.7) rotate(-540, 256, 256) skewX(0) skewY(0)"><path d="M60.344 17.594L65.094 63.312L20.031 60.438L61.188 110.25L49.782 353.406C49.752 353.426 49.722 353.449 49.689 353.469C49.659 353.489 49.629 353.509 49.596 353.529C11.668 380.186 11.56 425.455 29.752 456.969C54.015 498.993 102.582 499.479 117.002 461.719C92.672 474.149 73.516 463.689 62.002 443.749C50.238 423.371 53.094 400.045 88.44 387.686C134.162 371.7 225.256 440.334 311.75 428L299.875 372.656C216.491 407.558 133.162 321.259 76.812 340.126L76.344 340.281C73.884 341.251 71.426 342.248 69 343.314L79.063 127.47L111.75 121.563L308.313 329.469L309.531 330.749L336.281 455.187L337.564 461.093L343.439 462.343L479.814 491.687L493.97 494.717L490.906 480.561L461.594 344.218L460.314 338.31L454.406 337.03L329.906 310.28L328.376 308.78L122.813 113.092L129 78.814L342.47 69.188C342.22 69.708 341.96 70.224 341.72 70.75C341.68 70.835 341.633 70.915 341.594 71C340.693 73.256 339.859 75.538 339.094 77.844C320.234 134.177 407.457 216.539 372.094 300.438L428.124 312.438C439.904 226.873 370.637 135.365 386.687 89.468C399.047 54.123 422.341 51.265 442.719 63.031C462.659 74.544 473.119 93.705 460.686 118.031C493.728 105.414 497.952 66.599 470.218 40.845C466.258 37.163 461.193 33.815 455.935 30.782C442.952 23.287 427.635 18.892 412.248 18.972C392.408 19.072 372.444 26.598 357.218 44.502C355.928 46.315 354.667 48.149 353.435 50.002L113.5 60.813L60.344 17.593Z" class="" fill="#f5a623" fill-opacity="1"></path><path d="M328.28 329.03L425.406 349.906L378.156 374.969L375.626 376.311L374.281 378.843L349.157 426.187L328.282 329.03Z" class="" fill="#c9c9c9" fill-opacity="1"></path><path d="M445.906 360.188L469.626 470.375L359.406 446.687L389.436 390.157L445.906 360.187Z" class="selected" fill="#c9c9c9" fill-opacity="1"></path></g></g></svg>