<svg xmlns="http://www.w3.org/2000/svg" viewBox="0 0 512 512" style="height: 512px; width: 512px;"><defs><filter id="shadow-1" height="300%" width="300%" x="-100%" y="-100%"><feFlood flood-color="rgba(255, 255, 255, 1)" result="flood"></feFlood><feComposite in="flood" in2="SourceGraphic" operator="atop" result="composite"></feComposite><feGaussianBlur in="composite" stdDeviation="15" result="blur"></feGaussianBlur><feOffset dx="0" dy="0" result="offset"></feOffset><feComposite in="SourceGraphic" in2="offset" operator="over"></feComposite></filter><filter id="shadow-12" height="300%" width="300%" x="-100%" y="-100%"><feFlood flood-color="rgba(255, 255, 255, 1)" result="flood"></feFlood><feComposite in="flood" in2="SourceGraphic" operator="atop" result="composite"></feComposite><feGaussianBlur in="composite" stdDeviation="15" result="blur"></feGaussianBlur><feOffset dx="0" dy="0" result="offset"></feOffset><feComposite in="SourceGraphic" in2="offset" operator="over"></feComposite></filter><filter id="shadow-13" height="300%" width="300%" x="-100%" y="-100%"><feFlood flood-color="rgba(255, 255, 255, 1)" result="flood"></feFlood><feComposite in="flood" in2="SourceGraphic" operator="atop" result="composite"></feComposite><feGaussianBlur in="composite" stdDeviation="15" result="blur"></feGaussianBlur><feOffset dx="0" dy="0" result="offset"></feOffset><feComposite in="SourceGraphic" in2="offset" operator="over"></feComposite></filter><filter id="shadow-14" height="300%" width="300%" x="-100%" y="-100%"><feFlood flood-color="rgba(255, 255, 255, 1)" result="flood"></feFlood><feComposite in="flood" in2="SourceGraphic" operator="atop" result="composite"></feComposite><feGaussianBlur in="composite" stdDeviation="15" result="blur"></feGaussianBlur><feOffset dx="0" dy="0" result="offset"></feOffset><feComposite in="SourceGraphic" in2="offset" operator="over"></feComposite></filter><filter id="shadow-15" height="300%" width="300%" x="-100%" y="-100%"><feFlood flood-color="rgba(255, 255, 255, 1)" result="flood"></feFlood><feComposite in="flood" in2="SourceGraphic" operator="atop" result="composite"></feComposite><feGaussianBlur in="composite" stdDeviation="15" result="blur"></feGaussianBlur><feOffset dx="0" dy="0" result="offset"></feOffset><feComposite in="SourceGraphic" in2="offset" operator="over"></feComposite></filter><filter id="shadow-16" height="300%" width="300%" x="-100%" y="-100%"><feFlood flood-color="rgba(255, 255, 255, 1)" result="flood"></feFlood><feComposite in="flood" in2="SourceGraphic" operator="atop" result="composite"></feComposite><feGaussianBlur in="composite" stdDeviation="15" result="blur"></feGaussianBlur><feOffset dx="0" dy="0" result="offset"></feOffset><feComposite in="SourceGraphic" in2="offset" operator="over"></feComposite></filter></defs><g class="" transform="translate(-2,-3)" style=""><g transform="translate(435.2, 435.2) scale(-0.7, -0.7) rotate(-540, 256, 256) skewX(0) skewY(0)"><path d="M196.36 25.44C151.297 42.88 127.162 62.45 110.19 111.61L110.19 182.234L110.064 182.234L110.064 191.58C110.064 248.836 109.144 299.75 93.586 355.3L92.262 360.03L195.807 484.35L202.045 484.35L203.76 483.64C240.18 468.566 275.037 466.778 310.828 483.473L317.448 486.561L419.738 360.116L418.66 355.636C405.654 301.594 405.523 246.952 404.9 191.476L404.795 182.236L404.777 182.236L404.777 111.61C390.311 68.622 361.187 41.12 318.605 25.44C276.865 46.004 237.11 43.866 196.361 25.44Z" class="" fill="#bd10e0" fill-opacity="1"></path><path d="M141.215 127.234L186.445 127.234L233.729 182.234L141.214 182.234L141.214 127.234Z" class="selected" fill="#f5a623" fill-opacity="1"></path><path d="M328.515 127.234L373.745 127.234L373.745 182.234L281.232 182.234L328.516 127.234Z" class="" fill="#f5a623" fill-opacity="1"></path><path d="M162.378 233.857L162.444 233.857L197.261 319.74L230.376 238.06L257.29 304.443L284.396 237.586L317.703 319.74L352.173 234.72L368.877 275.926L385.934 233.856L386.838 233.856C387.734 274.001 390.198 314.538 399.514 355.402L389.807 367.4L358.727 331.818L354.514 411.028L339.789 429.23L301.933 378.973L292.046 457.336C287.632 456.251 283.166 455.384 278.666 454.74L257.288 402.014L235.703 455.256C231.087 456 226.48 456.956 221.887 458.116L212.444 379.713L212.442 379.713L175.065 428.951L175.858 431.201L157.938 409.685L153.798 331.819L122.718 367.397L112.798 355.487C123.953 313.649 127.288 274.255 128.268 233.88L145.318 275.926L162.375 233.856Z" class="" fill="#ffffff" fill-opacity="1"></path></g></g></svg>