<svg xmlns="http://www.w3.org/2000/svg" viewBox="0 0 512 512" style="height: 512px; width: 512px;"><defs><filter id="shadow-1" height="300%" width="300%" x="-100%" y="-100%"><feFlood flood-color="rgba(255, 255, 255, 1)" result="flood"></feFlood><feComposite in="flood" in2="SourceGraphic" operator="atop" result="composite"></feComposite><feGaussianBlur in="composite" stdDeviation="15" result="blur"></feGaussianBlur><feOffset dx="0" dy="0" result="offset"></feOffset><feComposite in="SourceGraphic" in2="offset" operator="over"></feComposite></filter><filter id="shadow-2" height="300%" width="300%" x="-100%" y="-100%"><feFlood flood-color="rgba(255, 255, 255, 1)" result="flood"></feFlood><feComposite in="flood" in2="SourceGraphic" operator="atop" result="composite"></feComposite><feGaussianBlur in="composite" stdDeviation="15" result="blur"></feGaussianBlur><feOffset dx="0" dy="0" result="offset"></feOffset><feComposite in="SourceGraphic" in2="offset" operator="over"></feComposite></filter><filter id="shadow-12" height="300%" width="300%" x="-100%" y="-100%"><feFlood flood-color="rgba(255, 255, 255, 1)" result="flood"></feFlood><feComposite in="flood" in2="SourceGraphic" operator="atop" result="composite"></feComposite><feGaussianBlur in="composite" stdDeviation="15" result="blur"></feGaussianBlur><feOffset dx="0" dy="0" result="offset"></feOffset><feComposite in="SourceGraphic" in2="offset" operator="over"></feComposite></filter><filter id="shadow-13" height="300%" width="300%" x="-100%" y="-100%"><feFlood flood-color="rgba(255, 255, 255, 1)" result="flood"></feFlood><feComposite in="flood" in2="SourceGraphic" operator="atop" result="composite"></feComposite><feGaussianBlur in="composite" stdDeviation="15" result="blur"></feGaussianBlur><feOffset dx="0" dy="0" result="offset"></feOffset><feComposite in="SourceGraphic" in2="offset" operator="over"></feComposite></filter><filter id="shadow-14" height="300%" width="300%" x="-100%" y="-100%"><feFlood flood-color="rgba(255, 255, 255, 1)" result="flood"></feFlood><feComposite in="flood" in2="SourceGraphic" operator="atop" result="composite"></feComposite><feGaussianBlur in="composite" stdDeviation="15" result="blur"></feGaussianBlur><feOffset dx="0" dy="0" result="offset"></feOffset><feComposite in="SourceGraphic" in2="offset" operator="over"></feComposite></filter><filter id="shadow-15" height="300%" width="300%" x="-100%" y="-100%"><feFlood flood-color="rgba(255, 255, 255, 1)" result="flood"></feFlood><feComposite in="flood" in2="SourceGraphic" operator="atop" result="composite"></feComposite><feGaussianBlur in="composite" stdDeviation="15" result="blur"></feGaussianBlur><feOffset dx="0" dy="0" result="offset"></feOffset><feComposite in="SourceGraphic" in2="offset" operator="over"></feComposite></filter><filter id="shadow-16" height="300%" width="300%" x="-100%" y="-100%"><feFlood flood-color="rgba(255, 255, 255, 1)" result="flood"></feFlood><feComposite in="flood" in2="SourceGraphic" operator="atop" result="composite"></feComposite><feGaussianBlur in="composite" stdDeviation="15" result="blur"></feGaussianBlur><feOffset dx="0" dy="0" result="offset"></feOffset><feComposite in="SourceGraphic" in2="offset" operator="over"></feComposite></filter><filter id="shadow-17" height="300%" width="300%" x="-100%" y="-100%"><feFlood flood-color="rgba(255, 255, 255, 1)" result="flood"></feFlood><feComposite in="flood" in2="SourceGraphic" operator="atop" result="composite"></feComposite><feGaussianBlur in="composite" stdDeviation="15" result="blur"></feGaussianBlur><feOffset dx="0" dy="0" result="offset"></feOffset><feComposite in="SourceGraphic" in2="offset" operator="over"></feComposite></filter></defs><g class="" transform="translate(0,-4)" style=""><g transform="translate(435.2, 435.2) scale(-0.7, -0.7) rotate(-540, 256, 256) skewX(0) skewY(0)"><path d="M81.875 17.375C75.572 17.546 69.527 19.912 64.781 24.063C54.977 32.609 52.803 46.653 58.845 57.593C48.825 50.123 34.618 50.33 24.813 58.875C13.52 68.718 12.341 85.867 22.188 97.155C28.233 104.085 37.028 107.215 45.532 106.312L108.722 51.906C111.125 43.388 109.319 33.856 103.065 26.688C97.751 20.57 89.977 17.153 81.877 17.375Z" class="" fill="#9b9b9b" fill-opacity="1" filter="url(#shadow-2)"></path><path d="M110.22 75.25L71.624 108.5C76.974 111.992 82.564 115.996 88.28 120.47L121.906 99.53C117.509 91.688 113.606 83.579 110.219 75.25Z" class="" fill="#9b9b9b" fill-opacity="1"></path><path d="M131.75 115.406L103.406 133.094C110.141 139.041 116.924 145.494 123.626 152.281L145.25 133.031C145.054 132.905 144.852 132.785 144.656 132.657C140.092 127.107 135.786 121.351 131.75 115.407Z" class="" fill="#9b9b9b" fill-opacity="1"></path><path d="M162.094 143.031L132.874 169.063C138.154 180.49 142.717 191.995 145.564 203.001L189.438 156.031C180.091 152.205 170.962 147.865 162.094 143.031Z" class="" fill="#9b9b9b" fill-opacity="1"></path><path d="M208.438 163.031L148.688 227.031C148.398 258.035 168.941 273.551 182.844 273.781C189.854 273.898 195.064 271.416 198.656 263.531C202.248 255.648 203.414 241.071 196.626 218.939L190.531 199.064L209.438 207.689C239.812 221.531 257.425 211.759 261.97 201.939C264.24 197.029 264.124 191.679 259.906 185.689C255.688 179.697 246.703 173.164 230.812 169.376C223.269 167.572 215.804 165.455 208.437 163.032Z" class="selected" fill="#9b9b9b" fill-opacity="1"></path><path d="M253.813 230.501C243.859 233.541 231.848 233.866 218.688 230.626C221.658 247.281 220.454 260.752 215.656 271.282C215.569 271.475 215.466 271.656 215.376 271.846C245.373 302.852 257.51 347.124 236.562 388.721C274.895 458.389 382.14 516.055 493.406 484.938C313.382 411.608 377.091 325.258 253.812 230.501Z" class="" fill="#4a4a4a" fill-opacity="1"></path></g></g></svg>