<svg xmlns="http://www.w3.org/2000/svg" viewBox="0 0 512 512" style="height: 512px; width: 512px;"><defs><filter id="shadow-1" height="300%" width="300%" x="-100%" y="-100%"><feFlood flood-color="rgba(255, 255, 255, 1)" result="flood"></feFlood><feComposite in="flood" in2="SourceGraphic" operator="atop" result="composite"></feComposite><feGaussianBlur in="composite" stdDeviation="15" result="blur"></feGaussianBlur><feOffset dx="0" dy="0" result="offset"></feOffset><feComposite in="SourceGraphic" in2="offset" operator="over"></feComposite></filter><filter id="shadow-12" height="300%" width="300%" x="-100%" y="-100%"><feFlood flood-color="rgba(255, 255, 255, 1)" result="flood"></feFlood><feComposite in="flood" in2="SourceGraphic" operator="atop" result="composite"></feComposite><feGaussianBlur in="composite" stdDeviation="15" result="blur"></feGaussianBlur><feOffset dx="0" dy="0" result="offset"></feOffset><feComposite in="SourceGraphic" in2="offset" operator="over"></feComposite></filter><filter id="shadow-13" height="300%" width="300%" x="-100%" y="-100%"><feFlood flood-color="rgba(255, 255, 255, 1)" result="flood"></feFlood><feComposite in="flood" in2="SourceGraphic" operator="atop" result="composite"></feComposite><feGaussianBlur in="composite" stdDeviation="15" result="blur"></feGaussianBlur><feOffset dx="0" dy="0" result="offset"></feOffset><feComposite in="SourceGraphic" in2="offset" operator="over"></feComposite></filter><filter id="shadow-14" height="300%" width="300%" x="-100%" y="-100%"><feFlood flood-color="rgba(255, 255, 255, 1)" result="flood"></feFlood><feComposite in="flood" in2="SourceGraphic" operator="atop" result="composite"></feComposite><feGaussianBlur in="composite" stdDeviation="15" result="blur"></feGaussianBlur><feOffset dx="0" dy="0" result="offset"></feOffset><feComposite in="SourceGraphic" in2="offset" operator="over"></feComposite></filter><filter id="shadow-15" height="300%" width="300%" x="-100%" y="-100%"><feFlood flood-color="rgba(255, 255, 255, 1)" result="flood"></feFlood><feComposite in="flood" in2="SourceGraphic" operator="atop" result="composite"></feComposite><feGaussianBlur in="composite" stdDeviation="15" result="blur"></feGaussianBlur><feOffset dx="0" dy="0" result="offset"></feOffset><feComposite in="SourceGraphic" in2="offset" operator="over"></feComposite></filter><filter id="shadow-16" height="300%" width="300%" x="-100%" y="-100%"><feFlood flood-color="rgba(255, 255, 255, 1)" result="flood"></feFlood><feComposite in="flood" in2="SourceGraphic" operator="atop" result="composite"></feComposite><feGaussianBlur in="composite" stdDeviation="15" result="blur"></feGaussianBlur><feOffset dx="0" dy="0" result="offset"></feOffset><feComposite in="SourceGraphic" in2="offset" operator="over"></feComposite></filter></defs><g class="" transform="translate(-1,-1)" style=""><g transform="translate(435.2, 435.2) scale(-0.7, -0.7) rotate(-540, 256, 256) skewX(0) skewY(0)"><path d="M133.813 37.28C103.96 66.698 96.25 109.353 110.28 145.47C73.79 125.087 45.75 89.983 35.656 46.563C11.376 120.455 46.02 198.117 113.062 230.375C80.684 239.34 45.488 228.235 20.219 197.345C33.446 261.435 82.114 300.65 132.062 291.25C125.087 322.133 101.312 340.58 70.03 335.688C104.353 363.065 141.336 362.688 161.187 338.125C173.643 360.448 188.433 382.329 205.562 403.563L182.437 415.625C199.397 442.58 225.057 468.66 258.344 492.75C290.134 469.657 313.76 444.298 330.781 418.47L307.971 406.625C326.233 384.335 341.934 361.312 355.095 337.781C374.875 362.693 412.079 363.197 446.565 335.689C415.281 340.579 391.475 322.135 384.501 291.251C434.461 300.673 483.145 261.451 496.376 197.345C471.106 228.235 435.911 239.341 403.532 230.375C470.576 198.118 505.22 120.455 480.94 46.565C470.843 89.993 442.787 125.09 406.283 145.47C420.318 109.35 412.639 66.698 382.783 37.28C395.526 87.833 367.573 140.02 318.941 157.625C279.634 160.61 237.187 160.663 197.878 157.719C149.108 140.192 121.054 87.909 133.815 37.279Z" class="" fill="#9b9b9b" fill-opacity="1"></path><path d="M385.969 167.875C382.006 260.135 339.307 352.612 258.061 433.655C176.396 352.475 134.476 260.133 130.624 167.905C206.204 182.453 310.44 182.271 385.968 167.875Z" class="selected" fill="#c9c9c9" fill-opacity="1"></path></g></g></svg>