<svg xmlns="http://www.w3.org/2000/svg" viewBox="0 0 512 512" style="height: 512px; width: 512px;"><defs><filter id="shadow-1" height="300%" width="300%" x="-100%" y="-100%"><feFlood flood-color="rgba(255, 255, 255, 1)" result="flood"></feFlood><feComposite in="flood" in2="SourceGraphic" operator="atop" result="composite"></feComposite><feGaussianBlur in="composite" stdDeviation="15" result="blur"></feGaussianBlur><feOffset dx="0" dy="0" result="offset"></feOffset><feComposite in="SourceGraphic" in2="offset" operator="over"></feComposite></filter><filter id="shadow-12" height="300%" width="300%" x="-100%" y="-100%"><feFlood flood-color="rgba(255, 255, 255, 1)" result="flood"></feFlood><feComposite in="flood" in2="SourceGraphic" operator="atop" result="composite"></feComposite><feGaussianBlur in="composite" stdDeviation="15" result="blur"></feGaussianBlur><feOffset dx="0" dy="0" result="offset"></feOffset><feComposite in="SourceGraphic" in2="offset" operator="over"></feComposite></filter><filter id="shadow-13" height="300%" width="300%" x="-100%" y="-100%"><feFlood flood-color="rgba(255, 255, 255, 1)" result="flood"></feFlood><feComposite in="flood" in2="SourceGraphic" operator="atop" result="composite"></feComposite><feGaussianBlur in="composite" stdDeviation="15" result="blur"></feGaussianBlur><feOffset dx="0" dy="0" result="offset"></feOffset><feComposite in="SourceGraphic" in2="offset" operator="over"></feComposite></filter><filter id="shadow-14" height="300%" width="300%" x="-100%" y="-100%"><feFlood flood-color="rgba(255, 255, 255, 1)" result="flood"></feFlood><feComposite in="flood" in2="SourceGraphic" operator="atop" result="composite"></feComposite><feGaussianBlur in="composite" stdDeviation="15" result="blur"></feGaussianBlur><feOffset dx="0" dy="0" result="offset"></feOffset><feComposite in="SourceGraphic" in2="offset" operator="over"></feComposite></filter><filter id="shadow-15" height="300%" width="300%" x="-100%" y="-100%"><feFlood flood-color="rgba(255, 255, 255, 1)" result="flood"></feFlood><feComposite in="flood" in2="SourceGraphic" operator="atop" result="composite"></feComposite><feGaussianBlur in="composite" stdDeviation="15" result="blur"></feGaussianBlur><feOffset dx="0" dy="0" result="offset"></feOffset><feComposite in="SourceGraphic" in2="offset" operator="over"></feComposite></filter><filter id="shadow-16" height="300%" width="300%" x="-100%" y="-100%"><feFlood flood-color="rgba(255, 255, 255, 1)" result="flood"></feFlood><feComposite in="flood" in2="SourceGraphic" operator="atop" result="composite"></feComposite><feGaussianBlur in="composite" stdDeviation="15" result="blur"></feGaussianBlur><feOffset dx="0" dy="0" result="offset"></feOffset><feComposite in="SourceGraphic" in2="offset" operator="over"></feComposite></filter></defs><g class="" transform="translate(-1,-1)" style=""><g transform="translate(435.2, 435.2) scale(-0.7, -0.7) rotate(-540, 256, 256) skewX(0) skewY(0)"><path d="M111.9 33.4C136.7 78.44 135.7 121.4 120.3 157.9C104 196.5 72.83 228.3 41.39 252.5C43.19 264.9 52.54 284.3 67.59 305.4C84.4 329.1 107.6 355.3 132.4 380C157.1 404.8 183.4 428.1 206.3 446.1C227.4 462.6 245.9 474.3 256 478.6C266.1 474.3 284.6 462.6 305.7 446.1C328.6 428.1 354.9 404.8 379.6 380C404.4 355.3 427.6 329.1 444.4 305.4C459.5 284.3 468.8 264.9 470.6 252.5C439.2 228.3 408 196.5 391.7 157.9C376.3 121.4 375.3 78.44 400.1 33.4L354 33.4C289.2 65.14 222.8 65.14 158 33.4Z" class="selected" fill="#9b9b9b" fill-opacity="1"></path><path d="M161.1 79.4L210.1 79.4L212 80.35C234.1 91.36 245.7 96.1 256 96.1C266.3 96.1 277.9 91.36 300 80.35L301.9 79.4L350.9 79.4L349.3 89.78C337.4 166.3 374.3 218.9 416.8 250.8L420.4 253.5L420.4 258C420.4 273.2 411.5 288.9 399.1 306.3C386.7 323.8 370.1 342.4 352.6 360C335 377.6 316.4 394.1 299.9 407C283.4 420 269.9 429.3 258.8 432.9L256 433.9L253.2 432.9C242.1 429.3 228.6 420 212.1 407C195.7 394.1 177.1 377.6 159.5 360C141.9 342.4 125.3 323.8 112.9 306.3C100.5 288.9 91.71 273.2 91.71 258L91.71 253.5L95.3 250.8C137.7 218.9 174.7 166.3 162.7 89.79Z" class="" fill="#ffffff" fill-opacity="1"></path><path d="M181.7 97.4C189.6 172.9 152.8 228.2 110.4 261.8C111.9 269.6 117.8 282.1 127.6 295.9C139.1 312.1 155.2 330.2 172.2 347.3C189.3 364.4 207.5 380.5 223.2 392.9C237.1 403.7 249.3 411.5 256 414.5C262.7 411.5 274.9 403.7 288.8 392.9C304.6 380.5 322.7 364.4 339.8 347.3C356.9 330.2 372.9 312.1 384.5 295.9C394.3 282.1 400.2 269.6 401.7 261.8C359.2 228.2 322.5 172.9 330.3 97.4L306.1 97.4C284.9 107.9 271 114.1 256 114.1C241 114.1 227.1 107.9 205.9 97.4Z" class="" fill="#b57204" fill-opacity="1"></path><path d="M256 123.7L300.7 168.4L256 213.1L211.3 168.4L249.6 130Z" class="" fill="#ffffff" fill-opacity="1"></path><path d="M256 149.1L236.7 168.4L256 187.7L275.3 168.4Z" class="" fill="#b57204" fill-opacity="1"></path><path d="M256 235.7L332.7 312.4L256 389.1L179.3 312.4L249.6 242Z" class="" fill="#ffffff" fill-opacity="1"></path><path d="M256 261.1L204.7 312.4L256 363.7L307.3 312.4Z" class="" fill="#b57204" fill-opacity="1"></path></g></g></svg>