<svg xmlns="http://www.w3.org/2000/svg" viewBox="0 0 512 512" style="height: 512px; width: 512px;"><defs><filter id="shadow-1" height="300%" width="300%" x="-100%" y="-100%"><feFlood flood-color="rgba(255, 255, 255, 1)" result="flood"></feFlood><feComposite in="flood" in2="SourceGraphic" operator="atop" result="composite"></feComposite><feGaussianBlur in="composite" stdDeviation="15" result="blur"></feGaussianBlur><feOffset dx="0" dy="0" result="offset"></feOffset><feComposite in="SourceGraphic" in2="offset" operator="over"></feComposite></filter><filter id="shadow-2" height="300%" width="300%" x="-100%" y="-100%"><feFlood flood-color="rgba(255, 255, 255, 1)" result="flood"></feFlood><feComposite in="flood" in2="SourceGraphic" operator="atop" result="composite"></feComposite><feGaussianBlur in="composite" stdDeviation="15" result="blur"></feGaussianBlur><feOffset dx="0" dy="0" result="offset"></feOffset><feComposite in="SourceGraphic" in2="offset" operator="over"></feComposite></filter><filter id="shadow-12" height="300%" width="300%" x="-100%" y="-100%"><feFlood flood-color="rgba(255, 255, 255, 1)" result="flood"></feFlood><feComposite in="flood" in2="SourceGraphic" operator="atop" result="composite"></feComposite><feGaussianBlur in="composite" stdDeviation="15" result="blur"></feGaussianBlur><feOffset dx="0" dy="0" result="offset"></feOffset><feComposite in="SourceGraphic" in2="offset" operator="over"></feComposite></filter><filter id="shadow-13" height="300%" width="300%" x="-100%" y="-100%"><feFlood flood-color="rgba(255, 255, 255, 1)" result="flood"></feFlood><feComposite in="flood" in2="SourceGraphic" operator="atop" result="composite"></feComposite><feGaussianBlur in="composite" stdDeviation="15" result="blur"></feGaussianBlur><feOffset dx="0" dy="0" result="offset"></feOffset><feComposite in="SourceGraphic" in2="offset" operator="over"></feComposite></filter><filter id="shadow-14" height="300%" width="300%" x="-100%" y="-100%"><feFlood flood-color="rgba(255, 255, 255, 1)" result="flood"></feFlood><feComposite in="flood" in2="SourceGraphic" operator="atop" result="composite"></feComposite><feGaussianBlur in="composite" stdDeviation="15" result="blur"></feGaussianBlur><feOffset dx="0" dy="0" result="offset"></feOffset><feComposite in="SourceGraphic" in2="offset" operator="over"></feComposite></filter><filter id="shadow-15" height="300%" width="300%" x="-100%" y="-100%"><feFlood flood-color="rgba(255, 255, 255, 1)" result="flood"></feFlood><feComposite in="flood" in2="SourceGraphic" operator="atop" result="composite"></feComposite><feGaussianBlur in="composite" stdDeviation="15" result="blur"></feGaussianBlur><feOffset dx="0" dy="0" result="offset"></feOffset><feComposite in="SourceGraphic" in2="offset" operator="over"></feComposite></filter><filter id="shadow-16" height="300%" width="300%" x="-100%" y="-100%"><feFlood flood-color="rgba(255, 255, 255, 1)" result="flood"></feFlood><feComposite in="flood" in2="SourceGraphic" operator="atop" result="composite"></feComposite><feGaussianBlur in="composite" stdDeviation="15" result="blur"></feGaussianBlur><feOffset dx="0" dy="0" result="offset"></feOffset><feComposite in="SourceGraphic" in2="offset" operator="over"></feComposite></filter><filter id="shadow-17" height="300%" width="300%" x="-100%" y="-100%"><feFlood flood-color="rgba(255, 255, 255, 1)" result="flood"></feFlood><feComposite in="flood" in2="SourceGraphic" operator="atop" result="composite"></feComposite><feGaussianBlur in="composite" stdDeviation="15" result="blur"></feGaussianBlur><feOffset dx="0" dy="0" result="offset"></feOffset><feComposite in="SourceGraphic" in2="offset" operator="over"></feComposite></filter></defs><g class="" transform="translate(0,-4)" style=""><g transform="translate(435.2, 435.2) scale(-0.7, -0.7) rotate(-540, 256, 256) skewX(0) skewY(0)"><path d="M420.2 27.03L342.6 169.4L485 91.76C483.5 89.15 481.4 85.88 478.6 82.19C472.7 74.42 464.4 65.13 455.6 56.36C446.9 47.6 437.6 39.31 429.8 33.42C426.1 30.63 422.9 28.49 420.2 27.03Z" class="" fill="#b57204" fill-opacity="1" filter="url(#shadow-2)"></path><path d="M394.8 36.09L165 53.77C173.3 63.41 181 75 187.1 87L367 87L394.8 36.09Z" class="" fill="#b57204" fill-opacity="1"></path><path d="M128.1 48.12L26.3 56.21C29.46 68.79 38.26 87.01 47.66 102.3C57.57 118.4 66.04 129.7 68.86 133.4L169.8 143C174.9 142.9 177.3 141.8 178.7 140.5C180.1 139.2 181.2 137.2 181.6 133.4C182.4 125.8 179.2 112.6 173 99.36C166.8 86.1 157.9 72.57 149 62.8C140.1 53.1 130.9 48.22 128.1 48.12Z" class="" fill="#b57204" fill-opacity="1"></path><path d="M194.9 105C198.6 115.4 200.5 125.6 199.5 135.1L336.8 142.4L357.2 105L194.9 105Z" class="" fill="#4a4a4a" fill-opacity="1"></path><path d="M475.9 117.2L425 145L425 324.9C437 331 448.6 338.7 458.2 347L475.9 117.2Z" class="" fill="#4a4a4a" fill-opacity="1"></path><path d="M407 154.8L369.6 175.2L376.9 312.5C378.5 312.3 380.2 312.2 381.8 312.2C389.9 312.2 398.4 314.1 407 317.1L407 154.8Z" class="" fill="#b57204" fill-opacity="1"></path><path d="M185.6 185.6L57.64 313.6L70.36 326.4L198.4 198.4L185.6 185.6Z" class="" fill="#4a4a4a" fill-opacity="1"></path><path d="M297.6 201.6L41.64 457.6L54.36 470.4L310.4 214.4L297.6 201.6Z" class="" fill="#b57204" fill-opacity="1"></path><path d="M313.6 313.6L185.6 441.6L198.4 454.4L326.4 326.4L313.6 313.6Z" class="" fill="#4a4a4a" fill-opacity="1"></path><path d="M381.7 330.3C380.6 330.3 379.5 330.3 378.6 330.4C374.8 330.8 372.8 331.9 371.5 333.3C370.2 334.7 369.1 337.1 369 342.2L378.6 443.1C382.3 446 393.6 454.4 409.7 464.3C425 473.7 443.2 482.5 455.8 485.7L463.9 383.9C463.8 381.1 458.9 371.9 449.2 363C439.4 354.1 425.9 345.2 412.6 339C401 333.6 389.5 330.4 381.7 330.3Z" class="selected" fill="#b57204" fill-opacity="1"></path></g></g></svg>