<svg xmlns="http://www.w3.org/2000/svg" viewBox="0 0 512 512" style="height: 512px; width: 512px;"><defs><filter id="shadow-1" height="300%" width="300%" x="-100%" y="-100%"><feFlood flood-color="rgba(255, 255, 255, 1)" result="flood"></feFlood><feComposite in="flood" in2="SourceGraphic" operator="atop" result="composite"></feComposite><feGaussianBlur in="composite" stdDeviation="15" result="blur"></feGaussianBlur><feOffset dx="0" dy="0" result="offset"></feOffset><feComposite in="SourceGraphic" in2="offset" operator="over"></feComposite></filter><filter id="shadow-12" height="300%" width="300%" x="-100%" y="-100%"><feFlood flood-color="rgba(255, 255, 255, 1)" result="flood"></feFlood><feComposite in="flood" in2="SourceGraphic" operator="atop" result="composite"></feComposite><feGaussianBlur in="composite" stdDeviation="15" result="blur"></feGaussianBlur><feOffset dx="0" dy="0" result="offset"></feOffset><feComposite in="SourceGraphic" in2="offset" operator="over"></feComposite></filter><filter id="shadow-13" height="300%" width="300%" x="-100%" y="-100%"><feFlood flood-color="rgba(255, 255, 255, 1)" result="flood"></feFlood><feComposite in="flood" in2="SourceGraphic" operator="atop" result="composite"></feComposite><feGaussianBlur in="composite" stdDeviation="15" result="blur"></feGaussianBlur><feOffset dx="0" dy="0" result="offset"></feOffset><feComposite in="SourceGraphic" in2="offset" operator="over"></feComposite></filter><filter id="shadow-14" height="300%" width="300%" x="-100%" y="-100%"><feFlood flood-color="rgba(255, 255, 255, 1)" result="flood"></feFlood><feComposite in="flood" in2="SourceGraphic" operator="atop" result="composite"></feComposite><feGaussianBlur in="composite" stdDeviation="15" result="blur"></feGaussianBlur><feOffset dx="0" dy="0" result="offset"></feOffset><feComposite in="SourceGraphic" in2="offset" operator="over"></feComposite></filter><filter id="shadow-15" height="300%" width="300%" x="-100%" y="-100%"><feFlood flood-color="rgba(255, 255, 255, 1)" result="flood"></feFlood><feComposite in="flood" in2="SourceGraphic" operator="atop" result="composite"></feComposite><feGaussianBlur in="composite" stdDeviation="15" result="blur"></feGaussianBlur><feOffset dx="0" dy="0" result="offset"></feOffset><feComposite in="SourceGraphic" in2="offset" operator="over"></feComposite></filter><filter id="shadow-16" height="300%" width="300%" x="-100%" y="-100%"><feFlood flood-color="rgba(255, 255, 255, 1)" result="flood"></feFlood><feComposite in="flood" in2="SourceGraphic" operator="atop" result="composite"></feComposite><feGaussianBlur in="composite" stdDeviation="15" result="blur"></feGaussianBlur><feOffset dx="0" dy="0" result="offset"></feOffset><feComposite in="SourceGraphic" in2="offset" operator="over"></feComposite></filter></defs><g class="" transform="translate(-1,-1)" style=""><g transform="translate(435.2, 435.2) scale(-0.7, -0.7) rotate(-540, 256, 256) skewX(0) skewY(0)"><path d="M211.094 18.22L228.874 224.938C230.27 229.553 233.624 233.362 239.156 236.375C244.883 239.493 252.668 241.373 260.469 241.469C268.269 241.563 276.049 239.847 281.749 236.812C287.283 233.865 290.724 230.068 292.249 224.905L312.438 18.22L211.094 18.22Z" class="selected" fill="#c9c9c9" fill-opacity="1"></path><path d="M85.25 63.062C45.14 93.137 20.594 133.552 20.594 178.249C20.594 209.471 32.574 238.689 53.437 263.719L80.5 185.686C68.655 167.852 62 147.913 62 126.907C62 103.734 71.034 82.239 85.25 63.063Z" class="" fill="#9b9b9b" fill-opacity="1"></path><path d="M426.875 63.062C441.091 82.238 450.125 103.732 450.125 126.905C450.125 146.887 444.092 165.905 433.312 183.061L460.75 262.124C480.954 237.449 492.563 208.814 492.563 178.249C492.563 133.555 466.983 93.137 426.875 63.061Z" class="" fill="#9b9b9b" fill-opacity="1"></path><path d="M201.969 130.312C165.989 165.007 142.813 192.722 128.187 225.249C106.501 273.473 101.929 335.435 101.78 450.874C142.574 472.542 185.195 485.606 227.812 490.187L240.845 337C210.351 335.647 179.485 330.87 147.065 322.187L136.782 319.437L140.814 309.594L151.034 284.688L154.158 277.094L162.096 279.219C226.828 296.554 291.853 296.004 354.533 279.219L362.659 277.029L365.659 284.905L375.189 309.811L378.909 319.499L368.879 322.187C338.089 330.432 308.335 335.231 278.566 336.812L292 490.655C336.065 486.563 379.078 473.303 418.906 451.03C418.696 341.917 412.502 282.298 389.876 233.375C375.136 201.505 352.671 172.97 319.563 137.719L310.75 227.779L310.687 228.561L310.469 229.311C307.522 240.297 299.693 248.431 290.529 253.311C281.367 258.191 270.761 260.284 260.249 260.155C249.737 260.027 239.234 257.689 230.219 252.78C221.202 247.872 213.481 239.968 210.624 229.312L210.404 228.5L210.344 227.687L201.968 130.312Z" class="" fill="#9b9b9b" fill-opacity="1"></path><path d="M103.437 176.592L62.5 294.657L88.688 306.751C92.778 271.301 99.662 243.085 111.125 217.595C116.288 206.115 122.328 195.299 129.375 184.72L103.437 176.594Z" class="" fill="#9b9b9b" fill-opacity="1"></path><path d="M411.28 176.592L383.625 185.249C392.702 198.369 400.385 211.562 406.845 225.529C417.727 249.061 424.975 274.462 429.687 305.061L452.25 294.655L411.28 176.593Z" class="" fill="#9b9b9b" fill-opacity="1"></path></g></g></svg>