<svg xmlns="http://www.w3.org/2000/svg" viewBox="0 0 512 512" style="height: 512px; width: 512px;"><defs><filter id="shadow-1" height="300%" width="300%" x="-100%" y="-100%"><feFlood flood-color="rgba(255, 255, 255, 1)" result="flood"></feFlood><feComposite in="flood" in2="SourceGraphic" operator="atop" result="composite"></feComposite><feGaussianBlur in="composite" stdDeviation="15" result="blur"></feGaussianBlur><feOffset dx="0" dy="0" result="offset"></feOffset><feComposite in="SourceGraphic" in2="offset" operator="over"></feComposite></filter><filter id="shadow-12" height="300%" width="300%" x="-100%" y="-100%"><feFlood flood-color="rgba(255, 255, 255, 1)" result="flood"></feFlood><feComposite in="flood" in2="SourceGraphic" operator="atop" result="composite"></feComposite><feGaussianBlur in="composite" stdDeviation="15" result="blur"></feGaussianBlur><feOffset dx="0" dy="0" result="offset"></feOffset><feComposite in="SourceGraphic" in2="offset" operator="over"></feComposite></filter><filter id="shadow-13" height="300%" width="300%" x="-100%" y="-100%"><feFlood flood-color="rgba(255, 255, 255, 1)" result="flood"></feFlood><feComposite in="flood" in2="SourceGraphic" operator="atop" result="composite"></feComposite><feGaussianBlur in="composite" stdDeviation="15" result="blur"></feGaussianBlur><feOffset dx="0" dy="0" result="offset"></feOffset><feComposite in="SourceGraphic" in2="offset" operator="over"></feComposite></filter></defs><g class="" transform="translate(-1,0)" style=""><g transform="translate(435.2, 435.2) scale(-0.7, -0.7) rotate(-540, 256, 256) skewX(0) skewY(0)"><path d="M460.406 22.125L449.936 23.375C317.931 39.133 186.22 42.595 54.688 23.405L54 23.282L44 23.282L44 32.627C44 135.687 54.502 238.475 85.25 321.847C115.998 405.217 167.915 469.807 249.594 492.252L251.814 492.846L254.031 492.376C343.623 473.276 396.199 408.446 425.031 324.221C453.866 239.996 460.407 135.729 460.407 32.626L460.407 22.126Z" class="" fill="#b57204" fill-opacity="1"></path><path d="M441.626 43.031C441.361 99.614 438.873 156.083 431.813 208.626L334.531 249.906L417.22 285C414.263 296.405 411 307.478 407.344 318.156C385.13 383.046 350.327 433.112 294.374 459.344L252.531 360.969L211.781 456.811C160.968 428.694 126.204 378.881 102.781 315.374C98.895 304.834 95.371 293.914 92.126 282.686L169.314 249.906L75.657 208.53C67.062 156.267 63.267 100.036 62.845 43.344C111.969 50.054 161.062 53.67 210.125 54.75L252.72 154.938L295.563 54.156C344.281 52.472 392.973 48.598 441.625 43.031Z" class="" fill="#8b572a" fill-opacity="1"></path><path d="M86.218 66.78C86.218 110.69 88.538 154.476 94.186 195.937L217.123 250.25L115.779 293.28C134.153 348.98 162.487 394.718 204.529 422.313L252.719 308.938L302.187 425.313C348.229 399.129 376.667 352.787 393.937 295.75L286.717 250.25L413.03 196.625C417.606 154.803 419.094 110.71 419.094 66.781C382.461 71.155 345.82 74.411 309.188 76.221L252.718 209.095L196.5 76.874C159.732 75.391 122.986 72.144 86.22 66.781Z" class="selected" fill="#ffffff" fill-opacity="1"></path></g></g></svg>