<svg xmlns="http://www.w3.org/2000/svg" viewBox="0 0 512 512" style="height: 512px; width: 512px;"><defs><filter id="shadow-1" height="300%" width="300%" x="-100%" y="-100%"><feFlood flood-color="rgba(255, 255, 255, 1)" result="flood"></feFlood><feComposite in="flood" in2="SourceGraphic" operator="atop" result="composite"></feComposite><feGaussianBlur in="composite" stdDeviation="15" result="blur"></feGaussianBlur><feOffset dx="0" dy="0" result="offset"></feOffset><feComposite in="SourceGraphic" in2="offset" operator="over"></feComposite></filter></defs><g class="" transform="translate(0,0)" style=""><g transform="translate(435.2, 435.2) scale(-0.7, -0.7) rotate(-540, 256, 256) skewX(0) skewY(0)"><path d="M492.656 20.406L374.062 76.626L413.875 86L326.905 172.97L21.405 432.344L22.095 433.031L126.845 385.564L80.469 491.407L81.374 492.313L353.874 172.438L427.094 99.22L436.436 139.03L492.656 20.406Z" class="selected" fill="#9b9b9b" fill-opacity="1"></path><path d="M19.406 20.469C18.059 43.899 24.406 60.416 35.969 72.687L60.062 374.967L77.624 360.093L55.904 87.655C113.879 119.609 225 112.82 272.811 194.375L339.436 137.811L340.656 136.593C292.74 38.666 86.01 99.716 19.406 20.47Z" class="" fill="#dda03d" fill-opacity="1"></path><path d="M378.937 172.029L377.781 173.186L320.531 240.374C402.537 288.319 396.118 399.641 427.814 458.404L155.657 433.904L140.845 451.312L442.407 478.437C454.887 490.72 471.807 497.521 496.095 496.124C416.145 428.924 477.735 220.37 378.939 172.03Z" class="" fill="#dda03d" fill-opacity="1"></path></g></g></svg>