<svg xmlns="http://www.w3.org/2000/svg" viewBox="0 0 512 512" style="height: 512px; width: 512px;"><defs><filter id="shadow-1" height="300%" width="300%" x="-100%" y="-100%"><feFlood flood-color="rgba(255, 255, 255, 1)" result="flood"></feFlood><feComposite in="flood" in2="SourceGraphic" operator="atop" result="composite"></feComposite><feGaussianBlur in="composite" stdDeviation="15" result="blur"></feGaussianBlur><feOffset dx="0" dy="0" result="offset"></feOffset><feComposite in="SourceGraphic" in2="offset" operator="over"></feComposite></filter><filter id="shadow-2" height="300%" width="300%" x="-100%" y="-100%"><feFlood flood-color="rgba(255, 255, 255, 1)" result="flood"></feFlood><feComposite in="flood" in2="SourceGraphic" operator="atop" result="composite"></feComposite><feGaussianBlur in="composite" stdDeviation="15" result="blur"></feGaussianBlur><feOffset dx="0" dy="0" result="offset"></feOffset><feComposite in="SourceGraphic" in2="offset" operator="over"></feComposite></filter><filter id="shadow-12" height="300%" width="300%" x="-100%" y="-100%"><feFlood flood-color="rgba(255, 255, 255, 1)" result="flood"></feFlood><feComposite in="flood" in2="SourceGraphic" operator="atop" result="composite"></feComposite><feGaussianBlur in="composite" stdDeviation="15" result="blur"></feGaussianBlur><feOffset dx="0" dy="0" result="offset"></feOffset><feComposite in="SourceGraphic" in2="offset" operator="over"></feComposite></filter><filter id="shadow-13" height="300%" width="300%" x="-100%" y="-100%"><feFlood flood-color="rgba(255, 255, 255, 1)" result="flood"></feFlood><feComposite in="flood" in2="SourceGraphic" operator="atop" result="composite"></feComposite><feGaussianBlur in="composite" stdDeviation="15" result="blur"></feGaussianBlur><feOffset dx="0" dy="0" result="offset"></feOffset><feComposite in="SourceGraphic" in2="offset" operator="over"></feComposite></filter><filter id="shadow-14" height="300%" width="300%" x="-100%" y="-100%"><feFlood flood-color="rgba(255, 255, 255, 1)" result="flood"></feFlood><feComposite in="flood" in2="SourceGraphic" operator="atop" result="composite"></feComposite><feGaussianBlur in="composite" stdDeviation="15" result="blur"></feGaussianBlur><feOffset dx="0" dy="0" result="offset"></feOffset><feComposite in="SourceGraphic" in2="offset" operator="over"></feComposite></filter><filter id="shadow-15" height="300%" width="300%" x="-100%" y="-100%"><feFlood flood-color="rgba(255, 255, 255, 1)" result="flood"></feFlood><feComposite in="flood" in2="SourceGraphic" operator="atop" result="composite"></feComposite><feGaussianBlur in="composite" stdDeviation="15" result="blur"></feGaussianBlur><feOffset dx="0" dy="0" result="offset"></feOffset><feComposite in="SourceGraphic" in2="offset" operator="over"></feComposite></filter><filter id="shadow-16" height="300%" width="300%" x="-100%" y="-100%"><feFlood flood-color="rgba(255, 255, 255, 1)" result="flood"></feFlood><feComposite in="flood" in2="SourceGraphic" operator="atop" result="composite"></feComposite><feGaussianBlur in="composite" stdDeviation="15" result="blur"></feGaussianBlur><feOffset dx="0" dy="0" result="offset"></feOffset><feComposite in="SourceGraphic" in2="offset" operator="over"></feComposite></filter></defs><g class="" transform="translate(-2,-3)" style=""><g transform="translate(435.2, 435.2) scale(-0.7, -0.7) rotate(-540, 256, 256) skewX(0) skewY(0)"><path d="M173.438 56.625C149.241 56.879 122.028 65.149 97.313 80.5C56.04 106.135 22.91 150.185 21.5 204.813C44.535 227.966 58.746 258.615 70.22 291.125C107.996 215.551 173.83 178.755 224.5 181.905C212.267 145.795 214.588 104.642 214.156 65.937C203.901 60.219 191.631 57.147 178.25 56.687C176.665 56.633 175.05 56.607 173.437 56.625Z" class="" fill="#4a90e2" fill-opacity="1" filter="url(#shadow-2)"></path><path d="M216.218 200.625C179.225 202.455 128.584 229.188 95 284.719C120.173 341.507 153.682 400.355 189.688 439.969C220.642 429.067 262.481 409.217 302.781 385.561C283.141 339.833 287.034 293.433 304.376 256.749C294.631 257.184 285.542 256.223 277.063 253.843C274.295 253.066 271.618 252.117 269.001 251.063L269.376 251.718C264.254 254.715 256.708 261.975 250.563 270.748C244.419 279.521 239.49 289.843 237.813 298.436L219.47 294.873C221.87 282.561 227.93 270.481 235.25 260.029C240.273 252.859 245.814 246.461 251.688 241.469C245.706 237.169 240.143 232.139 235 226.437C215.066 235.489 194.806 257.834 191.687 276.593L173.25 273.53C177.65 247.062 199.06 223.538 223.188 211.375C220.798 207.935 218.491 204.345 216.218 200.625Z" class="selected" fill="#4a90e2" fill-opacity="1"></path><path d="M402.031 203.405C401.298 203.407 400.548 203.409 399.814 203.437C388.066 203.887 376.376 207.807 365.189 214.5C320.709 241.11 288.615 313.588 322.469 384.063L329.719 391.313L319.469 397.469C272.969 425.415 224.359 448.496 188.719 459.999L201.064 477.874C293.324 443.994 413.652 374.314 491.907 312.094C478.48 257.491 456.992 226.794 434.845 213.094C424.092 206.44 413.052 203.391 402.032 203.404Z" class="" fill="#4a90e2" fill-opacity="1"></path></g></g></svg>