<svg xmlns="http://www.w3.org/2000/svg" viewBox="0 0 512 512" style="height: 512px; width: 512px;"><defs><filter id="shadow-1" height="300%" width="300%" x="-100%" y="-100%"><feFlood flood-color="rgba(255, 255, 255, 1)" result="flood"></feFlood><feComposite in="flood" in2="SourceGraphic" operator="atop" result="composite"></feComposite><feGaussianBlur in="composite" stdDeviation="15" result="blur"></feGaussianBlur><feOffset dx="0" dy="0" result="offset"></feOffset><feComposite in="SourceGraphic" in2="offset" operator="over"></feComposite></filter><filter id="shadow-2" height="300%" width="300%" x="-100%" y="-100%"><feFlood flood-color="rgba(255, 255, 255, 1)" result="flood"></feFlood><feComposite in="flood" in2="SourceGraphic" operator="atop" result="composite"></feComposite><feGaussianBlur in="composite" stdDeviation="15" result="blur"></feGaussianBlur><feOffset dx="0" dy="0" result="offset"></feOffset><feComposite in="SourceGraphic" in2="offset" operator="over"></feComposite></filter><filter id="shadow-12" height="300%" width="300%" x="-100%" y="-100%"><feFlood flood-color="rgba(255, 255, 255, 1)" result="flood"></feFlood><feComposite in="flood" in2="SourceGraphic" operator="atop" result="composite"></feComposite><feGaussianBlur in="composite" stdDeviation="15" result="blur"></feGaussianBlur><feOffset dx="0" dy="0" result="offset"></feOffset><feComposite in="SourceGraphic" in2="offset" operator="over"></feComposite></filter><filter id="shadow-13" height="300%" width="300%" x="-100%" y="-100%"><feFlood flood-color="rgba(255, 255, 255, 1)" result="flood"></feFlood><feComposite in="flood" in2="SourceGraphic" operator="atop" result="composite"></feComposite><feGaussianBlur in="composite" stdDeviation="15" result="blur"></feGaussianBlur><feOffset dx="0" dy="0" result="offset"></feOffset><feComposite in="SourceGraphic" in2="offset" operator="over"></feComposite></filter><filter id="shadow-14" height="300%" width="300%" x="-100%" y="-100%"><feFlood flood-color="rgba(255, 255, 255, 1)" result="flood"></feFlood><feComposite in="flood" in2="SourceGraphic" operator="atop" result="composite"></feComposite><feGaussianBlur in="composite" stdDeviation="15" result="blur"></feGaussianBlur><feOffset dx="0" dy="0" result="offset"></feOffset><feComposite in="SourceGraphic" in2="offset" operator="over"></feComposite></filter><filter id="shadow-15" height="300%" width="300%" x="-100%" y="-100%"><feFlood flood-color="rgba(255, 255, 255, 1)" result="flood"></feFlood><feComposite in="flood" in2="SourceGraphic" operator="atop" result="composite"></feComposite><feGaussianBlur in="composite" stdDeviation="15" result="blur"></feGaussianBlur><feOffset dx="0" dy="0" result="offset"></feOffset><feComposite in="SourceGraphic" in2="offset" operator="over"></feComposite></filter><filter id="shadow-16" height="300%" width="300%" x="-100%" y="-100%"><feFlood flood-color="rgba(255, 255, 255, 1)" result="flood"></feFlood><feComposite in="flood" in2="SourceGraphic" operator="atop" result="composite"></feComposite><feGaussianBlur in="composite" stdDeviation="15" result="blur"></feGaussianBlur><feOffset dx="0" dy="0" result="offset"></feOffset><feComposite in="SourceGraphic" in2="offset" operator="over"></feComposite></filter><filter id="shadow-17" height="300%" width="300%" x="-100%" y="-100%"><feFlood flood-color="rgba(255, 255, 255, 1)" result="flood"></feFlood><feComposite in="flood" in2="SourceGraphic" operator="atop" result="composite"></feComposite><feGaussianBlur in="composite" stdDeviation="15" result="blur"></feGaussianBlur><feOffset dx="0" dy="0" result="offset"></feOffset><feComposite in="SourceGraphic" in2="offset" operator="over"></feComposite></filter></defs><g class="" transform="translate(0,-3)" style=""><g transform="translate(435.2, 435.2) scale(-0.7, -0.7) rotate(-540, 256, 256) skewX(0) skewY(0)"><path d="M286.902 26.102L319.246 92.779L494.546 41.139Z" class="" fill="#b57204" fill-opacity="1" filter="url(#shadow-2)"></path><path d="M272.467 37.586L251.787 85.396L271.647 152.816L315.119 181.896C314.093 172.888 313.053 163.881 312.001 154.876C310.626 143.14 309.204 131.242 308.034 121.992C307.554 118.152 307.047 114.316 306.511 110.484C306.261 108.738 305.941 107.108 305.798 106.301Z" class="" fill="#b57204" fill-opacity="1"></path><path d="M499.629 58.406L324.599 109.966C324.989 112.782 325.401 115.859 325.892 119.734C327.074 129.088 328.502 141.017 329.88 152.781C331.078 163.024 332.259 173.268 333.424 183.515Z" class="" fill="#b57204" fill-opacity="1"></path><path d="M225.25 96.36C219.01 96.385 211.777 97.332 204.822 99.38C192.884 102.898 182.062 109.583 177.162 115.19L190.262 159.666C193.132 171.148 192.866 170.241 193.132 171.148C195.95 180.845 199.14 194.065 202.045 207.381C204.905 220.488 207.491 233.699 209.265 243.933C196.018 253.023 185.077 267.463 182.521 282.056C183.211 287.731 183.871 293.776 184.527 299.978L215.2 299.978L215.2 303.612C205.786 306.448 195.653 310.638 186.09 315.132C187.003 324.22 187.934 333.622 188.913 343.18L215.2 343.89L215.2 345.27C206.075 348.27 197.786 352.017 190.265 355.977C192.382 375.64 194.797 395.504 197.933 413.955C198.567 417.689 199.243 421.335 199.938 424.932L215.201 424.932L215.201 428.576C210.795 429.901 206.247 431.496 201.651 433.316C204.686 447.421 208.238 460.096 212.411 470.186C217.574 482.674 223.553 490.256 229.203 493.574C235.023 490.314 240.853 483.251 246.016 471.246C248.049 466.518 249.942 461.143 251.706 455.236C245.602 452.208 239.506 449.761 234.219 448.706L234.219 448.129L253.699 448.129C256.319 438.179 258.622 426.974 260.622 414.824C261.997 406.471 263.236 397.67 264.372 388.527C255.746 383.829 246.642 379.807 239.446 378.902C237.826 399.468 235.968 419.269 234.171 436.792C234.008 391.014 233.681 308.025 228.441 265.148L229.159 254.836C228.722 251.286 228.014 246.726 227.097 241.4C225.263 230.752 222.593 217.115 219.634 203.547C216.951 191.247 214.044 179.069 211.272 169.147C215.606 168.693 220.158 167.839 224.602 166.529C236.542 163.012 247.362 156.329 252.262 150.719L236.64 97.672C233.65 96.812 229.725 96.342 225.252 96.359Z" class="" fill="#c9c9c9" fill-opacity="1"></path><path d="M161.21 124.738L150.203 127.98L174.176 168.756Z" class="" fill="#9b9b9b" fill-opacity="1"></path><path d="M132.408 133.223L119.508 137.021L143.538 177.899L156.435 174.099Z" class="selected" fill="#b57204" fill-opacity="1"></path><path d="M101.768 142.365L114.734 186.383L125.74 183.141Z" class="" fill="#9b9b9b" fill-opacity="1"></path><path d="M84.468 147.345L18 166.924L18 214.878L97.47 191.468Z" class="" fill="#b57204" fill-opacity="1"></path><path d="M241.951 233.988C241.539 233.99 241.137 234.01 240.728 234.018C242.374 242.303 243.153 252.178 243.615 263.628C244.312 280.893 243.962 301.381 242.995 323.033C242.181 341.226 240.918 360.199 239.461 378.707L265.537 378.707C267.075 365.157 268.411 350.927 269.64 336.33C259.534 335.006 249.518 334.697 243.06 337.057L270.39 327.067C272.323 303.033 274.024 278.18 275.84 253.587C275.81 248.66 274.484 245.723 272.24 243.143C269.967 240.531 266.388 238.309 261.768 236.73C257.15 235.152 251.595 234.324 246.072 234.072C244.692 234.009 243.312 233.982 241.952 233.988Z" class="" fill="#c9c9c9" fill-opacity="1"></path><path d="M215.201 445.158L215.201 447.188L214.994 447.166C215.061 446.538 215.134 445.796 215.201 445.158Z" class="" fill="#4a4a4a" fill-opacity="1"></path></g></g></svg>