<svg xmlns="http://www.w3.org/2000/svg" viewBox="0 0 512 512" style="height: 512px; width: 512px;"><defs><filter id="shadow-1" height="300%" width="300%" x="-100%" y="-100%"><feFlood flood-color="rgba(255, 255, 255, 1)" result="flood"></feFlood><feComposite in="flood" in2="SourceGraphic" operator="atop" result="composite"></feComposite><feGaussianBlur in="composite" stdDeviation="15" result="blur"></feGaussianBlur><feOffset dx="0" dy="0" result="offset"></feOffset><feComposite in="SourceGraphic" in2="offset" operator="over"></feComposite></filter><filter id="shadow-12" height="300%" width="300%" x="-100%" y="-100%"><feFlood flood-color="rgba(255, 255, 255, 1)" result="flood"></feFlood><feComposite in="flood" in2="SourceGraphic" operator="atop" result="composite"></feComposite><feGaussianBlur in="composite" stdDeviation="15" result="blur"></feGaussianBlur><feOffset dx="0" dy="0" result="offset"></feOffset><feComposite in="SourceGraphic" in2="offset" operator="over"></feComposite></filter><filter id="shadow-13" height="300%" width="300%" x="-100%" y="-100%"><feFlood flood-color="rgba(255, 255, 255, 1)" result="flood"></feFlood><feComposite in="flood" in2="SourceGraphic" operator="atop" result="composite"></feComposite><feGaussianBlur in="composite" stdDeviation="15" result="blur"></feGaussianBlur><feOffset dx="0" dy="0" result="offset"></feOffset><feComposite in="SourceGraphic" in2="offset" operator="over"></feComposite></filter><filter id="shadow-14" height="300%" width="300%" x="-100%" y="-100%"><feFlood flood-color="rgba(255, 255, 255, 1)" result="flood"></feFlood><feComposite in="flood" in2="SourceGraphic" operator="atop" result="composite"></feComposite><feGaussianBlur in="composite" stdDeviation="15" result="blur"></feGaussianBlur><feOffset dx="0" dy="0" result="offset"></feOffset><feComposite in="SourceGraphic" in2="offset" operator="over"></feComposite></filter><filter id="shadow-15" height="300%" width="300%" x="-100%" y="-100%"><feFlood flood-color="rgba(255, 255, 255, 1)" result="flood"></feFlood><feComposite in="flood" in2="SourceGraphic" operator="atop" result="composite"></feComposite><feGaussianBlur in="composite" stdDeviation="15" result="blur"></feGaussianBlur><feOffset dx="0" dy="0" result="offset"></feOffset><feComposite in="SourceGraphic" in2="offset" operator="over"></feComposite></filter><filter id="shadow-16" height="300%" width="300%" x="-100%" y="-100%"><feFlood flood-color="rgba(255, 255, 255, 1)" result="flood"></feFlood><feComposite in="flood" in2="SourceGraphic" operator="atop" result="composite"></feComposite><feGaussianBlur in="composite" stdDeviation="15" result="blur"></feGaussianBlur><feOffset dx="0" dy="0" result="offset"></feOffset><feComposite in="SourceGraphic" in2="offset" operator="over"></feComposite></filter></defs><g class="" transform="translate(-1,-2)" style=""><g transform="translate(435.2, 435.2) scale(-0.7, -0.7) rotate(-540, 256, 256) skewX(0) skewY(0)"><path d="M256 32C253.671 32.582 251.316 33.22 248.95 33.887C248.65 70.127 246.48 113.575 230.893 155.416L256 150.852L281.318 155.455C265.52 113.885 263.348 70.277 263.051 33.887C260.71 33.223 258.36 32.594 256 32Z" class="" fill="#9b9b9b" fill-opacity="1"></path><path d="M230.846 39.744C175.566 59.974 116.335 103.529 98.512 179.486L210.006 159.215C227.022 119.882 230.24 77.131 230.846 39.745Z" class="" fill="#9b9b9b" fill-opacity="1"></path><path d="M281.156 39.744C281.771 77.36 285.036 120.322 302.32 159.274L413.488 179.486C395.666 103.53 336.436 59.975 281.156 39.744Z" class="" fill="#9b9b9b" fill-opacity="1"></path><path d="M247 170.785L84.893 200.258C79.975 206.216 77 214.932 77 224C77 232.727 79.773 241.108 84.355 247.049C94.31 247.065 114.832 247.192 138.689 249.027C165.112 251.06 193.342 254.607 212.025 263.949L215.359 265.617L216.539 269.154C225.298 295.431 228.977 339.301 230.99 381.572C232.907 421.83 232.973 458.868 232.977 476.25L256 499.273L279.02 476.253C279.022 451.995 279.079 414.213 281.012 375.551C283.027 335.251 286.797 295.147 295.461 269.154L296.641 265.617L299.975 263.949C318.658 254.608 346.888 251.059 373.311 249.027C397.168 247.192 417.69 247.065 427.645 247.049C432.227 241.109 435 232.727 435 224C435 214.932 432.025 206.216 427.107 200.258L265 170.785L265 288L247 288L247 170.785Z" class="" fill="#9b9b9b" fill-opacity="1"></path><path d="M224 196L232 236C216 236 96 240 96 224C96 208 192 196 224 196Z" class="" fill="#ffffff" fill-opacity="1"></path><path d="M288 196C320 196 416 208 416 224C416 240 296 236 280 236L288 196Z" class="" fill="#ffffff" fill-opacity="1"></path><path d="M84.768 265.018L64 400C114.299 412.575 164.598 425.157 214.896 453.266C214.722 433.997 214.256 408.589 213.01 382.428C211.124 342.829 207.104 301.306 200.514 278.582C186.261 272.749 160.926 268.789 137.311 266.972C115.224 265.274 95.161 265.05 84.768 265.018Z" class="" fill="#9b9b9b" fill-opacity="1"></path><path d="M427.232 265.018C416.839 265.05 396.776 265.274 374.689 266.973C351.059 268.79 325.709 272.753 311.461 278.592C304.807 301.17 300.871 338.801 298.988 376.449C297.622 403.773 297.202 431.039 297.068 453.287C347.38 425.165 397.69 412.577 448 400L427.232 265.018Z" class="" fill="#9b9b9b" fill-opacity="1"></path><path d="M113.766 311.174L193.766 327.174L190.234 344.826L110.234 328.826L113.766 311.174Z" class="" fill="#ffffff" fill-opacity="1"></path><path d="M398.234 311.174L401.766 328.826L321.766 344.826L318.234 327.174L398.234 311.174Z" class="selected" fill="#ffffff" fill-opacity="1"></path><path d="M97.658 357.154L193.658 375.154L190.342 392.846L94.342 374.846L97.658 357.154Z" class="" fill="#c9c9c9" fill-opacity="1" filter="url(#shadow-12)"></path><path d="M414.342 357.154L417.658 374.846L321.658 392.846L318.342 375.154L414.342 357.154Z" class="" fill="#c9c9c9" fill-opacity="1" filter="url(#shadow-13)"></path></g></g></svg>