<svg xmlns="http://www.w3.org/2000/svg" viewBox="0 0 512 512" style="height: 512px; width: 512px;"><defs><filter id="shadow-1" height="300%" width="300%" x="-100%" y="-100%"><feFlood flood-color="rgba(255, 255, 255, 1)" result="flood"></feFlood><feComposite in="flood" in2="SourceGraphic" operator="atop" result="composite"></feComposite><feGaussianBlur in="composite" stdDeviation="15" result="blur"></feGaussianBlur><feOffset dx="0" dy="0" result="offset"></feOffset><feComposite in="SourceGraphic" in2="offset" operator="over"></feComposite></filter><filter id="shadow-2" height="300%" width="300%" x="-100%" y="-100%"><feFlood flood-color="rgba(255, 255, 255, 1)" result="flood"></feFlood><feComposite in="flood" in2="SourceGraphic" operator="atop" result="composite"></feComposite><feGaussianBlur in="composite" stdDeviation="15" result="blur"></feGaussianBlur><feOffset dx="0" dy="0" result="offset"></feOffset><feComposite in="SourceGraphic" in2="offset" operator="over"></feComposite></filter><filter id="shadow-12" height="300%" width="300%" x="-100%" y="-100%"><feFlood flood-color="rgba(255, 255, 255, 1)" result="flood"></feFlood><feComposite in="flood" in2="SourceGraphic" operator="atop" result="composite"></feComposite><feGaussianBlur in="composite" stdDeviation="15" result="blur"></feGaussianBlur><feOffset dx="0" dy="0" result="offset"></feOffset><feComposite in="SourceGraphic" in2="offset" operator="over"></feComposite></filter><filter id="shadow-13" height="300%" width="300%" x="-100%" y="-100%"><feFlood flood-color="rgba(255, 255, 255, 1)" result="flood"></feFlood><feComposite in="flood" in2="SourceGraphic" operator="atop" result="composite"></feComposite><feGaussianBlur in="composite" stdDeviation="15" result="blur"></feGaussianBlur><feOffset dx="0" dy="0" result="offset"></feOffset><feComposite in="SourceGraphic" in2="offset" operator="over"></feComposite></filter><filter id="shadow-14" height="300%" width="300%" x="-100%" y="-100%"><feFlood flood-color="rgba(255, 255, 255, 1)" result="flood"></feFlood><feComposite in="flood" in2="SourceGraphic" operator="atop" result="composite"></feComposite><feGaussianBlur in="composite" stdDeviation="15" result="blur"></feGaussianBlur><feOffset dx="0" dy="0" result="offset"></feOffset><feComposite in="SourceGraphic" in2="offset" operator="over"></feComposite></filter><filter id="shadow-15" height="300%" width="300%" x="-100%" y="-100%"><feFlood flood-color="rgba(255, 255, 255, 1)" result="flood"></feFlood><feComposite in="flood" in2="SourceGraphic" operator="atop" result="composite"></feComposite><feGaussianBlur in="composite" stdDeviation="15" result="blur"></feGaussianBlur><feOffset dx="0" dy="0" result="offset"></feOffset><feComposite in="SourceGraphic" in2="offset" operator="over"></feComposite></filter><filter id="shadow-16" height="300%" width="300%" x="-100%" y="-100%"><feFlood flood-color="rgba(255, 255, 255, 1)" result="flood"></feFlood><feComposite in="flood" in2="SourceGraphic" operator="atop" result="composite"></feComposite><feGaussianBlur in="composite" stdDeviation="15" result="blur"></feGaussianBlur><feOffset dx="0" dy="0" result="offset"></feOffset><feComposite in="SourceGraphic" in2="offset" operator="over"></feComposite></filter></defs><g class="" transform="translate(-2,-3)" style=""><g transform="translate(435.2, 435.2) scale(-0.7, -0.7) rotate(-540, 256, 256) skewX(0) skewY(0)"><path d="M19.656 20.688L19.656 57.125L73.5 110.97C80.015 96.04 91.488 83.74 105.813 76.156L50.25 20.686L19.656 20.688Z" class="" fill="#9b9b9b" fill-opacity="1" filter="url(#shadow-2)"></path><path d="M139.126 86.594C109.814 86.594 86.25 110.127 86.25 139.438C86.196 160.365 98.518 179.345 117.656 187.813C119.536 150.336 150.481 120.331 188.312 119.906C180.578 100.341 161.526 86.594 139.125 86.594Z" class="" fill="#c9c9c9" fill-opacity="1"></path><path d="M352.969 130.844L312.06 145.47L409.092 398.906L416.592 418.531L397 410.97L143.72 313.437L129.375 354.407L492.28 494.312L352.97 130.842Z" class="" fill="#b57204" fill-opacity="1"></path><path d="M189.124 138.564C159.89 138.487 136.172 162.204 136.249 191.438C136.249 215.788 152.531 236.143 174.843 242.344C177.778 207.768 205.453 180.092 240.03 177.156C233.83 154.844 213.477 138.562 189.125 138.562Z" class="" fill="#c9c9c9" fill-opacity="1"></path><path d="M302.624 173.094L278.75 273.688L277.406 279.313L271.781 280.625L171.657 304.155L384.156 386L302.626 173.094Z" class="selected" fill="#8b572a" fill-opacity="1"></path><path d="M246.124 195.564C216.89 195.487 193.172 219.204 193.249 248.438C193.249 259.334 196.529 269.421 202.124 277.813L261.904 263.75L275.937 204.72C267.464 198.936 257.213 195.563 246.124 195.563Z" class="" fill="#c9c9c9" fill-opacity="1"></path></g></g></svg>