<svg xmlns="http://www.w3.org/2000/svg" viewBox="0 0 512 512" style="height: 512px; width: 512px;"><defs><filter id="shadow-1" height="300%" width="300%" x="-100%" y="-100%"><feFlood flood-color="rgba(255, 255, 255, 1)" result="flood"></feFlood><feComposite in="flood" in2="SourceGraphic" operator="atop" result="composite"></feComposite><feGaussianBlur in="composite" stdDeviation="15" result="blur"></feGaussianBlur><feOffset dx="0" dy="0" result="offset"></feOffset><feComposite in="SourceGraphic" in2="offset" operator="over"></feComposite></filter><filter id="shadow-2" height="300%" width="300%" x="-100%" y="-100%"><feFlood flood-color="rgba(255, 255, 255, 1)" result="flood"></feFlood><feComposite in="flood" in2="SourceGraphic" operator="atop" result="composite"></feComposite><feGaussianBlur in="composite" stdDeviation="15" result="blur"></feGaussianBlur><feOffset dx="0" dy="0" result="offset"></feOffset><feComposite in="SourceGraphic" in2="offset" operator="over"></feComposite></filter><filter id="shadow-12" height="300%" width="300%" x="-100%" y="-100%"><feFlood flood-color="rgba(255, 255, 255, 1)" result="flood"></feFlood><feComposite in="flood" in2="SourceGraphic" operator="atop" result="composite"></feComposite><feGaussianBlur in="composite" stdDeviation="15" result="blur"></feGaussianBlur><feOffset dx="0" dy="0" result="offset"></feOffset><feComposite in="SourceGraphic" in2="offset" operator="over"></feComposite></filter><filter id="shadow-13" height="300%" width="300%" x="-100%" y="-100%"><feFlood flood-color="rgba(255, 255, 255, 1)" result="flood"></feFlood><feComposite in="flood" in2="SourceGraphic" operator="atop" result="composite"></feComposite><feGaussianBlur in="composite" stdDeviation="15" result="blur"></feGaussianBlur><feOffset dx="0" dy="0" result="offset"></feOffset><feComposite in="SourceGraphic" in2="offset" operator="over"></feComposite></filter><filter id="shadow-14" height="300%" width="300%" x="-100%" y="-100%"><feFlood flood-color="rgba(255, 255, 255, 1)" result="flood"></feFlood><feComposite in="flood" in2="SourceGraphic" operator="atop" result="composite"></feComposite><feGaussianBlur in="composite" stdDeviation="15" result="blur"></feGaussianBlur><feOffset dx="0" dy="0" result="offset"></feOffset><feComposite in="SourceGraphic" in2="offset" operator="over"></feComposite></filter><filter id="shadow-15" height="300%" width="300%" x="-100%" y="-100%"><feFlood flood-color="rgba(255, 255, 255, 1)" result="flood"></feFlood><feComposite in="flood" in2="SourceGraphic" operator="atop" result="composite"></feComposite><feGaussianBlur in="composite" stdDeviation="15" result="blur"></feGaussianBlur><feOffset dx="0" dy="0" result="offset"></feOffset><feComposite in="SourceGraphic" in2="offset" operator="over"></feComposite></filter><filter id="shadow-16" height="300%" width="300%" x="-100%" y="-100%"><feFlood flood-color="rgba(255, 255, 255, 1)" result="flood"></feFlood><feComposite in="flood" in2="SourceGraphic" operator="atop" result="composite"></feComposite><feGaussianBlur in="composite" stdDeviation="15" result="blur"></feGaussianBlur><feOffset dx="0" dy="0" result="offset"></feOffset><feComposite in="SourceGraphic" in2="offset" operator="over"></feComposite></filter></defs><g class="" transform="translate(-2,-3)" style=""><g transform="translate(435.2, 435.2) scale(-0.7, -0.7) rotate(-540, 256, 256) skewX(0) skewY(0)"><path d="M118.486 25L92.486 103L121.514 103L147.514 25Z" class="" fill="#f5a623" fill-opacity="1" filter="url(#shadow-2)"></path><path d="M256 25C245.074 25 230.83 29.748 219.86 37.404C208.89 45.06 201.652 55.136 200.977 64.639C200.177 75.889 207.037 89.94 218.182 100.855C229.327 111.771 244.286 119 256 119C267.714 119 282.673 111.77 293.818 100.855C304.963 89.94 311.823 75.889 311.023 64.639C310.348 55.136 303.111 45.06 292.141 37.404C281.17 29.748 266.926 25 256 25Z" class="selected" fill="#9b9b9b" fill-opacity="1"></path><path d="M364.486 25L390.486 103L419.514 103L393.514 25Z" class="" fill="#f5a623" fill-opacity="1"></path><path d="M48 41C48.5 41 46.276 41.573 43.312 45.326C40.349 49.08 37.068 55.02 34.272 61.545C30.623 70.057 27.924 79.729 26.395 87L78.848 87L94.182 41Z" class="" fill="#f5a623" fill-opacity="1"></path><path d="M161.152 41L145.82 87L187.059 87C183.997 79.475 182.445 71.502 183.023 63.361C183.608 55.13 186.578 47.643 191.033 41Z" class="" fill="#9b9b9b" fill-opacity="1"></path><path d="M320.967 41C325.422 47.643 328.392 55.13 328.977 63.361C329.555 71.502 328.003 79.475 324.941 87L366.18 87L350.848 41Z" class="" fill="#9b9b9b" fill-opacity="1"></path><path d="M417.82 41L433.152 87L485.605 87C484.075 79.729 481.377 70.057 477.729 61.545C474.932 55.02 471.651 49.08 468.688 45.326C465.724 41.573 463.5 41 464 41Z" class="" fill="#f5a623" fill-opacity="1"></path><path d="M46.465 105C25.239 204.294 25.03 361.524 25.033 487L184.916 487C188.282 473.414 191.555 459.806 194.736 446.176C179.151 448.73 163.123 452.23 146.311 456.697L135 459.703L135 448C135 330.423 121.314 212.811 94.365 121L67.514 121L72.848 105Z" class="" fill="#f5a623" fill-opacity="1"></path><path d="M139.82 105L134.486 121L113.056 121C138.9 211.393 151.996 323.608 152.822 436.66C225.206 418.945 286.812 419.055 359.176 436.674C360 323.617 373.099 211.396 398.943 121L377.513 121L372.18 105L314.252 105C311.825 108.068 309.207 110.978 306.412 113.715C292.565 127.276 274.456 137 256 137C237.544 137 219.435 127.276 205.588 113.715C202.793 110.978 200.175 108.068 197.748 105Z" class="" fill="#9b9b9b" fill-opacity="1"></path><path d="M439.152 105L444.486 121L417.635 121C390.686 212.811 377 330.423 377 448L377 459.684L365.703 456.701C348.889 452.262 332.859 448.771 317.273 446.217C320.513 460.097 323.793 473.721 327.084 487L486.967 487C486.97 361.524 486.761 204.294 465.535 105Z" class="" fill="#f5a623" fill-opacity="1"></path></g></g></svg>