<svg xmlns="http://www.w3.org/2000/svg" viewBox="0 0 512 512" style="height: 512px; width: 512px;"><defs><filter id="shadow-1" height="300%" width="300%" x="-100%" y="-100%"><feFlood flood-color="rgba(255, 255, 255, 1)" result="flood"></feFlood><feComposite in="flood" in2="SourceGraphic" operator="atop" result="composite"></feComposite><feGaussianBlur in="composite" stdDeviation="15" result="blur"></feGaussianBlur><feOffset dx="0" dy="0" result="offset"></feOffset><feComposite in="SourceGraphic" in2="offset" operator="over"></feComposite></filter><filter id="shadow-2" height="300%" width="300%" x="-100%" y="-100%"><feFlood flood-color="rgba(255, 255, 255, 1)" result="flood"></feFlood><feComposite in="flood" in2="SourceGraphic" operator="atop" result="composite"></feComposite><feGaussianBlur in="composite" stdDeviation="15" result="blur"></feGaussianBlur><feOffset dx="0" dy="0" result="offset"></feOffset><feComposite in="SourceGraphic" in2="offset" operator="over"></feComposite></filter><filter id="shadow-12" height="300%" width="300%" x="-100%" y="-100%"><feFlood flood-color="rgba(255, 255, 255, 1)" result="flood"></feFlood><feComposite in="flood" in2="SourceGraphic" operator="atop" result="composite"></feComposite><feGaussianBlur in="composite" stdDeviation="15" result="blur"></feGaussianBlur><feOffset dx="0" dy="0" result="offset"></feOffset><feComposite in="SourceGraphic" in2="offset" operator="over"></feComposite></filter><filter id="shadow-13" height="300%" width="300%" x="-100%" y="-100%"><feFlood flood-color="rgba(255, 255, 255, 1)" result="flood"></feFlood><feComposite in="flood" in2="SourceGraphic" operator="atop" result="composite"></feComposite><feGaussianBlur in="composite" stdDeviation="15" result="blur"></feGaussianBlur><feOffset dx="0" dy="0" result="offset"></feOffset><feComposite in="SourceGraphic" in2="offset" operator="over"></feComposite></filter><filter id="shadow-14" height="300%" width="300%" x="-100%" y="-100%"><feFlood flood-color="rgba(255, 255, 255, 1)" result="flood"></feFlood><feComposite in="flood" in2="SourceGraphic" operator="atop" result="composite"></feComposite><feGaussianBlur in="composite" stdDeviation="15" result="blur"></feGaussianBlur><feOffset dx="0" dy="0" result="offset"></feOffset><feComposite in="SourceGraphic" in2="offset" operator="over"></feComposite></filter><filter id="shadow-15" height="300%" width="300%" x="-100%" y="-100%"><feFlood flood-color="rgba(255, 255, 255, 1)" result="flood"></feFlood><feComposite in="flood" in2="SourceGraphic" operator="atop" result="composite"></feComposite><feGaussianBlur in="composite" stdDeviation="15" result="blur"></feGaussianBlur><feOffset dx="0" dy="0" result="offset"></feOffset><feComposite in="SourceGraphic" in2="offset" operator="over"></feComposite></filter><filter id="shadow-16" height="300%" width="300%" x="-100%" y="-100%"><feFlood flood-color="rgba(255, 255, 255, 1)" result="flood"></feFlood><feComposite in="flood" in2="SourceGraphic" operator="atop" result="composite"></feComposite><feGaussianBlur in="composite" stdDeviation="15" result="blur"></feGaussianBlur><feOffset dx="0" dy="0" result="offset"></feOffset><feComposite in="SourceGraphic" in2="offset" operator="over"></feComposite></filter><filter id="shadow-17" height="300%" width="300%" x="-100%" y="-100%"><feFlood flood-color="rgba(255, 255, 255, 1)" result="flood"></feFlood><feComposite in="flood" in2="SourceGraphic" operator="atop" result="composite"></feComposite><feGaussianBlur in="composite" stdDeviation="15" result="blur"></feGaussianBlur><feOffset dx="0" dy="0" result="offset"></feOffset><feComposite in="SourceGraphic" in2="offset" operator="over"></feComposite></filter></defs><g class="" transform="translate(0,-2)" style=""><g transform="translate(435.2, 435.2) scale(-0.7, -0.7) rotate(-540, 256, 256) skewX(0) skewY(0)"><path d="M18.506 19.895L18.506 57.455L135.11 174.06L168.865 140.303L48.97 19.895L18.507 19.895Z" class="selected" fill="#4a4a4a" fill-opacity="1" filter="url(#shadow-2)"></path><path d="M315.43 101.502C307.032 119.197 297.85 136.016 287.875 151.982C340.927 207.582 396.969 317.137 433.477 422.809L439.809 441.136L421.529 434.669C316.842 397.635 200.909 343.405 147.155 292.702C131.183 302.682 114.362 311.867 96.665 320.265C150.358 355.95 218.235 389.487 286.161 415.431C271.724 422.619 256.223 429.021 239.581 434.701L239.583 434.704C307.847 473.334 415.153 500.174 493.995 498.831C495.325 420.779 466.915 309.881 429.868 244.415C424.108 261.285 417.611 276.985 410.308 291.581C383.85 222.376 349.921 153.399 315.428 101.501Z" class="" fill="#aa7e39" fill-opacity="1"></path><path d="M197.572 138.025L135.79 199.81C169.997 231.43 203.565 256.573 230.588 271.408C245.042 279.343 257.682 284.358 266.922 286.17C276.162 287.982 280.7 286.51 282.486 284.725C284.272 282.939 285.746 278.399 283.934 269.16C282.122 259.92 277.104 247.28 269.17 232.826C254.335 205.803 229.194 172.236 197.572 138.026Z" class="" fill="#4a4a4a" fill-opacity="1"></path><path d="M277.334 168.105C272.674 174.915 267.854 181.555 262.877 188.031C271.769 200.588 279.397 212.618 285.553 223.833C294.068 239.343 299.859 253.263 302.271 265.563C304.685 277.863 303.799 289.843 295.701 297.94C287.605 306.036 275.625 306.922 263.325 304.51C251.025 302.097 237.105 296.304 221.595 287.79C210.495 281.696 198.595 274.158 186.181 265.385C178.734 271.212 171.105 276.801 163.304 282.145C210.567 324.355 312.968 374.462 408.849 410.018C373.659 314.252 322.502 217.416 277.335 168.105Z" class="" fill="#4a4a4a" fill-opacity="1"></path></g></g></svg>