<svg xmlns="http://www.w3.org/2000/svg" viewBox="0 0 512 512" style="height: 512px; width: 512px;"><defs><filter id="shadow-1" height="300%" width="300%" x="-100%" y="-100%"><feFlood flood-color="rgba(255, 255, 255, 1)" result="flood"></feFlood><feComposite in="flood" in2="SourceGraphic" operator="atop" result="composite"></feComposite><feGaussianBlur in="composite" stdDeviation="15" result="blur"></feGaussianBlur><feOffset dx="0" dy="0" result="offset"></feOffset><feComposite in="SourceGraphic" in2="offset" operator="over"></feComposite></filter><filter id="shadow-2" height="300%" width="300%" x="-100%" y="-100%"><feFlood flood-color="rgba(255, 255, 255, 1)" result="flood"></feFlood><feComposite in="flood" in2="SourceGraphic" operator="atop" result="composite"></feComposite><feGaussianBlur in="composite" stdDeviation="15" result="blur"></feGaussianBlur><feOffset dx="0" dy="0" result="offset"></feOffset><feComposite in="SourceGraphic" in2="offset" operator="over"></feComposite></filter><filter id="shadow-12" height="300%" width="300%" x="-100%" y="-100%"><feFlood flood-color="rgba(255, 255, 255, 1)" result="flood"></feFlood><feComposite in="flood" in2="SourceGraphic" operator="atop" result="composite"></feComposite><feGaussianBlur in="composite" stdDeviation="15" result="blur"></feGaussianBlur><feOffset dx="0" dy="0" result="offset"></feOffset><feComposite in="SourceGraphic" in2="offset" operator="over"></feComposite></filter><filter id="shadow-13" height="300%" width="300%" x="-100%" y="-100%"><feFlood flood-color="rgba(255, 255, 255, 1)" result="flood"></feFlood><feComposite in="flood" in2="SourceGraphic" operator="atop" result="composite"></feComposite><feGaussianBlur in="composite" stdDeviation="15" result="blur"></feGaussianBlur><feOffset dx="0" dy="0" result="offset"></feOffset><feComposite in="SourceGraphic" in2="offset" operator="over"></feComposite></filter><filter id="shadow-14" height="300%" width="300%" x="-100%" y="-100%"><feFlood flood-color="rgba(255, 255, 255, 1)" result="flood"></feFlood><feComposite in="flood" in2="SourceGraphic" operator="atop" result="composite"></feComposite><feGaussianBlur in="composite" stdDeviation="15" result="blur"></feGaussianBlur><feOffset dx="0" dy="0" result="offset"></feOffset><feComposite in="SourceGraphic" in2="offset" operator="over"></feComposite></filter><filter id="shadow-15" height="300%" width="300%" x="-100%" y="-100%"><feFlood flood-color="rgba(255, 255, 255, 1)" result="flood"></feFlood><feComposite in="flood" in2="SourceGraphic" operator="atop" result="composite"></feComposite><feGaussianBlur in="composite" stdDeviation="15" result="blur"></feGaussianBlur><feOffset dx="0" dy="0" result="offset"></feOffset><feComposite in="SourceGraphic" in2="offset" operator="over"></feComposite></filter><filter id="shadow-16" height="300%" width="300%" x="-100%" y="-100%"><feFlood flood-color="rgba(255, 255, 255, 1)" result="flood"></feFlood><feComposite in="flood" in2="SourceGraphic" operator="atop" result="composite"></feComposite><feGaussianBlur in="composite" stdDeviation="15" result="blur"></feGaussianBlur><feOffset dx="0" dy="0" result="offset"></feOffset><feComposite in="SourceGraphic" in2="offset" operator="over"></feComposite></filter></defs><g class="" transform="translate(-2,-3)" style=""><g transform="translate(435.2, 435.2) scale(-0.7, -0.7) rotate(-540, 256, 256) skewX(0) skewY(0)"><path d="M158.094 75.156C137.452 88.81 112.071 97.659 88.656 101.186C95.448 150.121 114.796 185.319 134.626 199.031C145.149 206.311 154.983 208.043 165.031 204.595C173.961 201.531 183.661 193.625 192.781 179.001C165.848 148.774 161.175 107.951 158.095 75.157Z" class="" fill="#9b9b9b" fill-opacity="1" filter="url(#shadow-2)"></path><path d="M355 75.25C351.92 108.04 347.213 148.83 320.28 179.03C329.397 193.64 339.137 201.53 348.063 204.594C358.11 208.042 367.913 206.309 378.438 199.031C398.238 185.338 417.558 150.209 424.375 101.376C399.88 98.206 376.573 90.026 355 75.251Z" class="" fill="#9b9b9b" fill-opacity="1"></path><path d="M256.5 88.22C225.3 88.22 197.748 95.21 181.03 105.875C182.018 111.338 183.18 116.787 184.594 122.125C200.732 115.183 226.928 110.655 256.531 110.655C286.135 110.655 312.331 115.183 328.471 122.125C329.883 116.787 331.046 111.338 332.031 105.875C315.31 95.203 287.716 88.22 256.5 88.22Z" class="" fill="#9b9b9b" fill-opacity="1"></path><path d="M75.406 132.374L27.686 177.844C57.436 215.028 90.726 234.67 114.156 236.562C115.301 236.654 116.409 236.697 117.5 236.718C119.283 229.163 121.453 221.705 124 214.373C102.276 199.35 84.986 170.637 75.406 132.373Z" class="" fill="#9b9b9b" fill-opacity="1"></path><path d="M437.656 132.374C428.066 170.634 410.786 199.352 389.062 214.374C389.032 214.396 389 214.414 388.969 214.437C391.522 221.748 393.702 229.184 395.499 236.717C396.609 236.697 397.739 236.657 398.905 236.562C422.339 234.67 455.655 215.037 485.405 177.842L437.655 132.374Z" class="" fill="#9b9b9b" fill-opacity="1"></path><path d="M192.656 144.844C197.196 154.544 203.106 163.448 210.906 170.999L216.031 175.969L212.595 182.187C210.857 185.365 208.991 188.472 207.001 191.499C239.593 203.464 274.863 202.635 305.939 191.311C303.995 188.343 302.17 185.299 300.469 182.186L297.063 175.968L302.157 170.998C309.687 163.708 315.465 155.152 319.937 145.842C276.31 156.376 234.537 154.345 192.657 144.842Z" class="" fill="#c9c9c9" fill-opacity="1"></path><path d="M318.156 206.654C279.753 222.334 235.126 223.474 194.75 206.811C187.45 214.181 179.532 219.385 171.094 222.281C161.172 225.685 150.854 225.593 141.031 222.655C134.124 243.247 130.251 265.252 130.251 287.061C130.251 294.375 130.813 301.886 131.907 309.531L254.313 279.624L256.533 279.061L258.751 279.624L381.501 309.594C382.387 301.947 382.845 294.421 382.845 287.061C382.845 265.271 378.955 243.269 372.001 222.686C362.189 225.614 351.879 225.681 341.971 222.28C333.471 219.365 325.499 214.108 318.157 206.656Z" class="" fill="#9b9b9b" fill-opacity="1"></path><path d="M476.626 215.218C451.222 239.386 424.558 253.236 400.406 255.186C399.979 255.22 399.551 255.222 399.126 255.248C400.348 263.334 401.109 271.482 401.406 279.654C424.212 283.434 456.129 279.752 491.406 265.31L476.626 215.217Z" class="" fill="#9b9b9b" fill-opacity="1"></path><path d="M36.438 215.248L21.688 265.311C56.956 279.744 88.858 283.431 111.656 279.654C111.946 271.474 112.732 263.324 113.936 255.248C113.511 255.222 113.084 255.22 112.656 255.185C88.51 253.235 61.836 239.408 36.436 215.248Z" class="" fill="#c9c9c9" fill-opacity="1"></path><path d="M256.531 298.311L135.471 327.904C137.443 336.032 139.981 344.254 142.971 352.529C176.507 344.795 214.201 341.023 251.471 340.749C254.255 340.729 257.035 340.731 259.814 340.749C300.071 341.013 339.424 345.325 372.094 352.999C374.716 344.656 376.894 336.349 378.564 328.124L256.53 298.312Z" class="selected" fill="#9b9b9b" fill-opacity="1"></path><path d="M251.626 359.717C216.536 359.957 181.126 363.273 150.001 370.122C153.587 378.286 157.619 386.448 162.031 394.56C190.396 392.105 221.086 390.883 251.501 390.778C254.264 390.77 257.026 390.771 259.781 390.778C293.323 390.885 326.227 392.338 355.001 394.936C358.976 387.044 362.584 378.973 365.814 370.748C333.164 363.356 292.629 359.436 251.626 359.718Z" class="" fill="#c9c9c9" fill-opacity="1" filter="url(#shadow-12)"></path><path d="M251.563 409.527C224.721 409.617 197.699 410.563 172.438 412.467C178.018 421.443 183.961 430.19 190.251 438.684C195.083 439.786 204.069 441.016 215.595 441.716C228.795 442.516 244.657 442.853 260.407 442.776C276.157 442.702 291.817 442.211 304.627 441.371C315.55 440.655 323.861 439.523 328.095 438.651C334.208 430.337 339.902 421.723 345.157 412.841C316.665 410.574 284.252 409.419 251.563 409.527Z" class="" fill="#c9c9c9" fill-opacity="1" filter="url(#shadow-13)"></path></g></g></svg>