<svg xmlns="http://www.w3.org/2000/svg" viewBox="0 0 512 512" style="height: 512px; width: 512px;"><defs><filter id="shadow-1" height="300%" width="300%" x="-100%" y="-100%"><feFlood flood-color="rgba(255, 255, 255, 1)" result="flood"></feFlood><feComposite in="flood" in2="SourceGraphic" operator="atop" result="composite"></feComposite><feGaussianBlur in="composite" stdDeviation="15" result="blur"></feGaussianBlur><feOffset dx="0" dy="0" result="offset"></feOffset><feComposite in="SourceGraphic" in2="offset" operator="over"></feComposite></filter><filter id="shadow-12" height="300%" width="300%" x="-100%" y="-100%"><feFlood flood-color="rgba(255, 255, 255, 1)" result="flood"></feFlood><feComposite in="flood" in2="SourceGraphic" operator="atop" result="composite"></feComposite><feGaussianBlur in="composite" stdDeviation="15" result="blur"></feGaussianBlur><feOffset dx="0" dy="0" result="offset"></feOffset><feComposite in="SourceGraphic" in2="offset" operator="over"></feComposite></filter><filter id="shadow-13" height="300%" width="300%" x="-100%" y="-100%"><feFlood flood-color="rgba(255, 255, 255, 1)" result="flood"></feFlood><feComposite in="flood" in2="SourceGraphic" operator="atop" result="composite"></feComposite><feGaussianBlur in="composite" stdDeviation="15" result="blur"></feGaussianBlur><feOffset dx="0" dy="0" result="offset"></feOffset><feComposite in="SourceGraphic" in2="offset" operator="over"></feComposite></filter></defs><g class="" transform="translate(-1,0)" style=""><g transform="translate(435.2, 435.2) scale(-0.7, -0.7) rotate(-540, 256, 256) skewX(0) skewY(0)"><path d="M45.063 17.406L45.063 117.344L108.719 177.656L111.655 180.436L111.655 365.686C145.615 409.076 194.227 449.446 260.561 488.313C328.384 448.529 377.354 406.37 411.249 362.219L411.249 180.436L414.155 177.656L477.811 117.374L477.811 17.404L418.843 17.404L418.843 85.157L352.843 85.157L352.843 17.407L293.873 17.407L293.873 85.157L228.47 85.157L228.47 17.407L169.47 17.407L169.47 85.157L104.06 85.157L104.06 17.407L45.06 17.407Z" class="selected" fill="#b57204" fill-opacity="1"></path><path d="M101.719 117.876L261.749 117.876L261.749 270.626L148.437 270.626L148.437 161.656L101.719 117.876Z" class="" fill="#c9c9c9" fill-opacity="1"></path><path d="M262.312 271.81L374.468 271.81L374.468 345.623C349.516 378.723 312.598 410.337 262.31 439.653L262.31 271.814Z" class="" fill="#c9c9c9" fill-opacity="1"></path></g></g></svg>