<svg xmlns="http://www.w3.org/2000/svg" viewBox="0 0 512 512" style="height: 512px; width: 512px;"><defs><filter id="shadow-1" height="300%" width="300%" x="-100%" y="-100%"><feFlood flood-color="rgba(255, 255, 255, 1)" result="flood"></feFlood><feComposite in="flood" in2="SourceGraphic" operator="atop" result="composite"></feComposite><feGaussianBlur in="composite" stdDeviation="15" result="blur"></feGaussianBlur><feOffset dx="0" dy="0" result="offset"></feOffset><feComposite in="SourceGraphic" in2="offset" operator="over"></feComposite></filter><filter id="shadow-2" height="300%" width="300%" x="-100%" y="-100%"><feFlood flood-color="rgba(255, 255, 255, 1)" result="flood"></feFlood><feComposite in="flood" in2="SourceGraphic" operator="atop" result="composite"></feComposite><feGaussianBlur in="composite" stdDeviation="15" result="blur"></feGaussianBlur><feOffset dx="0" dy="0" result="offset"></feOffset><feComposite in="SourceGraphic" in2="offset" operator="over"></feComposite></filter><filter id="shadow-12" height="300%" width="300%" x="-100%" y="-100%"><feFlood flood-color="rgba(255, 255, 255, 1)" result="flood"></feFlood><feComposite in="flood" in2="SourceGraphic" operator="atop" result="composite"></feComposite><feGaussianBlur in="composite" stdDeviation="15" result="blur"></feGaussianBlur><feOffset dx="0" dy="0" result="offset"></feOffset><feComposite in="SourceGraphic" in2="offset" operator="over"></feComposite></filter><filter id="shadow-13" height="300%" width="300%" x="-100%" y="-100%"><feFlood flood-color="rgba(255, 255, 255, 1)" result="flood"></feFlood><feComposite in="flood" in2="SourceGraphic" operator="atop" result="composite"></feComposite><feGaussianBlur in="composite" stdDeviation="15" result="blur"></feGaussianBlur><feOffset dx="0" dy="0" result="offset"></feOffset><feComposite in="SourceGraphic" in2="offset" operator="over"></feComposite></filter><filter id="shadow-14" height="300%" width="300%" x="-100%" y="-100%"><feFlood flood-color="rgba(255, 255, 255, 1)" result="flood"></feFlood><feComposite in="flood" in2="SourceGraphic" operator="atop" result="composite"></feComposite><feGaussianBlur in="composite" stdDeviation="15" result="blur"></feGaussianBlur><feOffset dx="0" dy="0" result="offset"></feOffset><feComposite in="SourceGraphic" in2="offset" operator="over"></feComposite></filter><filter id="shadow-15" height="300%" width="300%" x="-100%" y="-100%"><feFlood flood-color="rgba(255, 255, 255, 1)" result="flood"></feFlood><feComposite in="flood" in2="SourceGraphic" operator="atop" result="composite"></feComposite><feGaussianBlur in="composite" stdDeviation="15" result="blur"></feGaussianBlur><feOffset dx="0" dy="0" result="offset"></feOffset><feComposite in="SourceGraphic" in2="offset" operator="over"></feComposite></filter><filter id="shadow-16" height="300%" width="300%" x="-100%" y="-100%"><feFlood flood-color="rgba(255, 255, 255, 1)" result="flood"></feFlood><feComposite in="flood" in2="SourceGraphic" operator="atop" result="composite"></feComposite><feGaussianBlur in="composite" stdDeviation="15" result="blur"></feGaussianBlur><feOffset dx="0" dy="0" result="offset"></feOffset><feComposite in="SourceGraphic" in2="offset" operator="over"></feComposite></filter></defs><g class="" transform="translate(-2,-3)" style=""><g transform="translate(435.2, 435.2) scale(-0.7, -0.7) rotate(-540, 256, 256) skewX(0) skewY(0)"><path d="M494.25 21.125L329.72 22.375C314.257 50.359 295.807 75.045 275.557 98.175C281.569 99.672 287.63 101.17 293.584 102.672L307.274 106.125L298.746 117.379C248.331 183.882 254.114 259.466 271.386 331.073L253.216 335.456C236.378 265.639 229.688 187.264 275.856 117.516C187.786 95.619 92.236 74.082 22.482 28.136C20.712 33.026 21.472 38.323 24.744 45.366C27.171 50.588 31.26 56.409 36.884 62.483C90.046 100.421 167.342 128.429 226.662 137.651L223.792 156.118C161.942 146.502 84.15 118.721 27.756 78.891C28.366 84.844 30.366 91.284 34.143 98.251C41.061 111.009 53.418 124.741 69.843 137.158C70.683 137.793 71.54 138.423 72.4 139.051C114.955 161.728 166.096 177.965 213.137 181.215L211.85 199.859C150.703 195.637 85.52 171.639 36.178 139.114C37.208 144.036 39.431 149.511 43.063 155.494C50.43 167.634 63.141 180.978 79.293 193.169C118.557 211.007 160.897 226.107 207.913 229.642L206.513 248.278C150.41 244.06 101.38 224.536 57.41 203.57C61.11 223.193 74.695 237.97 96.336 250.375C123.154 265.748 161.596 275.799 202.158 281.703L209.615 282.789L210.135 290.306C211.209 305.816 214.703 313.138 219.877 321.978L203.747 331.416C198.817 322.99 194.461 312.966 192.455 298.98C160.151 293.893 129.053 286.364 103.09 274.715C96.557 282.564 90.223 290.578 84.096 298.748C100.611 322.506 114.696 341.784 136.876 364.528L163.971 355.061L173.314 351.811L176.032 361.341C191.098 414.393 235.596 454.905 289.627 475.154C337.632 493.144 392.63 494.787 439.69 475.748C371.017 438.17 325.073 352.04 303.908 275.873L302.783 271.717L305.159 268.153C348.53 203.283 425.85 148.88 494.25 123.97L494.25 21.124Z" class="selected" fill="#f5a623" fill-opacity="1" filter="url(#shadow-2)"></path></g></g></svg>