<svg xmlns="http://www.w3.org/2000/svg" viewBox="0 0 512 512" style="height: 512px; width: 512px;"><defs><filter id="shadow-1" height="300%" width="300%" x="-100%" y="-100%"><feFlood flood-color="rgba(255, 255, 255, 1)" result="flood"></feFlood><feComposite in="flood" in2="SourceGraphic" operator="atop" result="composite"></feComposite><feGaussianBlur in="composite" stdDeviation="15" result="blur"></feGaussianBlur><feOffset dx="0" dy="0" result="offset"></feOffset><feComposite in="SourceGraphic" in2="offset" operator="over"></feComposite></filter><filter id="shadow-12" height="300%" width="300%" x="-100%" y="-100%"><feFlood flood-color="rgba(255, 255, 255, 1)" result="flood"></feFlood><feComposite in="flood" in2="SourceGraphic" operator="atop" result="composite"></feComposite><feGaussianBlur in="composite" stdDeviation="15" result="blur"></feGaussianBlur><feOffset dx="0" dy="0" result="offset"></feOffset><feComposite in="SourceGraphic" in2="offset" operator="over"></feComposite></filter><filter id="shadow-13" height="300%" width="300%" x="-100%" y="-100%"><feFlood flood-color="rgba(255, 255, 255, 1)" result="flood"></feFlood><feComposite in="flood" in2="SourceGraphic" operator="atop" result="composite"></feComposite><feGaussianBlur in="composite" stdDeviation="15" result="blur"></feGaussianBlur><feOffset dx="0" dy="0" result="offset"></feOffset><feComposite in="SourceGraphic" in2="offset" operator="over"></feComposite></filter><filter id="shadow-14" height="300%" width="300%" x="-100%" y="-100%"><feFlood flood-color="rgba(255, 255, 255, 1)" result="flood"></feFlood><feComposite in="flood" in2="SourceGraphic" operator="atop" result="composite"></feComposite><feGaussianBlur in="composite" stdDeviation="15" result="blur"></feGaussianBlur><feOffset dx="0" dy="0" result="offset"></feOffset><feComposite in="SourceGraphic" in2="offset" operator="over"></feComposite></filter><filter id="shadow-15" height="300%" width="300%" x="-100%" y="-100%"><feFlood flood-color="rgba(255, 255, 255, 1)" result="flood"></feFlood><feComposite in="flood" in2="SourceGraphic" operator="atop" result="composite"></feComposite><feGaussianBlur in="composite" stdDeviation="15" result="blur"></feGaussianBlur><feOffset dx="0" dy="0" result="offset"></feOffset><feComposite in="SourceGraphic" in2="offset" operator="over"></feComposite></filter><filter id="shadow-16" height="300%" width="300%" x="-100%" y="-100%"><feFlood flood-color="rgba(255, 255, 255, 1)" result="flood"></feFlood><feComposite in="flood" in2="SourceGraphic" operator="atop" result="composite"></feComposite><feGaussianBlur in="composite" stdDeviation="15" result="blur"></feGaussianBlur><feOffset dx="0" dy="0" result="offset"></feOffset><feComposite in="SourceGraphic" in2="offset" operator="over"></feComposite></filter></defs><g class="" transform="translate(-1,-2)" style=""><g transform="translate(435.2, 435.2) scale(-0.7, -0.7) rotate(-540, 256, 256) skewX(0) skewY(0)"><path d="M107.3 26C103.154 26 98.7 48.976 94.086 68.934L126.273 169.904L87.221 100.178C84.289 114.52 81.807 128.798 80.219 142.949L123.395 201.195L78.557 164.371C78.122 175.451 78.407 186.427 79.635 197.268L125.15 233.865L84.26 220.58C86.818 229.605 90.2 238.657 94.072 247.629L134.891 274.572L104.826 270.26C118.656 297.214 134.649 322.478 143.523 342.766C146.088 347.896 151.546 359.52 154.449 370.934C158.339 386.629 149.92 406.873 133.178 409.256C145.463 394.965 146.423 385.749 144.198 376.721C130.956 376.529 125.086 392.637 125.086 392.637C125.086 392.637 112.559 416.11 140.803 452.006C169.047 487.901 207.979 485.98 207.979 485.98C207.979 485.98 205.736 430.936 206.943 406.02C208.163 380.855 215.297 336.262 215.297 336.262C215.297 336.262 195.299 336.355 172.854 320.462C144.687 300.52 155.344 287.841 148.191 269.385C133.774 232.184 143.511 174.242 143.511 174.242C143.511 174.242 132.653 131.652 125.661 101.42C119.864 76.366 110.398 26 107.3 26Z" class="" fill="#f5a623" fill-opacity="1"></path><path d="M404.7 26C401.601 26 392.135 76.366 386.34 101.42C379.347 131.652 368.488 174.242 368.488 174.242C368.488 174.242 378.226 232.184 363.808 269.385C356.656 287.841 367.313 300.52 339.146 320.463C316.701 336.355 296.703 336.263 296.703 336.263C296.703 336.263 303.837 380.855 305.057 406.02C306.264 430.936 304.021 485.982 304.021 485.982C304.021 485.982 342.953 487.902 371.197 452.006C399.441 416.11 386.914 392.636 386.914 392.636C386.914 392.636 381.044 376.529 367.803 376.721C365.577 385.749 366.537 394.967 378.823 409.258C362.08 406.875 353.661 386.629 357.551 370.934C360.454 359.52 365.912 347.897 368.477 342.766C377.351 322.478 393.345 297.214 407.176 270.26L377.109 274.572L417.928 247.629C421.8 238.657 425.182 229.605 427.74 220.58L386.85 233.865L432.365 197.268C433.593 186.428 433.878 175.451 433.443 164.371L388.605 201.195L431.781 142.949C430.193 128.799 427.711 114.52 424.779 100.178L385.727 169.904L417.914 68.936C413.3 48.978 408.846 26 404.7 26Z" class="" fill="#f5a623" fill-opacity="1"></path><path d="M255.998 26.463C236.61 26.463 191.898 71.865 167.654 102.191C160.637 110.97 151.859 132.014 151.859 132.014L161.053 169.303C161.053 169.303 159.899 177.755 158.449 199.793C157.358 216.384 157.395 232.596 157.395 232.596L210.072 215.703C214.075 193.158 221.578 163.616 230.318 138.493C237.325 118.352 255.998 79.918 255.998 79.918C255.998 79.918 275.198 116.573 282.07 136.025C291.185 161.826 297.877 193.507 301.926 215.703L354.604 232.596C354.604 232.596 354.64 216.384 353.549 199.793C352.099 177.755 350.945 169.303 350.945 169.303L360.139 132.013C360.139 132.013 354.049 112.642 348.104 104.664C324.008 72.33 275.386 26.463 255.998 26.463Z" class="" fill="#f5a623" fill-opacity="1"></path><path d="M256 103.553C256 103.553 245.281 131.733 240.63 154.25C236.331 175.068 228.732 220.885 228.732 220.885C228.732 220.885 240.715 232.813 234.414 239.141C228.113 245.469 217.371 233.436 217.371 233.436L160.936 250.564L164.273 263.781L217.371 283.635C217.371 283.635 228.027 271.517 234.414 277.932C240.802 284.346 228.732 301.891 228.732 301.891C228.732 301.891 232.611 317.951 234.727 325.936C238.177 338.958 245.654 364.844 245.654 364.844L255.998 367.711L266.344 364.844C266.344 364.844 273.144 340.641 276.391 328.498C278.757 319.648 283.266 301.891 283.266 301.891C283.266 301.891 271.196 284.346 277.584 277.931C283.972 271.517 294.627 283.635 294.627 283.635L347.725 263.781L351.062 250.564L294.627 233.436C294.627 233.436 283.885 245.469 277.584 239.141C271.283 232.813 283.266 220.885 283.266 220.885C283.266 220.885 275.719 178.569 271.369 155.075C267.12 132.121 256 103.552 256 103.552Z" class="selected" fill="#ffffff" fill-opacity="1"></path><path d="M256 239.922C261.02 239.922 265.088 248.094 265.088 258.176C265.088 268.257 261.02 276.432 256 276.432C250.98 276.432 246.91 268.257 246.91 258.176C246.91 248.094 250.98 239.922 256 239.922Z" class="" fill="#c9c9c9" fill-opacity="1"></path></g></g></svg>