<svg xmlns="http://www.w3.org/2000/svg" viewBox="0 0 512 512" style="height: 512px; width: 512px;"><defs><filter id="shadow-1" height="300%" width="300%" x="-100%" y="-100%"><feFlood flood-color="rgba(255, 255, 255, 1)" result="flood"></feFlood><feComposite in="flood" in2="SourceGraphic" operator="atop" result="composite"></feComposite><feGaussianBlur in="composite" stdDeviation="15" result="blur"></feGaussianBlur><feOffset dx="0" dy="0" result="offset"></feOffset><feComposite in="SourceGraphic" in2="offset" operator="over"></feComposite></filter><filter id="shadow-2" height="300%" width="300%" x="-100%" y="-100%"><feFlood flood-color="rgba(255, 255, 255, 1)" result="flood"></feFlood><feComposite in="flood" in2="SourceGraphic" operator="atop" result="composite"></feComposite><feGaussianBlur in="composite" stdDeviation="15" result="blur"></feGaussianBlur><feOffset dx="0" dy="0" result="offset"></feOffset><feComposite in="SourceGraphic" in2="offset" operator="over"></feComposite></filter><filter id="shadow-12" height="300%" width="300%" x="-100%" y="-100%"><feFlood flood-color="rgba(255, 255, 255, 1)" result="flood"></feFlood><feComposite in="flood" in2="SourceGraphic" operator="atop" result="composite"></feComposite><feGaussianBlur in="composite" stdDeviation="15" result="blur"></feGaussianBlur><feOffset dx="0" dy="0" result="offset"></feOffset><feComposite in="SourceGraphic" in2="offset" operator="over"></feComposite></filter><filter id="shadow-13" height="300%" width="300%" x="-100%" y="-100%"><feFlood flood-color="rgba(255, 255, 255, 1)" result="flood"></feFlood><feComposite in="flood" in2="SourceGraphic" operator="atop" result="composite"></feComposite><feGaussianBlur in="composite" stdDeviation="15" result="blur"></feGaussianBlur><feOffset dx="0" dy="0" result="offset"></feOffset><feComposite in="SourceGraphic" in2="offset" operator="over"></feComposite></filter><filter id="shadow-14" height="300%" width="300%" x="-100%" y="-100%"><feFlood flood-color="rgba(255, 255, 255, 1)" result="flood"></feFlood><feComposite in="flood" in2="SourceGraphic" operator="atop" result="composite"></feComposite><feGaussianBlur in="composite" stdDeviation="15" result="blur"></feGaussianBlur><feOffset dx="0" dy="0" result="offset"></feOffset><feComposite in="SourceGraphic" in2="offset" operator="over"></feComposite></filter><filter id="shadow-15" height="300%" width="300%" x="-100%" y="-100%"><feFlood flood-color="rgba(255, 255, 255, 1)" result="flood"></feFlood><feComposite in="flood" in2="SourceGraphic" operator="atop" result="composite"></feComposite><feGaussianBlur in="composite" stdDeviation="15" result="blur"></feGaussianBlur><feOffset dx="0" dy="0" result="offset"></feOffset><feComposite in="SourceGraphic" in2="offset" operator="over"></feComposite></filter><filter id="shadow-16" height="300%" width="300%" x="-100%" y="-100%"><feFlood flood-color="rgba(255, 255, 255, 1)" result="flood"></feFlood><feComposite in="flood" in2="SourceGraphic" operator="atop" result="composite"></feComposite><feGaussianBlur in="composite" stdDeviation="15" result="blur"></feGaussianBlur><feOffset dx="0" dy="0" result="offset"></feOffset><feComposite in="SourceGraphic" in2="offset" operator="over"></feComposite></filter><filter id="shadow-17" height="300%" width="300%" x="-100%" y="-100%"><feFlood flood-color="rgba(255, 255, 255, 1)" result="flood"></feFlood><feComposite in="flood" in2="SourceGraphic" operator="atop" result="composite"></feComposite><feGaussianBlur in="composite" stdDeviation="15" result="blur"></feGaussianBlur><feOffset dx="0" dy="0" result="offset"></feOffset><feComposite in="SourceGraphic" in2="offset" operator="over"></feComposite></filter></defs><g class="" transform="translate(-3,-3)" style=""><g transform="translate(435.2, 435.2) scale(-0.7, -0.7) rotate(-540, 256, 256) skewX(0) skewY(0)"><path d="M239.344 24.063C229.784 24.063 222.031 31.817 222.031 41.375C222.031 50.933 229.786 58.688 239.345 58.688C248.903 58.688 256.625 50.933 256.625 41.375C256.625 31.815 248.903 24.062 239.345 24.062Z" class="" fill="#d0021b" fill-opacity="1" filter="url(#shadow-2)"></path><path d="M39.594 35.75C29.201 35.75 20.781 44.17 20.781 54.563C20.781 64.953 29.201 73.375 39.595 73.375C49.988 73.375 58.407 64.955 58.407 54.562C58.407 44.17 49.987 35.75 39.595 35.75Z" class="" fill="#f8e71c" fill-opacity="1"></path><path d="M188.47 51.156C174.13 51.156 162.5 62.756 162.5 77.094C162.5 91.43 174.13 103.064 188.47 103.064C202.807 103.064 214.438 91.43 214.438 77.094C214.438 62.756 202.808 51.156 188.468 51.156Z" class="" fill="#f5a623" fill-opacity="1"></path><path d="M304.72 53.719C331.17 120.843 245.49 170.999 247.72 88.937C207.505 125.86 234.903 173.165 252.5 210.811C265.84 239.356 264.842 264.654 242.375 274.281C226.34 281.151 208.505 262.688 202.75 243.749C201.496 239.621 201.087 234.512 201.28 228.374C210.932 227.569 218.5 219.482 218.5 209.624C218.5 199.231 210.08 190.811 199.687 190.811C189.295 190.811 180.875 199.231 180.875 209.624C180.875 216.638 184.715 222.764 190.405 225.999C171.585 246.667 152.745 236.493 165.219 174.219C105.611 242.049 127.159 373.079 210.249 413.093C197.255 387.627 190.103 356.04 195.999 329.093C232.349 407.908 317.099 330.503 322.029 259.999C335.519 304.605 333.665 369.749 311.249 416.469C401.654 381.152 421.915 244.999 374.249 176.999C368.381 259.111 303.757 227.031 330.219 118.593C336.714 91.971 318.169 61.388 304.719 53.718Z" class="" fill="#d0021b" fill-opacity="1"></path><path d="M54.5 90.78C44.94 90.78 37.187 98.536 37.187 108.094C37.187 117.651 44.941 125.406 54.5 125.406C64.06 125.406 71.813 117.651 71.813 108.094C71.813 98.534 64.059 90.781 54.5 90.781Z" class="selected" fill="#f5a623" fill-opacity="1"></path><path d="M121.125 95.937C109.6 95.937 100.281 105.289 100.281 116.813C100.281 119.693 100.851 122.441 101.907 124.937C90.575 127.687 82.157 137.917 82.157 150.094C82.157 164.378 93.747 175.969 108.032 175.969C122.319 175.969 133.908 164.377 133.908 150.093C133.913 145.026 132.424 140.069 129.628 135.843C136.912 132.587 142.002 125.306 142.002 116.813C142.002 105.287 132.652 95.937 121.127 95.937Z" class="" fill="#d0021b" fill-opacity="1"></path><path d="M379.405 118.313C369.848 118.313 362.125 126.067 362.125 135.625C362.125 145.183 369.848 152.938 379.405 152.938C388.965 152.938 396.719 145.183 396.719 135.625C396.719 126.065 388.964 118.312 379.405 118.312Z" class="" fill="#f8e71c" fill-opacity="1"></path><path d="M99.814 196.5C90.254 196.5 82.501 204.255 82.501 213.813C82.501 223.37 90.255 231.125 99.814 231.125C109.372 231.125 117.126 223.37 117.126 213.812C117.126 204.254 109.37 196.5 99.812 196.5Z" class="" fill="#f5a623" fill-opacity="1"></path><path d="M101.22 364.5C51.066 378.128 18.656 398.297 18.656 420.688C18.656 461.705 125.202 495.063 256.376 495.063C387.548 495.063 494.063 461.705 494.063 420.688C494.063 398.378 461.938 378.126 412.093 364.5C429.325 373.38 439.593 383.743 439.593 394.938C439.593 427.068 357.313 453.5 256.375 453.5C155.438 453.5 73.687 427.065 73.687 394.937C73.687 383.683 83.812 373.409 101.219 364.5Z" class="" fill="#f5a623" fill-opacity="1"></path></g></g></svg>