<svg xmlns="http://www.w3.org/2000/svg" viewBox="0 0 512 512" style="height: 512px; width: 512px;"><defs><filter id="shadow-1" height="300%" width="300%" x="-100%" y="-100%"><feFlood flood-color="rgba(255, 255, 255, 1)" result="flood"></feFlood><feComposite in="flood" in2="SourceGraphic" operator="atop" result="composite"></feComposite><feGaussianBlur in="composite" stdDeviation="15" result="blur"></feGaussianBlur><feOffset dx="0" dy="0" result="offset"></feOffset><feComposite in="SourceGraphic" in2="offset" operator="over"></feComposite></filter><filter id="shadow-16" height="300%" width="300%" x="-100%" y="-100%"><feFlood flood-color="rgba(255, 255, 255, 1)" result="flood"></feFlood><feComposite in="flood" in2="SourceGraphic" operator="atop" result="composite"></feComposite><feGaussianBlur in="composite" stdDeviation="15" result="blur"></feGaussianBlur><feOffset dx="0" dy="0" result="offset"></feOffset><feComposite in="SourceGraphic" in2="offset" operator="over"></feComposite></filter><filter id="shadow-17" height="300%" width="300%" x="-100%" y="-100%"><feFlood flood-color="rgba(255, 255, 255, 1)" result="flood"></feFlood><feComposite in="flood" in2="SourceGraphic" operator="atop" result="composite"></feComposite><feGaussianBlur in="composite" stdDeviation="15" result="blur"></feGaussianBlur><feOffset dx="0" dy="0" result="offset"></feOffset><feComposite in="SourceGraphic" in2="offset" operator="over"></feComposite></filter><filter id="shadow-18" height="300%" width="300%" x="-100%" y="-100%"><feFlood flood-color="rgba(255, 255, 255, 1)" result="flood"></feFlood><feComposite in="flood" in2="SourceGraphic" operator="atop" result="composite"></feComposite><feGaussianBlur in="composite" stdDeviation="15" result="blur"></feGaussianBlur><feOffset dx="0" dy="0" result="offset"></feOffset><feComposite in="SourceGraphic" in2="offset" operator="over"></feComposite></filter><filter id="shadow-19" height="300%" width="300%" x="-100%" y="-100%"><feFlood flood-color="rgba(255, 255, 255, 1)" result="flood"></feFlood><feComposite in="flood" in2="SourceGraphic" operator="atop" result="composite"></feComposite><feGaussianBlur in="composite" stdDeviation="15" result="blur"></feGaussianBlur><feOffset dx="0" dy="0" result="offset"></feOffset><feComposite in="SourceGraphic" in2="offset" operator="over"></feComposite></filter><filter id="shadow-20" height="300%" width="300%" x="-100%" y="-100%"><feFlood flood-color="rgba(255, 255, 255, 1)" result="flood"></feFlood><feComposite in="flood" in2="SourceGraphic" operator="atop" result="composite"></feComposite><feGaussianBlur in="composite" stdDeviation="15" result="blur"></feGaussianBlur><feOffset dx="0" dy="0" result="offset"></feOffset><feComposite in="SourceGraphic" in2="offset" operator="over"></feComposite></filter><filter id="shadow-21" height="300%" width="300%" x="-100%" y="-100%"><feFlood flood-color="rgba(255, 255, 255, 1)" result="flood"></feFlood><feComposite in="flood" in2="SourceGraphic" operator="atop" result="composite"></feComposite><feGaussianBlur in="composite" stdDeviation="15" result="blur"></feGaussianBlur><feOffset dx="0" dy="0" result="offset"></feOffset><feComposite in="SourceGraphic" in2="offset" operator="over"></feComposite></filter><filter id="shadow-22" height="300%" width="300%" x="-100%" y="-100%"><feFlood flood-color="rgba(255, 255, 255, 1)" result="flood"></feFlood><feComposite in="flood" in2="SourceGraphic" operator="atop" result="composite"></feComposite><feGaussianBlur in="composite" stdDeviation="15" result="blur"></feGaussianBlur><feOffset dx="0" dy="0" result="offset"></feOffset><feComposite in="SourceGraphic" in2="offset" operator="over"></feComposite></filter><filter id="shadow-23" height="300%" width="300%" x="-100%" y="-100%"><feFlood flood-color="rgba(255, 255, 255, 1)" result="flood"></feFlood><feComposite in="flood" in2="SourceGraphic" operator="atop" result="composite"></feComposite><feGaussianBlur in="composite" stdDeviation="15" result="blur"></feGaussianBlur><feOffset dx="0" dy="0" result="offset"></feOffset><feComposite in="SourceGraphic" in2="offset" operator="over"></feComposite></filter><filter id="shadow-24" height="300%" width="300%" x="-100%" y="-100%"><feFlood flood-color="rgba(255, 255, 255, 1)" result="flood"></feFlood><feComposite in="flood" in2="SourceGraphic" operator="atop" result="composite"></feComposite><feGaussianBlur in="composite" stdDeviation="15" result="blur"></feGaussianBlur><feOffset dx="0" dy="0" result="offset"></feOffset><feComposite in="SourceGraphic" in2="offset" operator="over"></feComposite></filter><filter id="shadow-27" height="300%" width="300%" x="-100%" y="-100%"><feFlood flood-color="rgba(255, 255, 255, 1)" result="flood"></feFlood><feComposite in="flood" in2="SourceGraphic" operator="atop" result="composite"></feComposite><feGaussianBlur in="composite" stdDeviation="15" result="blur"></feGaussianBlur><feOffset dx="0" dy="0" result="offset"></feOffset><feComposite in="SourceGraphic" in2="offset" operator="over"></feComposite></filter></defs><g class="" transform="translate(-3,-3)" style=""><g transform="translate(435.2, 435.2) scale(-0.7, -0.7) rotate(-540, 256, 256) skewX(0) skewY(0)"><path d="M256 17.492L276.912 52.348L306 34.895L296.973 71L215.027 71L206 34.896L235.088 52.348Z" class="" fill="#d0021b" fill-opacity="1"></path><path d="M320.3 51.906C334.08 62.311 343 77 343 96L343 160.648C332.362 153.378 320.556 146.731 308.016 142.018C311.239 132.817 313 122.663 313 112C313 103.982 311.995 96.256 311.511 92.628Z" class="" fill="#bd10e0" fill-opacity="1"></path><path d="M191.7 51.906L200.489 92.628C200.005 96.256 199 103.982 199 112C199 122.663 200.76 132.817 203.984 142.018C191.444 146.731 179.638 153.378 169 160.648L169 96C169 76.999 177.92 62.311 191.7 51.906Z" class="" fill="#bd10e0" fill-opacity="1"></path><path d="M291.356 89C293.666 95.965 294.999 103.753 294.999 112C294.999 127.85 290.107 142.032 282.739 151.855C275.372 161.68 266.012 167 256 167C245.988 167 236.628 161.68 229.26 151.855C221.892 142.032 217 127.85 217 112C217 103.753 218.334 95.965 220.643 89Z" class="" fill="#f5a623" fill-opacity="1"></path><path d="M299.897 158.67C325.288 168.288 349.613 188.17 365.253 202.59C361.895 203.97 358.776 205.727 355.972 207.83C351.387 211.268 347.595 215.81 345.317 221.053L322.183 215.27L317.815 232.73L324.715 234.455C327.245 250.49 327.95 266.025 327.964 278.236C322.258 271.722 315.424 265.449 306.067 263.24C302.864 262.484 299.679 262.251 296.538 262.402C287.116 262.855 278.09 266.761 270.145 270.342C265.316 272.52 260.595 274.931 256 277.566C251.404 274.931 246.683 272.52 241.854 270.342C231.261 265.567 218.744 260.216 205.932 263.24C196.574 265.45 189.742 271.722 184.035 278.236C184.049 266.024 184.755 250.49 187.283 234.456L194.183 232.73L189.816 215.27L166.682 221.053C164.404 215.809 160.612 211.268 156.027 207.83C153.223 205.727 150.104 203.97 146.747 202.59C162.386 188.17 186.711 168.288 212.102 158.67C212.975 160.029 213.895 161.358 214.859 162.654C221.847 171.972 231.1 179.161 241.664 182.658L256 240L270.336 182.658C280.9 179.161 290.153 171.972 297.141 162.654C298.105 161.358 299.025 160.029 299.898 158.67Z" class="" fill="#f5a623" fill-opacity="1"></path><path d="M384 217C391.013 217 397.194 219.204 401.227 222.229C405.201 225.209 406.931 228.519 406.98 231.854C406.688 231.905 406.585 231.957 406.096 231.986C402.147 232.22 393.729 231 384 231C374.271 231 365.853 232.22 361.904 231.986C361.414 231.957 361.312 231.905 361.02 231.854C361.07 228.518 362.799 225.209 366.773 222.229C370.806 219.204 376.987 217 384 217Z" class="" fill="#bd10e0" fill-opacity="1"></path><path d="M128 217C135.013 217 141.194 219.204 145.227 222.229C149.201 225.209 150.931 228.519 150.98 231.854C150.688 231.905 150.585 231.957 150.096 231.986C146.147 232.22 137.729 231 128 231C118.271 231 109.853 232.22 105.904 231.986C105.414 231.957 105.312 231.905 105.02 231.854C105.07 228.518 106.799 225.209 110.773 222.229C114.806 219.204 120.987 217 128 217Z" class="" fill="#bd10e0" fill-opacity="1"></path><path d="M407 249L407 423L361 423L361 249Z" class="" fill="#d0021b" fill-opacity="1"></path><path d="M151 249L151 423L105 423L105 249Z" class="" fill="#d0021b" fill-opacity="1"></path><path d="M300.23 280.6C300.907 280.6 301.481 280.654 301.932 280.76C304.667 281.406 312.809 287.965 318.527 294.984C323.225 300.75 326.198 305.376 327.327 307.166L338.445 396.119C334.875 391.961 330.968 387.952 326.707 384.504C320.277 379.3 312.839 375 304 375C283.5 375 269.28 389.856 260.512 403.008C258.913 405.412 257.408 407.877 256 410.398C254.592 407.877 253.087 405.412 251.488 403.008C242.72 389.856 228.5 375 208 375C199.161 375 191.724 379.3 185.293 384.504C181.033 387.952 177.124 391.961 173.555 396.119L184.674 307.166C185.802 305.376 188.775 300.75 193.473 294.984C199.191 287.965 207.333 281.406 210.068 280.76C213.671 279.91 225.153 282.558 234.457 286.752C236.46 287.659 238.442 288.612 240.402 289.609L256 352L271.598 289.61C273.448 288.671 275.438 287.701 277.543 286.752C284.521 283.606 292.725 281.329 297.91 280.746C298.68 280.654 299.455 280.605 300.23 280.6Z" class="" fill="#bd10e0" fill-opacity="1"></path><path d="M304 393C306.475 393 310.694 394.7 315.385 398.496C320.075 402.292 325.019 407.819 329.334 413.465C331.852 416.759 334.054 419.967 336.051 423L269.741 423C271.333 419.847 273.16 416.485 275.488 412.992C282.72 402.144 292.5 393 304 393Z" class="" fill="#d0021b" fill-opacity="1"></path><path d="M208 393C219.5 393 229.28 402.144 236.512 412.992C238.84 416.485 240.667 419.847 242.26 423L175.95 423C177.945 419.967 180.148 416.76 182.666 413.465C186.981 407.819 191.925 402.292 196.616 398.496C201.305 394.7 205.525 393 208 393Z" class="selected" fill="#d0021b" fill-opacity="1"></path><path d="M439 441L439 455L73 455L73 441Z" class="" fill="#f5a623" fill-opacity="1"></path><path d="M487 473L487 487L25 487L25 473Z" class="" fill="#f5a623" fill-opacity="1"></path></g></g></svg>