<svg xmlns="http://www.w3.org/2000/svg" viewBox="0 0 512 512" style="height: 512px; width: 512px;"><defs><filter id="shadow-1" height="300%" width="300%" x="-100%" y="-100%"><feFlood flood-color="rgba(255, 255, 255, 1)" result="flood"></feFlood><feComposite in="flood" in2="SourceGraphic" operator="atop" result="composite"></feComposite><feGaussianBlur in="composite" stdDeviation="15" result="blur"></feGaussianBlur><feOffset dx="0" dy="0" result="offset"></feOffset><feComposite in="SourceGraphic" in2="offset" operator="over"></feComposite></filter><filter id="shadow-2" height="300%" width="300%" x="-100%" y="-100%"><feFlood flood-color="rgba(255, 255, 255, 1)" result="flood"></feFlood><feComposite in="flood" in2="SourceGraphic" operator="atop" result="composite"></feComposite><feGaussianBlur in="composite" stdDeviation="15" result="blur"></feGaussianBlur><feOffset dx="0" dy="0" result="offset"></feOffset><feComposite in="SourceGraphic" in2="offset" operator="over"></feComposite></filter><filter id="shadow-12" height="300%" width="300%" x="-100%" y="-100%"><feFlood flood-color="rgba(255, 255, 255, 1)" result="flood"></feFlood><feComposite in="flood" in2="SourceGraphic" operator="atop" result="composite"></feComposite><feGaussianBlur in="composite" stdDeviation="15" result="blur"></feGaussianBlur><feOffset dx="0" dy="0" result="offset"></feOffset><feComposite in="SourceGraphic" in2="offset" operator="over"></feComposite></filter><filter id="shadow-13" height="300%" width="300%" x="-100%" y="-100%"><feFlood flood-color="rgba(255, 255, 255, 1)" result="flood"></feFlood><feComposite in="flood" in2="SourceGraphic" operator="atop" result="composite"></feComposite><feGaussianBlur in="composite" stdDeviation="15" result="blur"></feGaussianBlur><feOffset dx="0" dy="0" result="offset"></feOffset><feComposite in="SourceGraphic" in2="offset" operator="over"></feComposite></filter><filter id="shadow-14" height="300%" width="300%" x="-100%" y="-100%"><feFlood flood-color="rgba(255, 255, 255, 1)" result="flood"></feFlood><feComposite in="flood" in2="SourceGraphic" operator="atop" result="composite"></feComposite><feGaussianBlur in="composite" stdDeviation="15" result="blur"></feGaussianBlur><feOffset dx="0" dy="0" result="offset"></feOffset><feComposite in="SourceGraphic" in2="offset" operator="over"></feComposite></filter><filter id="shadow-15" height="300%" width="300%" x="-100%" y="-100%"><feFlood flood-color="rgba(255, 255, 255, 1)" result="flood"></feFlood><feComposite in="flood" in2="SourceGraphic" operator="atop" result="composite"></feComposite><feGaussianBlur in="composite" stdDeviation="15" result="blur"></feGaussianBlur><feOffset dx="0" dy="0" result="offset"></feOffset><feComposite in="SourceGraphic" in2="offset" operator="over"></feComposite></filter><filter id="shadow-16" height="300%" width="300%" x="-100%" y="-100%"><feFlood flood-color="rgba(255, 255, 255, 1)" result="flood"></feFlood><feComposite in="flood" in2="SourceGraphic" operator="atop" result="composite"></feComposite><feGaussianBlur in="composite" stdDeviation="15" result="blur"></feGaussianBlur><feOffset dx="0" dy="0" result="offset"></feOffset><feComposite in="SourceGraphic" in2="offset" operator="over"></feComposite></filter><filter id="shadow-17" height="300%" width="300%" x="-100%" y="-100%"><feFlood flood-color="rgba(255, 255, 255, 1)" result="flood"></feFlood><feComposite in="flood" in2="SourceGraphic" operator="atop" result="composite"></feComposite><feGaussianBlur in="composite" stdDeviation="15" result="blur"></feGaussianBlur><feOffset dx="0" dy="0" result="offset"></feOffset><feComposite in="SourceGraphic" in2="offset" operator="over"></feComposite></filter></defs><g class="" transform="translate(-3,-3)" style=""><g transform="translate(435.2, 435.2) scale(-0.7, -0.7) rotate(-540, 256, 256) skewX(0) skewY(0)"><path d="M93.998 27.8C69.994 27.67 51.058 43.068 39.266 60.578C27.094 78.653 20.66 98.816 24.684 115.1L24.694 115.14L106.17 433.326C106.28 423.792 108.462 413.95 112.39 404.73C116.63 394.782 123.12 385.318 131.635 377.52C139.112 370.08 149.033 364.177 160.869 360.945C160.871 360.945 160.873 360.945 160.876 360.943C165.379 359.614 169.994 358.697 174.663 358.203L175.321 358.133L498.521 369.383L371.546 40.823L96.336 27.863C95.557 27.826 94.776 27.805 93.996 27.801Z" class="" fill="#bd10e0" fill-opacity="1" filter="url(#shadow-2)"></path><path d="M93.891 46.49C94.411 46.493 94.934 46.507 95.458 46.53L358.504 58.92L470.912 349.787L171.452 340.017L170.799 340.087C144.669 342.901 123.122 355.889 110.245 373.91L42.825 110.62L42.825 110.617C41.255 104.255 44.945 85.604 54.767 71.017C64.283 56.885 77.797 46.414 93.89 46.492Z" class="" fill="#9013fe" fill-opacity="1"></path><path d="M111.317 63.893L93.35 69.037L166.41 324.23L184.377 319.088L111.317 63.893Z" class="" fill="#fc88fc" fill-opacity="1"></path><path d="M163.797 83.093C167.017 145.663 209.907 167.765 245.337 170.6L254.407 153.75L210.534 133.807L226.444 124.857C201.717 122.469 183.544 100.42 163.796 83.092Z" class="" fill="#fc88fc" fill-opacity="1"></path><path d="M343.954 86.041C333.091 104.331 325.36 126.654 304.579 132.173L314.889 146.017L290.081 162.087L305.024 175.927C335.019 168.545 364.391 142.805 343.954 86.042Z" class="" fill="#fc88fc" fill-opacity="1"></path><path d="M388.36 174.301L354.928 233.368L336.744 193.286L311.289 243.913L261.219 206.647L252.942 241.804L176.005 182.036L222.063 281.181L235.489 259.381L281.351 318.451L301.208 272.041L342.404 319.149L360.189 267.119L380.319 295.946L388.359 174.302Z" class="" fill="#fc88fc" fill-opacity="1"></path><path d="M176.214 376.866C152.651 379.554 137.006 394.632 129.584 412.056C122.721 428.162 123.926 445.063 131.388 454.756L446.394 465.618C443.88 452.065 444.574 438.188 448.714 424.415L427.168 417.597L461.42 397.542C463.792 393.92 466.348 390.422 469.078 387.062L176.213 376.867Z" class="selected" fill="#9013fe" fill-opacity="1"></path></g></g></svg>