<svg xmlns="http://www.w3.org/2000/svg" viewBox="0 0 512 512" style="height: 512px; width: 512px;"><defs><filter id="shadow-1" height="300%" width="300%" x="-100%" y="-100%"><feFlood flood-color="rgba(255, 255, 255, 1)" result="flood"></feFlood><feComposite in="flood" in2="SourceGraphic" operator="atop" result="composite"></feComposite><feGaussianBlur in="composite" stdDeviation="15" result="blur"></feGaussianBlur><feOffset dx="0" dy="0" result="offset"></feOffset><feComposite in="SourceGraphic" in2="offset" operator="over"></feComposite></filter><filter id="shadow-16" height="300%" width="300%" x="-100%" y="-100%"><feFlood flood-color="rgba(255, 255, 255, 1)" result="flood"></feFlood><feComposite in="flood" in2="SourceGraphic" operator="atop" result="composite"></feComposite><feGaussianBlur in="composite" stdDeviation="15" result="blur"></feGaussianBlur><feOffset dx="0" dy="0" result="offset"></feOffset><feComposite in="SourceGraphic" in2="offset" operator="over"></feComposite></filter><filter id="shadow-17" height="300%" width="300%" x="-100%" y="-100%"><feFlood flood-color="rgba(255, 255, 255, 1)" result="flood"></feFlood><feComposite in="flood" in2="SourceGraphic" operator="atop" result="composite"></feComposite><feGaussianBlur in="composite" stdDeviation="15" result="blur"></feGaussianBlur><feOffset dx="0" dy="0" result="offset"></feOffset><feComposite in="SourceGraphic" in2="offset" operator="over"></feComposite></filter><filter id="shadow-18" height="300%" width="300%" x="-100%" y="-100%"><feFlood flood-color="rgba(255, 255, 255, 1)" result="flood"></feFlood><feComposite in="flood" in2="SourceGraphic" operator="atop" result="composite"></feComposite><feGaussianBlur in="composite" stdDeviation="15" result="blur"></feGaussianBlur><feOffset dx="0" dy="0" result="offset"></feOffset><feComposite in="SourceGraphic" in2="offset" operator="over"></feComposite></filter><filter id="shadow-19" height="300%" width="300%" x="-100%" y="-100%"><feFlood flood-color="rgba(255, 255, 255, 1)" result="flood"></feFlood><feComposite in="flood" in2="SourceGraphic" operator="atop" result="composite"></feComposite><feGaussianBlur in="composite" stdDeviation="15" result="blur"></feGaussianBlur><feOffset dx="0" dy="0" result="offset"></feOffset><feComposite in="SourceGraphic" in2="offset" operator="over"></feComposite></filter><filter id="shadow-20" height="300%" width="300%" x="-100%" y="-100%"><feFlood flood-color="rgba(255, 255, 255, 1)" result="flood"></feFlood><feComposite in="flood" in2="SourceGraphic" operator="atop" result="composite"></feComposite><feGaussianBlur in="composite" stdDeviation="15" result="blur"></feGaussianBlur><feOffset dx="0" dy="0" result="offset"></feOffset><feComposite in="SourceGraphic" in2="offset" operator="over"></feComposite></filter><filter id="shadow-21" height="300%" width="300%" x="-100%" y="-100%"><feFlood flood-color="rgba(255, 255, 255, 1)" result="flood"></feFlood><feComposite in="flood" in2="SourceGraphic" operator="atop" result="composite"></feComposite><feGaussianBlur in="composite" stdDeviation="15" result="blur"></feGaussianBlur><feOffset dx="0" dy="0" result="offset"></feOffset><feComposite in="SourceGraphic" in2="offset" operator="over"></feComposite></filter><filter id="shadow-22" height="300%" width="300%" x="-100%" y="-100%"><feFlood flood-color="rgba(255, 255, 255, 1)" result="flood"></feFlood><feComposite in="flood" in2="SourceGraphic" operator="atop" result="composite"></feComposite><feGaussianBlur in="composite" stdDeviation="15" result="blur"></feGaussianBlur><feOffset dx="0" dy="0" result="offset"></feOffset><feComposite in="SourceGraphic" in2="offset" operator="over"></feComposite></filter><filter id="shadow-23" height="300%" width="300%" x="-100%" y="-100%"><feFlood flood-color="rgba(255, 255, 255, 1)" result="flood"></feFlood><feComposite in="flood" in2="SourceGraphic" operator="atop" result="composite"></feComposite><feGaussianBlur in="composite" stdDeviation="15" result="blur"></feGaussianBlur><feOffset dx="0" dy="0" result="offset"></feOffset><feComposite in="SourceGraphic" in2="offset" operator="over"></feComposite></filter><filter id="shadow-24" height="300%" width="300%" x="-100%" y="-100%"><feFlood flood-color="rgba(255, 255, 255, 1)" result="flood"></feFlood><feComposite in="flood" in2="SourceGraphic" operator="atop" result="composite"></feComposite><feGaussianBlur in="composite" stdDeviation="15" result="blur"></feGaussianBlur><feOffset dx="0" dy="0" result="offset"></feOffset><feComposite in="SourceGraphic" in2="offset" operator="over"></feComposite></filter><filter id="shadow-27" height="300%" width="300%" x="-100%" y="-100%"><feFlood flood-color="rgba(255, 255, 255, 1)" result="flood"></feFlood><feComposite in="flood" in2="SourceGraphic" operator="atop" result="composite"></feComposite><feGaussianBlur in="composite" stdDeviation="15" result="blur"></feGaussianBlur><feOffset dx="0" dy="0" result="offset"></feOffset><feComposite in="SourceGraphic" in2="offset" operator="over"></feComposite></filter></defs><g class="" transform="translate(-2,-4)" style=""><g transform="translate(435.2, 435.2) scale(-0.7, -0.7) rotate(-540, 256, 256) skewX(0) skewY(0)"><path d="M108.156 34.375C80.486 34.375 57.906 57.595 57.906 86.905C57.906 116.218 80.486 139.469 108.156 139.469C135.828 139.469 158.406 116.217 158.406 86.905C158.406 57.593 135.828 34.375 108.156 34.375Z" class="selected" fill="#48baff" fill-opacity="1"></path><path d="M421.22 47.438C419.508 47.431 417.797 47.515 416.094 47.688C409.954 48.298 404.446 50.123 399.344 52.781C426.878 75.727 444.158 105.861 454.938 139.063C466.454 128.476 473.098 112.618 471.344 95.001C468.624 67.685 446.624 47.589 421.219 47.438Z" class="" fill="#48baff" fill-opacity="1"></path><path d="M282.655 165.406C282.235 165.406 281.808 165.421 281.375 165.436C269.932 165.882 253.663 172.439 232.062 189.844C235.914 197.114 238.682 205.457 240.592 214.531C242.922 225.599 244.022 237.865 243.874 250.721C267.321 273.344 282.364 304.828 289.937 337.064C309.349 301.096 320.053 245.114 314.217 207.251C310.755 184.783 302.34 170.491 290.467 166.595C288.195 165.849 285.597 165.412 282.655 165.407Z" class="" fill="#f5a623" fill-opacity="1"></path><path d="M366.53 173.936C356.37 174.084 343.943 177.7 328.563 186.436C330.373 192.123 331.727 198.176 332.688 204.406C334.715 217.563 335.184 232.026 334.25 246.906C361.258 272.406 379.23 310.666 387.313 349.186C408.423 319.586 419.173 265.729 412.063 225.906C408.023 203.278 398.703 186.063 385.625 178.626C380.312 175.603 374.04 173.829 366.531 173.936Z" class="" fill="#f5a623" fill-opacity="1"></path><path d="M194.78 183.219C184.257 183.214 168.115 190.687 146.937 213.499C148.358 216.22 149.58 219.04 150.594 221.937C155.444 235.725 156.969 252.709 154.75 270.593C154.755 270.6 154.745 270.617 154.75 270.623C175.04 300.318 188.153 327.335 195.53 350.936C221.046 311.439 229.894 254.541 222.28 218.374C220.125 208.128 216.71 199.654 212.625 193.811C208.539 187.969 204.167 184.824 199 183.655C197.708 183.363 196.31 183.218 194.78 183.218Z" class="" fill="#f5a623" fill-opacity="1"></path><path d="M426.53 192.469C424.805 192.484 423.084 192.609 421.375 192.843C425.587 201.891 428.543 212.013 430.438 222.623C432.351 233.337 433.266 244.693 433.218 256.249C459.246 288.199 470.432 334.609 469.125 377.374C493.328 345.32 497.315 299.409 487.405 260.936C481.472 237.896 470.553 217.913 457.375 205.874C447.903 197.221 437.825 192.407 426.531 192.468Z" class="" fill="#f5a623" fill-opacity="1"></path><path d="M114.5 210.937C106.582 211.337 92.675 218.887 75.72 240.562C97.847 270.112 110.683 297.412 116.563 320.968C136.971 289.241 140.573 249.773 132.969 228.154C130.769 221.899 127.775 217.272 124.687 214.56C121.597 211.85 118.649 210.726 114.499 210.935Z" class="" fill="#f5a623" fill-opacity="1"></path><path d="M44.906 248.343C16.096 248.983 7.983 287.189 23.781 319.78C38.548 307.172 51.244 285.228 51.063 248.75C48.917 248.433 46.863 248.3 44.907 248.344Z" class="" fill="#f5a623" fill-opacity="1"></path><path d="M68.906 263.249C66.056 293.946 54.348 316.169 39.376 330.593C50.016 358.393 62.934 374.001 72.969 379.905C78.322 383.055 82.569 383.64 85.969 382.999C89.367 382.359 92.374 380.499 95.219 376.499C100.905 368.497 104.421 351.406 98.999 327.843C94.805 309.617 85.399 287.616 68.905 263.249Z" class="" fill="#f5a623" fill-opacity="1"></path><path d="M331.469 271.499C325.837 306.214 313.041 340.659 294.561 364.312C296.555 383.01 296.118 401.197 293.343 417.249C291.441 428.249 288.347 438.587 283.873 447.374C314.943 467.557 335.193 468.577 348.155 461.499C361.325 454.309 370.222 436.161 372.749 411.279C377.151 367.943 361.149 308.072 331.469 271.499Z" class="" fill="#f5a623" fill-opacity="1"></path><path d="M241.936 276.749C237.216 311.367 223.879 347.396 201.28 374.749C204.68 395.165 203.268 412.316 197.187 425.343C209.293 438.497 220.029 446.818 228.844 451.28C238.262 456.05 245.107 456.502 250.564 454.906C261.474 451.714 270.942 437.176 274.938 414.062C281.826 374.216 270.825 314.762 241.938 276.75Z" class="" fill="#f5a623" fill-opacity="1"></path><path d="M430.874 286.779C425.764 320.767 412.372 353.245 391.061 373.312C392.474 387.102 392.588 400.582 391.311 413.155C389.547 430.525 385.038 446.633 376.905 459.155C395.315 468.531 408.268 466.92 419.093 459.625C431.308 451.39 441.287 433.439 446.373 410.437C454.738 372.617 449.58 322.61 430.873 286.78Z" class="" fill="#f5a623" fill-opacity="1"></path><path d="M149.094 296.187C143.42 313.864 134.012 331.385 120.468 346.717C121.123 362.92 117.82 376.487 110.998 386.53C125.728 409.718 140.774 422.66 152.342 427.406C164.972 432.589 172.155 430.259 177.998 421.5C183.841 412.74 186.928 394.876 181.278 369.78C176.698 349.43 166.578 324.49 149.092 296.188Z" class="" fill="#f5a623" fill-opacity="1"></path></g></g></svg>