<svg xmlns="http://www.w3.org/2000/svg" viewBox="0 0 512 512" style="height: 512px; width: 512px;"><defs><filter id="shadow-1" height="300%" width="300%" x="-100%" y="-100%"><feFlood flood-color="rgba(255, 255, 255, 1)" result="flood"></feFlood><feComposite in="flood" in2="SourceGraphic" operator="atop" result="composite"></feComposite><feGaussianBlur in="composite" stdDeviation="15" result="blur"></feGaussianBlur><feOffset dx="0" dy="0" result="offset"></feOffset><feComposite in="SourceGraphic" in2="offset" operator="over"></feComposite></filter><filter id="shadow-16" height="300%" width="300%" x="-100%" y="-100%"><feFlood flood-color="rgba(255, 255, 255, 1)" result="flood"></feFlood><feComposite in="flood" in2="SourceGraphic" operator="atop" result="composite"></feComposite><feGaussianBlur in="composite" stdDeviation="15" result="blur"></feGaussianBlur><feOffset dx="0" dy="0" result="offset"></feOffset><feComposite in="SourceGraphic" in2="offset" operator="over"></feComposite></filter><filter id="shadow-17" height="300%" width="300%" x="-100%" y="-100%"><feFlood flood-color="rgba(255, 255, 255, 1)" result="flood"></feFlood><feComposite in="flood" in2="SourceGraphic" operator="atop" result="composite"></feComposite><feGaussianBlur in="composite" stdDeviation="15" result="blur"></feGaussianBlur><feOffset dx="0" dy="0" result="offset"></feOffset><feComposite in="SourceGraphic" in2="offset" operator="over"></feComposite></filter><filter id="shadow-18" height="300%" width="300%" x="-100%" y="-100%"><feFlood flood-color="rgba(255, 255, 255, 1)" result="flood"></feFlood><feComposite in="flood" in2="SourceGraphic" operator="atop" result="composite"></feComposite><feGaussianBlur in="composite" stdDeviation="15" result="blur"></feGaussianBlur><feOffset dx="0" dy="0" result="offset"></feOffset><feComposite in="SourceGraphic" in2="offset" operator="over"></feComposite></filter><filter id="shadow-19" height="300%" width="300%" x="-100%" y="-100%"><feFlood flood-color="rgba(255, 255, 255, 1)" result="flood"></feFlood><feComposite in="flood" in2="SourceGraphic" operator="atop" result="composite"></feComposite><feGaussianBlur in="composite" stdDeviation="15" result="blur"></feGaussianBlur><feOffset dx="0" dy="0" result="offset"></feOffset><feComposite in="SourceGraphic" in2="offset" operator="over"></feComposite></filter><filter id="shadow-20" height="300%" width="300%" x="-100%" y="-100%"><feFlood flood-color="rgba(255, 255, 255, 1)" result="flood"></feFlood><feComposite in="flood" in2="SourceGraphic" operator="atop" result="composite"></feComposite><feGaussianBlur in="composite" stdDeviation="15" result="blur"></feGaussianBlur><feOffset dx="0" dy="0" result="offset"></feOffset><feComposite in="SourceGraphic" in2="offset" operator="over"></feComposite></filter><filter id="shadow-21" height="300%" width="300%" x="-100%" y="-100%"><feFlood flood-color="rgba(255, 255, 255, 1)" result="flood"></feFlood><feComposite in="flood" in2="SourceGraphic" operator="atop" result="composite"></feComposite><feGaussianBlur in="composite" stdDeviation="15" result="blur"></feGaussianBlur><feOffset dx="0" dy="0" result="offset"></feOffset><feComposite in="SourceGraphic" in2="offset" operator="over"></feComposite></filter><filter id="shadow-22" height="300%" width="300%" x="-100%" y="-100%"><feFlood flood-color="rgba(255, 255, 255, 1)" result="flood"></feFlood><feComposite in="flood" in2="SourceGraphic" operator="atop" result="composite"></feComposite><feGaussianBlur in="composite" stdDeviation="15" result="blur"></feGaussianBlur><feOffset dx="0" dy="0" result="offset"></feOffset><feComposite in="SourceGraphic" in2="offset" operator="over"></feComposite></filter><filter id="shadow-23" height="300%" width="300%" x="-100%" y="-100%"><feFlood flood-color="rgba(255, 255, 255, 1)" result="flood"></feFlood><feComposite in="flood" in2="SourceGraphic" operator="atop" result="composite"></feComposite><feGaussianBlur in="composite" stdDeviation="15" result="blur"></feGaussianBlur><feOffset dx="0" dy="0" result="offset"></feOffset><feComposite in="SourceGraphic" in2="offset" operator="over"></feComposite></filter><filter id="shadow-24" height="300%" width="300%" x="-100%" y="-100%"><feFlood flood-color="rgba(255, 255, 255, 1)" result="flood"></feFlood><feComposite in="flood" in2="SourceGraphic" operator="atop" result="composite"></feComposite><feGaussianBlur in="composite" stdDeviation="15" result="blur"></feGaussianBlur><feOffset dx="0" dy="0" result="offset"></feOffset><feComposite in="SourceGraphic" in2="offset" operator="over"></feComposite></filter><filter id="shadow-27" height="300%" width="300%" x="-100%" y="-100%"><feFlood flood-color="rgba(255, 255, 255, 1)" result="flood"></feFlood><feComposite in="flood" in2="SourceGraphic" operator="atop" result="composite"></feComposite><feGaussianBlur in="composite" stdDeviation="15" result="blur"></feGaussianBlur><feOffset dx="0" dy="0" result="offset"></feOffset><feComposite in="SourceGraphic" in2="offset" operator="over"></feComposite></filter></defs><g class="" transform="translate(-2,-4)" style=""><g transform="translate(435.2, 435.2) scale(-0.7, -0.7) rotate(-540, 256, 256) skewX(0) skewY(0)"><path d="M64.086 26.254C57.849 66.124 54.083 58.826 25.383 63.176C51.665 66.888 64.8 71.986 63.576 100.352C66.235 80.38 64.412 69.49 99.732 63.686C83.91 57.622 66.02 68.003 64.086 26.254Z" class="" fill="#4a90e2" fill-opacity="1"></path><path d="M235.15 26.664L204.6 74.125L224.666 88.561L260.479 86.741L283.156 71.623L257.85 28.041L235.15 26.664Z" class="" fill="#48baff" fill-opacity="1"></path><path d="M293.463 53.527L327.598 112.314L324.084 117.07C315.227 129.058 308.183 140.996 297.777 151.947L323.895 190.342L319.41 158.795L362.012 65.203L293.462 53.527Z" class="" fill="#4a90e2" fill-opacity="1"></path><path d="M190.557 62.686L134.391 79.316L144.411 99.193L126.406 127.824L157.65 125.461L173.908 157.713L179.418 241.045L213.707 274.045L228.5 213.059L275.486 279.732L330.92 239.762L329.402 229.09L328.773 229.518L284.639 164.637L277.287 239.539L196.827 160.865L197.1 160.584C194.803 157.947 192.67 155.17 190.715 152.27C180.423 137.06 174.109 119.931 167.123 108.455L164.193 103.643L190.557 62.686Z" class="" fill="#4a90e2" fill-opacity="1"></path><path d="M373.473 83.475L345.645 144.611L377.273 166.303L409.018 259.933C394.072 256.045 378.378 262.469 376.572 223.518C370.336 263.388 366.569 256.088 337.869 260.438C364.151 264.15 377.289 269.248 376.064 297.613C378.653 278.167 377.008 267.333 409.521 261.418L416.893 283.158L424.629 212.878L471.352 240.1L446.43 156.58L415.324 164.168L411.059 146.68L469.396 132.453C461.438 128.283 458.814 126.946 447.971 121.183C437.213 115.467 426.328 109.625 417.824 104.93C413.572 102.582 409.924 100.526 407.121 98.877C406.264 98.372 405.626 97.967 404.921 97.533L373.473 83.475Z" class="" fill="#48baff" fill-opacity="1"></path><path d="M292.211 87.219L268.734 102.869L268.734 113.211L250.734 113.211L250.734 105.258L234.174 106.1L234.928 114.383L217 116.012L215.951 104.465L194.844 89.281L185.284 104.135C192.314 116.854 198.047 130.986 205.624 142.184C213.964 154.512 223.283 162.858 239.967 164.162C261.379 158.403 273.429 150.794 282.814 141.506C291.2 133.206 297.902 122.814 306.156 111.234L292.211 87.22Z" class="" fill="#48baff" fill-opacity="1"></path><path d="M120.578 91.906L72.611 106.41L69.287 144.947L82.717 153.578C34.053 213.996 80.85 154.444 35.201 214.371L110.475 158.203L119.959 173.502L63.822 208.3L58.295 272.374L99.367 243.532L110.484 269.149L142.354 166.61L152.857 155.944L146.998 144.317L92.164 148.466L123.76 98.216L120.578 91.906Z" class="" fill="#48baff" fill-opacity="1"></path><path d="M244.541 122.318C246.536 122.348 248.497 122.475 250.404 122.686C263.97 124.185 275.147 128.537 282.194 135.771L269.299 148.331C268.005 147.001 258.281 141.665 248.428 140.576C238.575 139.487 228.932 141.305 222.133 148.633L208.937 136.391C217.643 127.008 228.984 123.147 239.834 122.436C241.401 122.333 242.971 122.294 244.541 122.318Z" class="" fill="#ffffff" fill-opacity="1"></path><path d="M265.604 174.305C259.236 177.122 252.083 179.635 243.964 181.783L263.039 200.433L265.604 174.305Z" class="" fill="#48baff" fill-opacity="1"></path><path d="M439.49 242.37L431.44 315.52C432.26 314.741 433.153 313.713 434.166 312.325C438.444 306.465 443.693 295.087 453.113 281.429L456.154 277.02L461.479 277.589C468.551 278.345 474.275 280.142 478.957 282.083L468.957 259.538L439.49 242.37Z" class="" fill="#48baff" fill-opacity="1"></path><path d="M238.46 258.437L235.966 258.641L223.81 308.75L199.71 285.557L226.056 327.709L267.118 308.594L282.778 336.301L326.81 326.455L332.911 288.59L329.136 263.24L271.255 304.977L238.46 258.437Z" class="" fill="#48baff" fill-opacity="1"></path><path d="M91.798 271.307L90.868 271.497L49.382 300.629L43.632 322.744L82.616 300.158L108.372 323.271L108.884 310.674L91.798 271.307Z" class="" fill="#48baff" fill-opacity="1"></path><path d="M173.876 278.186L128.106 385.744L137.288 427.057L154.985 373.963L171.567 421.088L182.409 407.098L190.105 387.123C228.989 394.673 221.707 398.304 225.025 426.979C229.66 400.843 235.217 387.895 263.522 390.117C243.656 386.757 232.708 388.194 228.152 352.691C221.572 368.204 231.151 386.324 190.159 386.981L209.879 335.791L173.876 278.186Z" class="" fill="#48baff" fill-opacity="1"></path><path d="M350.333 293.619L342.642 341.359L303.608 350.088L336.399 369.572L342.389 419.566L365.292 385.479L394.314 429.589L402.206 363.489L350.333 293.619Z" class="" fill="#48baff" fill-opacity="1"></path><path d="M449.616 306.393C443.38 346.263 439.613 338.963 410.913 343.313C437.195 347.025 450.33 352.123 449.106 380.488C451.765 360.516 449.944 349.627 485.265 343.822C469.442 337.759 451.551 348.142 449.616 306.392Z" class="" fill="#4a90e2" fill-opacity="1" filter="url(#shadow-16)"></path><path d="M365.136 417.99L340.581 454.537L337.759 488.395L464.798 490.271L484.757 446.195L449.467 466.015L437.894 444.799L423.776 457.404L409.278 456.086L406.347 480.631L365.136 417.991Z" class="" fill="#48baff" fill-opacity="1" filter="url(#shadow-17)"></path><path d="M191.458 424.809L165.554 458.23L155.446 429.506L135.396 489.656L192.406 489.656C189.408 469.249 189.753 447.293 191.458 424.809Z" class="" fill="#48baff" fill-opacity="1" filter="url(#shadow-18)"></path><path d="M79.489 429.649L67.214 489.656L132.759 489.656L124.983 454.668L101.935 465.145L79.489 429.648Z" class="selected" fill="#4a90e2" fill-opacity="1" filter="url(#shadow-19)"></path></g></g></svg>