<svg xmlns="http://www.w3.org/2000/svg" viewBox="0 0 512 512" style="height: 512px; width: 512px;"><defs><filter id="shadow-1" height="300%" width="300%" x="-100%" y="-100%"><feFlood flood-color="rgba(255, 255, 255, 1)" result="flood"></feFlood><feComposite in="flood" in2="SourceGraphic" operator="atop" result="composite"></feComposite><feGaussianBlur in="composite" stdDeviation="15" result="blur"></feGaussianBlur><feOffset dx="0" dy="0" result="offset"></feOffset><feComposite in="SourceGraphic" in2="offset" operator="over"></feComposite></filter><filter id="shadow-17" height="300%" width="300%" x="-100%" y="-100%"><feFlood flood-color="rgba(255, 255, 255, 1)" result="flood"></feFlood><feComposite in="flood" in2="SourceGraphic" operator="atop" result="composite"></feComposite><feGaussianBlur in="composite" stdDeviation="15" result="blur"></feGaussianBlur><feOffset dx="0" dy="0" result="offset"></feOffset><feComposite in="SourceGraphic" in2="offset" operator="over"></feComposite></filter><filter id="shadow-18" height="300%" width="300%" x="-100%" y="-100%"><feFlood flood-color="rgba(255, 255, 255, 1)" result="flood"></feFlood><feComposite in="flood" in2="SourceGraphic" operator="atop" result="composite"></feComposite><feGaussianBlur in="composite" stdDeviation="15" result="blur"></feGaussianBlur><feOffset dx="0" dy="0" result="offset"></feOffset><feComposite in="SourceGraphic" in2="offset" operator="over"></feComposite></filter><filter id="shadow-19" height="300%" width="300%" x="-100%" y="-100%"><feFlood flood-color="rgba(255, 255, 255, 1)" result="flood"></feFlood><feComposite in="flood" in2="SourceGraphic" operator="atop" result="composite"></feComposite><feGaussianBlur in="composite" stdDeviation="15" result="blur"></feGaussianBlur><feOffset dx="0" dy="0" result="offset"></feOffset><feComposite in="SourceGraphic" in2="offset" operator="over"></feComposite></filter><filter id="shadow-20" height="300%" width="300%" x="-100%" y="-100%"><feFlood flood-color="rgba(255, 255, 255, 1)" result="flood"></feFlood><feComposite in="flood" in2="SourceGraphic" operator="atop" result="composite"></feComposite><feGaussianBlur in="composite" stdDeviation="15" result="blur"></feGaussianBlur><feOffset dx="0" dy="0" result="offset"></feOffset><feComposite in="SourceGraphic" in2="offset" operator="over"></feComposite></filter><filter id="shadow-21" height="300%" width="300%" x="-100%" y="-100%"><feFlood flood-color="rgba(255, 255, 255, 1)" result="flood"></feFlood><feComposite in="flood" in2="SourceGraphic" operator="atop" result="composite"></feComposite><feGaussianBlur in="composite" stdDeviation="15" result="blur"></feGaussianBlur><feOffset dx="0" dy="0" result="offset"></feOffset><feComposite in="SourceGraphic" in2="offset" operator="over"></feComposite></filter><filter id="shadow-22" height="300%" width="300%" x="-100%" y="-100%"><feFlood flood-color="rgba(255, 255, 255, 1)" result="flood"></feFlood><feComposite in="flood" in2="SourceGraphic" operator="atop" result="composite"></feComposite><feGaussianBlur in="composite" stdDeviation="15" result="blur"></feGaussianBlur><feOffset dx="0" dy="0" result="offset"></feOffset><feComposite in="SourceGraphic" in2="offset" operator="over"></feComposite></filter><filter id="shadow-23" height="300%" width="300%" x="-100%" y="-100%"><feFlood flood-color="rgba(255, 255, 255, 1)" result="flood"></feFlood><feComposite in="flood" in2="SourceGraphic" operator="atop" result="composite"></feComposite><feGaussianBlur in="composite" stdDeviation="15" result="blur"></feGaussianBlur><feOffset dx="0" dy="0" result="offset"></feOffset><feComposite in="SourceGraphic" in2="offset" operator="over"></feComposite></filter><filter id="shadow-24" height="300%" width="300%" x="-100%" y="-100%"><feFlood flood-color="rgba(255, 255, 255, 1)" result="flood"></feFlood><feComposite in="flood" in2="SourceGraphic" operator="atop" result="composite"></feComposite><feGaussianBlur in="composite" stdDeviation="15" result="blur"></feGaussianBlur><feOffset dx="0" dy="0" result="offset"></feOffset><feComposite in="SourceGraphic" in2="offset" operator="over"></feComposite></filter><filter id="shadow-27" height="300%" width="300%" x="-100%" y="-100%"><feFlood flood-color="rgba(255, 255, 255, 1)" result="flood"></feFlood><feComposite in="flood" in2="SourceGraphic" operator="atop" result="composite"></feComposite><feGaussianBlur in="composite" stdDeviation="15" result="blur"></feGaussianBlur><feOffset dx="0" dy="0" result="offset"></feOffset><feComposite in="SourceGraphic" in2="offset" operator="over"></feComposite></filter></defs><g class="" transform="translate(1,-1)" style=""><g transform="translate(435.2, 435.2) scale(-0.7, -0.7) rotate(-540, 256, 256) skewX(0) skewY(0)"><path d="M183.188 20.107C163.608 85.411 141.545 149.827 152.826 206.234L153.178 208L137.148 288.148L152.514 380.338L234.17 488.36L246.2 404.9L224 416C208 384 208 352 224 336L176 320L176 256C186.394 266.394 210.29 283.534 230.146 294.273L214.582 239.795L215.272 237.723L183.762 228.721L183.187 20.108Z" class="" fill="#bd10e0" fill-opacity="1"></path><path d="M329 22.81L329 228.504L296.73 237.724L297.418 239.794L281.854 294.274C301.71 283.533 325.606 266.393 336 256L336 320L288 336C304 352 304 384 288 416L265.79 404.896L277.838 489.216L359.482 380.356L374.852 288.148L358.822 208L359.174 206.234C370.278 150.712 348.196 87.226 329 22.81Z" class="" fill="#bd10e0" fill-opacity="1"></path><path d="M256 72.56L249 128.56L249 193.46L233.418 240.205L256 319.238L278.582 240.205L263 193.46L263 128.56L256 72.56Z" class="" fill="#f5a623" fill-opacity="1"></path><path d="M281 183.45L281 190.54L291.03 220.63L311 214.926L311 197.604C298.713 191.489 289.03 186.802 281 183.451Z" class="" fill="#f5a623" fill-opacity="1"></path><path d="M231 183.455C223.112 186.745 213.64 191.321 201.676 197.27L201.726 215.133L220.969 220.631L231 190.54L231 183.455Z" class="" fill="#f5a623" fill-opacity="1"></path><path d="M192 288L192 304L224 320L192 288Z" class="" fill="#f5a623" fill-opacity="1"></path><path d="M320 288L288 320L320 304L320 288Z" class="" fill="#f5a623" fill-opacity="1"></path><path d="M25.97 372.31C21.09 395.762 18.607 419.536 21.97 445.182C32.874 439.764 44.256 436.222 55.938 434.275C43.5 417.005 33.542 395.533 25.968 372.309Z" class="" fill="#f5a623" fill-opacity="1"></path><path d="M485.98 372.31C478.405 395.533 468.448 417.005 456.01 434.275C467.69 436.222 479.073 439.765 489.98 445.182C493.34 419.536 490.857 395.762 485.98 372.309Z" class="" fill="#f5a623" fill-opacity="1"></path><path d="M89.97 382.143C86.915 396.825 84.797 411.631 84.46 426.943C89.957 422.679 95.772 418.139 102.6 414.23C97.832 404.12 93.62 393.34 89.97 382.143Z" class="" fill="#bd10e0" fill-opacity="1"></path><path d="M421.98 382.143C418.327 393.339 414.115 404.12 409.348 414.23C416.176 418.14 421.99 422.68 427.486 426.943C427.15 411.631 425.033 396.825 421.979 382.143Z" class="" fill="#bd10e0" fill-opacity="1"></path><path d="M131.61 423.797C123.996 423.937 118.022 426.2 111.994 429.59C106.829 432.494 101.639 436.46 96.224 440.623L202.332 503.813L139.25 424.488C137.162 424.192 135.022 423.832 133.156 423.798C132.633 423.788 132.119 423.788 131.611 423.798Z" class="selected" fill="#f5a623" fill-opacity="1"></path><path d="M378.793 423.797C376.927 423.832 374.786 424.191 372.697 424.487L309.613 503.817L415.725 440.623C410.31 436.46 405.118 432.493 399.953 429.59C393.523 425.974 387.157 423.64 378.793 423.797Z" class="" fill="#f5a623" fill-opacity="1"></path><path d="M77.593 450.487C56.289 450.637 36.808 455.787 18.707 467.934L23.267 487.52L155.834 497.473L94.84 460.846L94.955 460.816L86.033 455.504L86.041 455.562L77.593 450.488Z" class="" fill="#bd10e0" fill-opacity="1"></path><path d="M434.357 450.487L425.907 455.564L425.914 455.504L416.992 460.816L417.109 460.846L356.112 497.476L488.682 487.52L493.239 467.934C475.139 455.786 455.659 450.636 434.356 450.488Z" class="" fill="#bd10e0" fill-opacity="1"></path></g></g></svg>