<svg xmlns="http://www.w3.org/2000/svg" viewBox="0 0 512 512" style="height: 512px; width: 512px;"><defs><filter id="shadow-1" height="300%" width="300%" x="-100%" y="-100%"><feFlood flood-color="rgba(255, 255, 255, 1)" result="flood"></feFlood><feComposite in="flood" in2="SourceGraphic" operator="atop" result="composite"></feComposite><feGaussianBlur in="composite" stdDeviation="15" result="blur"></feGaussianBlur><feOffset dx="0" dy="0" result="offset"></feOffset><feComposite in="SourceGraphic" in2="offset" operator="over"></feComposite></filter><filter id="shadow-2" height="300%" width="300%" x="-100%" y="-100%"><feFlood flood-color="rgba(255, 255, 255, 1)" result="flood"></feFlood><feComposite in="flood" in2="SourceGraphic" operator="atop" result="composite"></feComposite><feGaussianBlur in="composite" stdDeviation="15" result="blur"></feGaussianBlur><feOffset dx="0" dy="0" result="offset"></feOffset><feComposite in="SourceGraphic" in2="offset" operator="over"></feComposite></filter><filter id="shadow-12" height="300%" width="300%" x="-100%" y="-100%"><feFlood flood-color="rgba(255, 255, 255, 1)" result="flood"></feFlood><feComposite in="flood" in2="SourceGraphic" operator="atop" result="composite"></feComposite><feGaussianBlur in="composite" stdDeviation="15" result="blur"></feGaussianBlur><feOffset dx="0" dy="0" result="offset"></feOffset><feComposite in="SourceGraphic" in2="offset" operator="over"></feComposite></filter><filter id="shadow-13" height="300%" width="300%" x="-100%" y="-100%"><feFlood flood-color="rgba(255, 255, 255, 1)" result="flood"></feFlood><feComposite in="flood" in2="SourceGraphic" operator="atop" result="composite"></feComposite><feGaussianBlur in="composite" stdDeviation="15" result="blur"></feGaussianBlur><feOffset dx="0" dy="0" result="offset"></feOffset><feComposite in="SourceGraphic" in2="offset" operator="over"></feComposite></filter><filter id="shadow-14" height="300%" width="300%" x="-100%" y="-100%"><feFlood flood-color="rgba(255, 255, 255, 1)" result="flood"></feFlood><feComposite in="flood" in2="SourceGraphic" operator="atop" result="composite"></feComposite><feGaussianBlur in="composite" stdDeviation="15" result="blur"></feGaussianBlur><feOffset dx="0" dy="0" result="offset"></feOffset><feComposite in="SourceGraphic" in2="offset" operator="over"></feComposite></filter><filter id="shadow-15" height="300%" width="300%" x="-100%" y="-100%"><feFlood flood-color="rgba(255, 255, 255, 1)" result="flood"></feFlood><feComposite in="flood" in2="SourceGraphic" operator="atop" result="composite"></feComposite><feGaussianBlur in="composite" stdDeviation="15" result="blur"></feGaussianBlur><feOffset dx="0" dy="0" result="offset"></feOffset><feComposite in="SourceGraphic" in2="offset" operator="over"></feComposite></filter><filter id="shadow-16" height="300%" width="300%" x="-100%" y="-100%"><feFlood flood-color="rgba(255, 255, 255, 1)" result="flood"></feFlood><feComposite in="flood" in2="SourceGraphic" operator="atop" result="composite"></feComposite><feGaussianBlur in="composite" stdDeviation="15" result="blur"></feGaussianBlur><feOffset dx="0" dy="0" result="offset"></feOffset><feComposite in="SourceGraphic" in2="offset" operator="over"></feComposite></filter><filter id="shadow-17" height="300%" width="300%" x="-100%" y="-100%"><feFlood flood-color="rgba(255, 255, 255, 1)" result="flood"></feFlood><feComposite in="flood" in2="SourceGraphic" operator="atop" result="composite"></feComposite><feGaussianBlur in="composite" stdDeviation="15" result="blur"></feGaussianBlur><feOffset dx="0" dy="0" result="offset"></feOffset><feComposite in="SourceGraphic" in2="offset" operator="over"></feComposite></filter><filter id="shadow-18" height="300%" width="300%" x="-100%" y="-100%"><feFlood flood-color="rgba(255, 255, 255, 1)" result="flood"></feFlood><feComposite in="flood" in2="SourceGraphic" operator="atop" result="composite"></feComposite><feGaussianBlur in="composite" stdDeviation="15" result="blur"></feGaussianBlur><feOffset dx="0" dy="0" result="offset"></feOffset><feComposite in="SourceGraphic" in2="offset" operator="over"></feComposite></filter><filter id="shadow-19" height="300%" width="300%" x="-100%" y="-100%"><feFlood flood-color="rgba(255, 255, 255, 1)" result="flood"></feFlood><feComposite in="flood" in2="SourceGraphic" operator="atop" result="composite"></feComposite><feGaussianBlur in="composite" stdDeviation="15" result="blur"></feGaussianBlur><feOffset dx="0" dy="0" result="offset"></feOffset><feComposite in="SourceGraphic" in2="offset" operator="over"></feComposite></filter><filter id="shadow-20" height="300%" width="300%" x="-100%" y="-100%"><feFlood flood-color="rgba(255, 255, 255, 1)" result="flood"></feFlood><feComposite in="flood" in2="SourceGraphic" operator="atop" result="composite"></feComposite><feGaussianBlur in="composite" stdDeviation="15" result="blur"></feGaussianBlur><feOffset dx="0" dy="0" result="offset"></feOffset><feComposite in="SourceGraphic" in2="offset" operator="over"></feComposite></filter><filter id="shadow-21" height="300%" width="300%" x="-100%" y="-100%"><feFlood flood-color="rgba(255, 255, 255, 1)" result="flood"></feFlood><feComposite in="flood" in2="SourceGraphic" operator="atop" result="composite"></feComposite><feGaussianBlur in="composite" stdDeviation="15" result="blur"></feGaussianBlur><feOffset dx="0" dy="0" result="offset"></feOffset><feComposite in="SourceGraphic" in2="offset" operator="over"></feComposite></filter><filter id="shadow-22" height="300%" width="300%" x="-100%" y="-100%"><feFlood flood-color="rgba(255, 255, 255, 1)" result="flood"></feFlood><feComposite in="flood" in2="SourceGraphic" operator="atop" result="composite"></feComposite><feGaussianBlur in="composite" stdDeviation="15" result="blur"></feGaussianBlur><feOffset dx="0" dy="0" result="offset"></feOffset><feComposite in="SourceGraphic" in2="offset" operator="over"></feComposite></filter><filter id="shadow-23" height="300%" width="300%" x="-100%" y="-100%"><feFlood flood-color="rgba(255, 255, 255, 1)" result="flood"></feFlood><feComposite in="flood" in2="SourceGraphic" operator="atop" result="composite"></feComposite><feGaussianBlur in="composite" stdDeviation="15" result="blur"></feGaussianBlur><feOffset dx="0" dy="0" result="offset"></feOffset><feComposite in="SourceGraphic" in2="offset" operator="over"></feComposite></filter><filter id="shadow-24" height="300%" width="300%" x="-100%" y="-100%"><feFlood flood-color="rgba(255, 255, 255, 1)" result="flood"></feFlood><feComposite in="flood" in2="SourceGraphic" operator="atop" result="composite"></feComposite><feGaussianBlur in="composite" stdDeviation="15" result="blur"></feGaussianBlur><feOffset dx="0" dy="0" result="offset"></feOffset><feComposite in="SourceGraphic" in2="offset" operator="over"></feComposite></filter><filter id="shadow-27" height="300%" width="300%" x="-100%" y="-100%"><feFlood flood-color="rgba(255, 255, 255, 1)" result="flood"></feFlood><feComposite in="flood" in2="SourceGraphic" operator="atop" result="composite"></feComposite><feGaussianBlur in="composite" stdDeviation="15" result="blur"></feGaussianBlur><feOffset dx="0" dy="0" result="offset"></feOffset><feComposite in="SourceGraphic" in2="offset" operator="over"></feComposite></filter></defs><g class="" transform="translate(-3,-3)" style=""><g transform="translate(435.2, 435.2) scale(-0.7, -0.7) rotate(-540, 256, 256) skewX(0) skewY(0)"><path d="M197.584 23.28C179.3 23.446 163.184 27.658 149.096 35.565C120.92 51.38 102.008 80.7 87.62 117.445C86.983 119.068 86.366 120.727 85.746 122.381C91.276 124.715 96.854 126.933 102.476 129.035C103.097 127.354 103.732 125.678 104.381 124.007C117.993 89.25 135.081 64.072 157.905 51.261C169.318 44.856 182.451 41.224 198.042 41.125C213.634 41.025 231.682 44.46 252.926 52.185L256 53.3L259.076 52.184C301.562 36.734 331.271 38.449 354.096 51.26C376.92 64.07 394.008 89.25 407.619 124.006C408.264 125.656 408.895 127.344 409.524 129.034C415.146 126.932 420.724 124.714 426.254 122.381C425.634 120.728 425.016 119.069 424.38 117.445C409.992 80.702 391.08 51.38 362.904 35.565C335.38 20.117 300.046 18.895 256 34.27C234.498 26.764 215.023 23.12 197.584 23.28Z" class="" fill="#f5a623" fill-opacity="1" filter="url(#shadow-2)"></path><path d="M181.439 108.63C176.669 114.076 172.249 120.11 168.171 126.698C164.516 132.603 161.171 138.96 158.134 145.708L158.294 145.743C158.529 145.738 158.764 145.725 158.999 145.725C163.757 145.725 168.456 146.766 172.769 148.775C189.128 151.918 205.653 154.128 222.263 155.395C207.093 139.835 193.213 123.255 181.438 108.631Z" class="" fill="#4a4a4a" fill-opacity="1"></path><path d="M338.913 119.282C329.366 128.879 321.6 140.044 315.837 152.622C323.666 151.551 331.464 150.269 339.224 148.776C343.538 146.766 348.24 145.725 352.999 145.726C353.235 145.726 353.469 145.738 353.704 145.743L353.864 145.708C350.828 138.96 347.482 132.603 343.827 126.698C342.264 124.177 340.625 121.704 338.913 119.282Z" class="" fill="#4a4a4a" fill-opacity="1"></path><path d="M37.727 138.725L60.067 161.065L67.512 138.725Z" class="" fill="#4a4a4a" fill-opacity="1"></path><path d="M444.487 138.725L451.934 161.065L474.274 138.725Z" class="" fill="#4a4a4a" fill-opacity="1"></path><path d="M85.526 141.61L75.339 172.174C92.706 178.407 110.059 183.738 127.401 188.176C126.495 185.176 126.001 182.006 126.001 178.726C126.001 170.846 128.817 163.582 133.487 157.886C117.209 153.359 101.198 147.925 85.527 141.61Z" class="" fill="#4a4a4a" fill-opacity="1"></path><path d="M426.476 141.61C410.803 147.923 394.789 153.354 378.509 157.877C383.182 163.577 386.001 170.843 386.001 178.725C386.001 182.001 385.509 185.169 384.605 188.165C402.199 183.654 419.571 178.318 436.663 172.175Z" class="" fill="#4a4a4a" fill-opacity="1"></path><path d="M159 163.725C150.61 163.725 144 170.335 144 178.725C144 187.115 150.61 193.725 159 193.725C167.39 193.725 174 187.115 174 178.725C174 170.335 167.39 163.725 159 163.725Z" class="" fill="#4a4a4a" fill-opacity="1"></path><path d="M353 163.725C344.61 163.725 338 170.335 338 178.725C338 187.115 344.61 193.725 353 193.725C361.39 193.725 368 187.115 368 178.725C368 170.335 361.39 163.725 353 163.725Z" class="" fill="#4a4a4a" fill-opacity="1"></path><path d="M321.22 169.909C317.157 170.492 313.087 171.021 309.01 171.494C306.367 181.134 304.74 191.42 304.21 202.302C311.985 201.563 319.742 200.645 327.475 199.55C322.812 193.856 320 186.597 320 178.725C320 175.675 320.43 172.72 321.22 169.909Z" class="" fill="#4a4a4a" fill-opacity="1"></path><path d="M190.787 169.923C191.591 172.787 191.999 175.748 192 178.723C192 186.598 189.187 193.859 184.52 199.553C196.013 201.189 207.559 202.434 219.137 203.283C219.457 196.803 215.732 172.808 215.732 172.808C207.392 172.075 199.074 171.112 190.787 169.922Z" class="" fill="#4a4a4a" fill-opacity="1" filter="url(#shadow-12)"></path><path d="M242.391 174.563L233.747 181.46L247.627 264.725L264.377 264.725L275.4 198.57C264.208 192.27 253.115 183.952 242.39 174.563Z" class="" fill="#f5a623" fill-opacity="1" filter="url(#shadow-13)"></path><path d="M66.28 188.16C51.06 251.557 40.203 326.153 23.23 399.702L21.43 407.506L28.973 410.202C43.435 415.375 57.905 420.526 72.383 425.655C76.615 424.096 80.872 422.606 85.153 421.185C90.267 419.482 95.329 417.865 100.263 416.282C82.775 410.228 63.698 403.452 42.486 395.879C58.5 324.755 69.37 253.65 83.47 194.134C77.711 192.228 71.98 190.236 66.28 188.16Z" class="" fill="#f5a623" fill-opacity="1" filter="url(#shadow-14)"></path><path d="M445.72 188.16C440.02 190.237 434.289 192.228 428.53 194.135C442.63 253.652 453.5 324.755 469.514 395.879C448.302 403.449 429.224 410.227 411.738 416.281C416.671 417.863 421.733 419.481 426.846 421.185C431.127 422.606 435.384 424.096 439.616 425.655C453.161 420.865 467.52 415.739 483.026 410.201L490.57 407.505L488.77 399.701C471.797 326.151 460.94 251.556 445.72 188.161Z" class="" fill="#f5a623" fill-opacity="1" filter="url(#shadow-15)"></path><path d="M140.312 209.854C138.124 225.084 137 241.131 137 257.724C137 305.724 137.646 344.466 151.814 369.26C158.899 381.657 169.034 391.072 185.461 397.917C201.889 404.761 224.751 408.725 256.001 408.725C287.251 408.725 310.113 404.761 326.541 397.917C342.967 391.072 353.101 381.657 360.187 369.26C374.354 344.466 375 305.725 375 257.725C375 241.131 373.876 225.085 371.687 209.855C344.413 215.901 317.119 219.798 289.817 221.565L287.404 236.049C309.009 238.394 333.941 229.056 364.799 217.312L371.199 234.136C363.383 237.111 355.751 240.056 348.251 242.766C352.616 246.373 355.951 251.429 355.951 257.724C355.951 265.924 350.299 272.031 344.071 275.558C337.843 279.084 330.251 280.868 321.976 280.868C313.701 280.868 306.108 279.084 299.88 275.558C293.653 272.03 288 265.923 288 257.723C288 256.541 288.13 255.407 288.35 254.313C287.04 254.207 285.733 254.068 284.43 253.897L279.625 282.722L232.375 282.722L227.57 253.9C226.265 254.068 224.958 254.21 223.65 254.315C223.87 255.409 224 256.543 224 257.725C224 265.925 218.347 272.032 212.12 275.559C205.89 279.085 198.298 280.869 190.023 280.869C181.749 280.869 174.156 279.085 167.928 275.559C161.7 272.031 156.048 265.924 156.048 257.724C156.048 251.429 159.383 246.374 163.748 242.764C156.248 240.057 148.616 237.111 140.798 234.136L147.201 217.312C178.061 229.056 202.991 238.394 224.597 236.048L222.183 221.563C194.883 219.796 167.588 215.899 140.313 209.853Z" class="" fill="#fa1330" fill-opacity="1" filter="url(#shadow-16)"></path><path d="M104.135 216.366C103.915 216.376 103.605 216.581 103.381 216.62C94.163 247.382 97.907 263.738 103.621 283.473L119.001 291.163L119.001 228.545C114.576 222.082 110.603 218.575 107.917 217.321C106.431 216.629 105.301 216.306 104.137 216.367Z" class="" fill="#ee1a33" fill-opacity="1" filter="url(#shadow-17)"></path><path d="M407.865 216.366C406.7 216.306 405.57 216.628 404.085 217.321C401.398 218.575 397.425 222.083 393 228.546L393 291.164L408.38 283.474C414.095 263.739 417.838 247.384 408.62 216.621C408.394 216.581 408.085 216.378 407.865 216.367Z" class="" fill="#ef1f39" fill-opacity="1" filter="url(#shadow-18)"></path><path d="M190.023 252.58C184.503 252.58 179.61 253.96 176.799 255.553C174.776 256.698 174.259 257.498 174.119 257.725C174.259 257.952 174.776 258.752 176.799 259.897C179.609 261.489 184.503 262.87 190.022 262.87C195.542 262.87 200.437 261.49 203.249 259.897C205.271 258.752 205.787 257.952 205.929 257.725C205.787 257.498 205.271 256.698 203.249 255.553C200.437 253.961 195.542 252.581 190.022 252.581Z" class="" fill="#f5a623" fill-opacity="1" filter="url(#shadow-19)"></path><path d="M205.93 257.725C205.985 257.815 206 257.835 206 257.725C206 257.615 205.985 257.635 205.93 257.725Z" class="" fill="#bd10e0" fill-opacity="1" filter="url(#shadow-20)"></path><path d="M174.12 257.725C174.064 257.635 174.05 257.615 174.05 257.725C174.05 257.835 174.064 257.815 174.12 257.725Z" class="" fill="#bd10e0" fill-opacity="1" filter="url(#shadow-21)"></path><path d="M321.977 252.581C316.457 252.581 311.562 253.961 308.75 255.554C306.728 256.699 306.212 257.499 306.07 257.726C306.212 257.953 306.728 258.753 308.75 259.898C311.562 261.49 316.457 262.871 321.977 262.871C327.497 262.871 332.39 261.491 335.201 259.898C337.224 258.753 337.741 257.953 337.881 257.726C337.741 257.499 337.224 256.699 335.201 255.554C332.391 253.962 327.497 252.582 321.978 252.582Z" class="" fill="#f5a623" fill-opacity="1" filter="url(#shadow-22)"></path><path d="M337.881 257.726C337.937 257.816 337.951 257.836 337.951 257.726C337.951 257.616 337.937 257.636 337.881 257.726Z" class="" fill="#bd10e0" fill-opacity="1" filter="url(#shadow-23)"></path><path d="M306.071 257.726C306.016 257.636 306.001 257.616 306.001 257.726C306.001 257.836 306.016 257.816 306.071 257.726Z" class="" fill="#bd10e0" fill-opacity="1" filter="url(#shadow-24)"></path><path d="M215.001 289.726L233.001 289.726C233.001 289.726 233.125 295.846 236.051 301.701C238.978 307.554 243.001 312.726 256.001 312.726C269.001 312.726 273.024 307.554 275.951 301.701C278.877 295.847 279.001 289.726 279.001 289.726L297.001 289.726C297.001 289.726 297.125 299.606 292.051 309.752C286.978 319.899 275.001 330.727 256.001 330.727C237.001 330.727 225.024 319.899 219.951 309.753C214.877 299.607 215.001 289.728 215.001 289.728Z" class="selected" fill="#f5a623" fill-opacity="1"></path><path d="M256.001 342.904C277.139 342.904 298.277 346.997 322.847 355.187L317.155 372.265C270.295 356.645 241.708 356.645 194.847 372.265L189.155 355.187C213.725 346.997 234.863 342.904 256.001 342.904Z" class="" fill="#f5a623" fill-opacity="1"></path><path d="M161.757 405.578C161.342 406.102 160.909 406.612 160.46 407.108C155.337 412.718 148.75 416.798 141.404 420.336C126.712 427.409 108.561 432.36 90.846 438.266C73.13 444.17 55.996 451.02 44.026 460.33C34.296 467.895 27.891 476.503 25.806 488.725L173.81 488.725C186.4 482.215 197.348 476.789 204.363 471.065C211.753 465.035 215.117 459.875 214.998 449.833L232.998 449.618C233.178 464.855 225.8 476.803 215.742 485.01C214.139 486.311 212.486 487.55 210.789 488.725L301.209 488.725C299.511 487.55 297.859 486.311 296.255 485.01C286.197 476.803 278.819 464.855 278.999 449.618L296.999 449.833C296.879 459.875 300.245 465.036 307.634 471.065C314.649 476.789 325.596 482.215 338.187 488.725L486.194 488.725C484.108 476.503 477.702 467.895 467.974 460.329C456.004 451.019 438.869 444.169 421.154 438.263C403.438 432.358 385.287 427.407 370.594 420.333C363.249 416.797 356.662 412.715 351.54 407.105C351.091 406.61 350.659 406.099 350.244 405.575C345.197 408.969 339.611 411.97 333.461 414.533C313.889 422.688 288.751 426.723 256.001 426.723C223.251 426.723 198.113 422.688 178.541 414.533C172.391 411.97 166.804 408.969 161.757 405.576Z" class="" fill="#e9273e" fill-opacity="1" filter="url(#shadow-27)"></path></g></g></svg>