<svg xmlns="http://www.w3.org/2000/svg" viewBox="0 0 512 512" style="height: 512px; width: 512px;"><defs><filter id="shadow-1" height="300%" width="300%" x="-100%" y="-100%"><feFlood flood-color="rgba(255, 255, 255, 1)" result="flood"></feFlood><feComposite in="flood" in2="SourceGraphic" operator="atop" result="composite"></feComposite><feGaussianBlur in="composite" stdDeviation="15" result="blur"></feGaussianBlur><feOffset dx="0" dy="0" result="offset"></feOffset><feComposite in="SourceGraphic" in2="offset" operator="over"></feComposite></filter><filter id="shadow-16" height="300%" width="300%" x="-100%" y="-100%"><feFlood flood-color="rgba(255, 255, 255, 1)" result="flood"></feFlood><feComposite in="flood" in2="SourceGraphic" operator="atop" result="composite"></feComposite><feGaussianBlur in="composite" stdDeviation="15" result="blur"></feGaussianBlur><feOffset dx="0" dy="0" result="offset"></feOffset><feComposite in="SourceGraphic" in2="offset" operator="over"></feComposite></filter><filter id="shadow-17" height="300%" width="300%" x="-100%" y="-100%"><feFlood flood-color="rgba(255, 255, 255, 1)" result="flood"></feFlood><feComposite in="flood" in2="SourceGraphic" operator="atop" result="composite"></feComposite><feGaussianBlur in="composite" stdDeviation="15" result="blur"></feGaussianBlur><feOffset dx="0" dy="0" result="offset"></feOffset><feComposite in="SourceGraphic" in2="offset" operator="over"></feComposite></filter><filter id="shadow-18" height="300%" width="300%" x="-100%" y="-100%"><feFlood flood-color="rgba(255, 255, 255, 1)" result="flood"></feFlood><feComposite in="flood" in2="SourceGraphic" operator="atop" result="composite"></feComposite><feGaussianBlur in="composite" stdDeviation="15" result="blur"></feGaussianBlur><feOffset dx="0" dy="0" result="offset"></feOffset><feComposite in="SourceGraphic" in2="offset" operator="over"></feComposite></filter><filter id="shadow-19" height="300%" width="300%" x="-100%" y="-100%"><feFlood flood-color="rgba(255, 255, 255, 1)" result="flood"></feFlood><feComposite in="flood" in2="SourceGraphic" operator="atop" result="composite"></feComposite><feGaussianBlur in="composite" stdDeviation="15" result="blur"></feGaussianBlur><feOffset dx="0" dy="0" result="offset"></feOffset><feComposite in="SourceGraphic" in2="offset" operator="over"></feComposite></filter><filter id="shadow-20" height="300%" width="300%" x="-100%" y="-100%"><feFlood flood-color="rgba(255, 255, 255, 1)" result="flood"></feFlood><feComposite in="flood" in2="SourceGraphic" operator="atop" result="composite"></feComposite><feGaussianBlur in="composite" stdDeviation="15" result="blur"></feGaussianBlur><feOffset dx="0" dy="0" result="offset"></feOffset><feComposite in="SourceGraphic" in2="offset" operator="over"></feComposite></filter><filter id="shadow-21" height="300%" width="300%" x="-100%" y="-100%"><feFlood flood-color="rgba(255, 255, 255, 1)" result="flood"></feFlood><feComposite in="flood" in2="SourceGraphic" operator="atop" result="composite"></feComposite><feGaussianBlur in="composite" stdDeviation="15" result="blur"></feGaussianBlur><feOffset dx="0" dy="0" result="offset"></feOffset><feComposite in="SourceGraphic" in2="offset" operator="over"></feComposite></filter><filter id="shadow-22" height="300%" width="300%" x="-100%" y="-100%"><feFlood flood-color="rgba(255, 255, 255, 1)" result="flood"></feFlood><feComposite in="flood" in2="SourceGraphic" operator="atop" result="composite"></feComposite><feGaussianBlur in="composite" stdDeviation="15" result="blur"></feGaussianBlur><feOffset dx="0" dy="0" result="offset"></feOffset><feComposite in="SourceGraphic" in2="offset" operator="over"></feComposite></filter><filter id="shadow-23" height="300%" width="300%" x="-100%" y="-100%"><feFlood flood-color="rgba(255, 255, 255, 1)" result="flood"></feFlood><feComposite in="flood" in2="SourceGraphic" operator="atop" result="composite"></feComposite><feGaussianBlur in="composite" stdDeviation="15" result="blur"></feGaussianBlur><feOffset dx="0" dy="0" result="offset"></feOffset><feComposite in="SourceGraphic" in2="offset" operator="over"></feComposite></filter><filter id="shadow-24" height="300%" width="300%" x="-100%" y="-100%"><feFlood flood-color="rgba(255, 255, 255, 1)" result="flood"></feFlood><feComposite in="flood" in2="SourceGraphic" operator="atop" result="composite"></feComposite><feGaussianBlur in="composite" stdDeviation="15" result="blur"></feGaussianBlur><feOffset dx="0" dy="0" result="offset"></feOffset><feComposite in="SourceGraphic" in2="offset" operator="over"></feComposite></filter><filter id="shadow-27" height="300%" width="300%" x="-100%" y="-100%"><feFlood flood-color="rgba(255, 255, 255, 1)" result="flood"></feFlood><feComposite in="flood" in2="SourceGraphic" operator="atop" result="composite"></feComposite><feGaussianBlur in="composite" stdDeviation="15" result="blur"></feGaussianBlur><feOffset dx="0" dy="0" result="offset"></feOffset><feComposite in="SourceGraphic" in2="offset" operator="over"></feComposite></filter></defs><g class="" transform="translate(0,-4)" style=""><g transform="translate(435.2, 435.2) scale(-0.7, -0.7) rotate(-540, 256, 256) skewX(0) skewY(0)"><path d="M256.717 15.525C256.717 15.525 222.332 71.679 222.332 90.668C222.332 103.48 227.395 113.036 234.768 119.168C240.401 123.991 247.664 126.968 255.664 127.208C273.199 128.108 291.1 116.342 291.1 90.668C291.102 71.675 256.717 15.525 256.717 15.525Z" class="" fill="#f5a623" fill-opacity="1"></path><path d="M206.17 79.94C182.308 89.76 165.835 107.856 153.67 132.596C135.652 169.241 128.796 221.128 128.135 279.182L190.815 279.182C188.021 293.652 186.868 309.908 186.745 327.125C185.05 341.692 195.689 403.572 195.689 403.572C195.689 403.572 225.945 353.54 231.425 337.289C237.578 361.289 254.245 405.966 254.245 405.966C254.245 405.966 270.751 361.726 276.975 337.642C282.771 354.259 312.593 403.572 312.593 403.572C312.593 403.572 323.54 339.91 321.458 326.532C321.311 309.535 320.154 293.485 317.391 279.182L379.547 279.182C378.885 221.127 372.029 169.24 354.011 132.595C342.971 110.143 328.381 93.165 307.946 82.875C308.682 86.391 309.053 89.974 309.053 93.567C309.053 122.37 285.503 145.921 256.699 145.921C227.896 145.921 204.346 122.371 204.346 93.567C204.346 88.857 204.986 84.29 206.166 79.94Z" class="" fill="#d0021b" fill-opacity="1"></path><path d="M158.275 84.87C157.145 84.855 156.015 84.855 154.891 84.87C68.12 86.09 -3.26 175.69 25.03 269.714C37.386 310.778 97.88 337.144 129.293 319.942C70.083 320.042 52.495 255.722 70.805 211.107C81.102 186.017 98.23 170.534 121.537 167.065C125.463 151.69 130.499 137.365 136.897 124.352C144.314 109.272 153.777 96.026 165.385 85.16C163.005 84.998 160.635 84.9 158.275 84.87Z" class="" fill="#f5a623" fill-opacity="1"></path><path d="M351.561 84.87C348.548 84.907 345.516 85.06 342.471 85.316C354.001 96.152 363.407 109.343 370.786 124.35C377.144 137.28 382.156 151.506 386.071 166.768C410.518 169.56 428.409 185.22 439.031 211.105C457.341 255.719 439.751 320.04 380.541 319.941C411.954 337.145 472.451 310.778 484.808 269.714C513.098 175.69 441.718 86.092 354.946 84.872C353.818 84.857 352.69 84.857 351.562 84.872Z" class="" fill="#f5a623" fill-opacity="1"></path><path d="M325.624 165.717C336.959 170.082 345.004 181.071 345.004 193.943C345.004 210.647 331.464 224.187 314.764 224.187C299.417 224.187 286.747 212.753 284.79 197.939C305.545 192.433 318.25 180.927 325.623 165.716Z" class="" fill="#f5a623" fill-opacity="1"></path><path d="M182.062 165.727C189.442 180.939 202.152 192.444 222.92 197.945C220.96 212.755 208.29 224.188 192.947 224.188C176.247 224.188 162.705 210.648 162.705 193.943C162.705 181.078 170.74 170.098 182.063 165.727Z" class="" fill="#f5a623" fill-opacity="1"></path><path d="M290.542 240.24L253.844 316.285L217.144 240.242L253.842 265.385L290.542 240.24Z" class="selected" fill="#f5a623" fill-opacity="1"></path><path d="M170.483 360.002C170.483 360.002 118.747 432.639 114.293 449.272C102.483 493.34 163.427 506.779 174.513 465.408C178.968 448.778 170.483 360.002 170.483 360.002Z" class="" fill="#f5a623" fill-opacity="1"></path><path d="M335.81 360.002C335.81 360.002 327.322 448.778 331.777 465.408C342.863 506.778 403.81 493.34 392 449.271C387.545 432.641 335.81 360.003 335.81 360.003Z" class="" fill="#f5a623" fill-opacity="1"></path><path d="M228.14 383.73C228.14 383.73 198.75 442.712 197.416 455.365C193.878 488.892 239.911 491.675 243.232 460.201C244.568 447.549 228.142 383.731 228.142 383.731Z" class="" fill="#f5a623" fill-opacity="1"></path><path d="M279.928 383.73C279.928 383.73 263.498 447.548 264.834 460.2C268.154 491.675 314.19 488.892 310.652 455.365C309.319 442.712 279.928 383.729 279.928 383.729Z" class="" fill="#f5a623" fill-opacity="1"></path></g></g></svg>