<svg xmlns="http://www.w3.org/2000/svg" viewBox="0 0 512 512" style="height: 512px; width: 512px;"><defs><filter id="shadow-1" height="300%" width="300%" x="-100%" y="-100%"><feFlood flood-color="rgba(255, 255, 255, 1)" result="flood"></feFlood><feComposite in="flood" in2="SourceGraphic" operator="atop" result="composite"></feComposite><feGaussianBlur in="composite" stdDeviation="15" result="blur"></feGaussianBlur><feOffset dx="0" dy="0" result="offset"></feOffset><feComposite in="SourceGraphic" in2="offset" operator="over"></feComposite></filter><filter id="shadow-16" height="300%" width="300%" x="-100%" y="-100%"><feFlood flood-color="rgba(255, 255, 255, 1)" result="flood"></feFlood><feComposite in="flood" in2="SourceGraphic" operator="atop" result="composite"></feComposite><feGaussianBlur in="composite" stdDeviation="15" result="blur"></feGaussianBlur><feOffset dx="0" dy="0" result="offset"></feOffset><feComposite in="SourceGraphic" in2="offset" operator="over"></feComposite></filter><filter id="shadow-17" height="300%" width="300%" x="-100%" y="-100%"><feFlood flood-color="rgba(255, 255, 255, 1)" result="flood"></feFlood><feComposite in="flood" in2="SourceGraphic" operator="atop" result="composite"></feComposite><feGaussianBlur in="composite" stdDeviation="15" result="blur"></feGaussianBlur><feOffset dx="0" dy="0" result="offset"></feOffset><feComposite in="SourceGraphic" in2="offset" operator="over"></feComposite></filter><filter id="shadow-18" height="300%" width="300%" x="-100%" y="-100%"><feFlood flood-color="rgba(255, 255, 255, 1)" result="flood"></feFlood><feComposite in="flood" in2="SourceGraphic" operator="atop" result="composite"></feComposite><feGaussianBlur in="composite" stdDeviation="15" result="blur"></feGaussianBlur><feOffset dx="0" dy="0" result="offset"></feOffset><feComposite in="SourceGraphic" in2="offset" operator="over"></feComposite></filter><filter id="shadow-19" height="300%" width="300%" x="-100%" y="-100%"><feFlood flood-color="rgba(255, 255, 255, 1)" result="flood"></feFlood><feComposite in="flood" in2="SourceGraphic" operator="atop" result="composite"></feComposite><feGaussianBlur in="composite" stdDeviation="15" result="blur"></feGaussianBlur><feOffset dx="0" dy="0" result="offset"></feOffset><feComposite in="SourceGraphic" in2="offset" operator="over"></feComposite></filter><filter id="shadow-20" height="300%" width="300%" x="-100%" y="-100%"><feFlood flood-color="rgba(255, 255, 255, 1)" result="flood"></feFlood><feComposite in="flood" in2="SourceGraphic" operator="atop" result="composite"></feComposite><feGaussianBlur in="composite" stdDeviation="15" result="blur"></feGaussianBlur><feOffset dx="0" dy="0" result="offset"></feOffset><feComposite in="SourceGraphic" in2="offset" operator="over"></feComposite></filter><filter id="shadow-21" height="300%" width="300%" x="-100%" y="-100%"><feFlood flood-color="rgba(255, 255, 255, 1)" result="flood"></feFlood><feComposite in="flood" in2="SourceGraphic" operator="atop" result="composite"></feComposite><feGaussianBlur in="composite" stdDeviation="15" result="blur"></feGaussianBlur><feOffset dx="0" dy="0" result="offset"></feOffset><feComposite in="SourceGraphic" in2="offset" operator="over"></feComposite></filter><filter id="shadow-22" height="300%" width="300%" x="-100%" y="-100%"><feFlood flood-color="rgba(255, 255, 255, 1)" result="flood"></feFlood><feComposite in="flood" in2="SourceGraphic" operator="atop" result="composite"></feComposite><feGaussianBlur in="composite" stdDeviation="15" result="blur"></feGaussianBlur><feOffset dx="0" dy="0" result="offset"></feOffset><feComposite in="SourceGraphic" in2="offset" operator="over"></feComposite></filter><filter id="shadow-23" height="300%" width="300%" x="-100%" y="-100%"><feFlood flood-color="rgba(255, 255, 255, 1)" result="flood"></feFlood><feComposite in="flood" in2="SourceGraphic" operator="atop" result="composite"></feComposite><feGaussianBlur in="composite" stdDeviation="15" result="blur"></feGaussianBlur><feOffset dx="0" dy="0" result="offset"></feOffset><feComposite in="SourceGraphic" in2="offset" operator="over"></feComposite></filter><filter id="shadow-24" height="300%" width="300%" x="-100%" y="-100%"><feFlood flood-color="rgba(255, 255, 255, 1)" result="flood"></feFlood><feComposite in="flood" in2="SourceGraphic" operator="atop" result="composite"></feComposite><feGaussianBlur in="composite" stdDeviation="15" result="blur"></feGaussianBlur><feOffset dx="0" dy="0" result="offset"></feOffset><feComposite in="SourceGraphic" in2="offset" operator="over"></feComposite></filter><filter id="shadow-27" height="300%" width="300%" x="-100%" y="-100%"><feFlood flood-color="rgba(255, 255, 255, 1)" result="flood"></feFlood><feComposite in="flood" in2="SourceGraphic" operator="atop" result="composite"></feComposite><feGaussianBlur in="composite" stdDeviation="15" result="blur"></feGaussianBlur><feOffset dx="0" dy="0" result="offset"></feOffset><feComposite in="SourceGraphic" in2="offset" operator="over"></feComposite></filter></defs><g class="" transform="translate(-2,-4)" style=""><g transform="translate(435.2, 435.2) scale(-0.7, -0.7) rotate(-540, 256, 256) skewX(0) skewY(0)"><path d="M170.2 40.98C166.7 45.26 156.9 57.9 144.8 75.3C145.1 75.44 145.5 75.59 145.9 75.76C152.7 78.78 156.3 85.42 157.4 91.86C163.7 77.9 172.1 65.24 176.4 50.13C177.4 45.63 173.4 42.99 170.2 40.98Z" class="selected" fill="#48baff" fill-opacity="1"></path><path d="M135.9 56.66C127.5 65.56 117.3 76.7 106.2 89.81C78.14 122.9 48.8 164.9 42.43 195.1C37.58 218.1 46.43 242.4 56.91 268.5C67.39 294.6 79.48 322.3 75.73 352.1C66.94 401.4 37.73 441.3 15.79 470L15.79 488.7C15.79 488.7 39.43 477.9 58.77 470C103.9 453.6 114.1 447.1 151.3 469.7C164.1 477.5 178.3 486.5 195.8 487C215.2 487.5 231.6 478.1 246.5 470C261.5 461.8 275 455 288 455.7C297.1 456.2 314.8 461.9 327.2 470.7C367.8 499.3 395.4 470.4 435.1 466.9C451.1 466.1 472.1 467.7 493.3 470.3L493.3 392.2L479.2 392.2L479.2 271.5L493.3 277L493.3 260L479.2 254.5L479.2 172.6L493.3 177.7L493.3 160.9L479.2 155.8L479.2 106.3L463.3 106.3L463.3 150.1L421.1 134.9L415.6 149.8L463.3 167L463.3 248.3L395 221.8L389.2 236.6L463.3 265.4L463.3 392.2L378.2 392.2L371.6 384.4L371.6 281L408.8 294.4L414.1 279.5L371.6 264.2L371.6 201.5L355.7 201.5L355.7 258.5L308.3 241.3L302.9 256.3L355.7 275.3L355.7 370.5L313.6 370.5L256.7 330.1L247.5 343.1L286.1 370.5C308.3 397.7 328.8 426 340.6 457.7C339.1 456.8 337.5 455.9 335.9 455C321.7 447.1 304.7 438.6 289 437.7C269.5 436.7 253 446 238 454.1C222.9 462.3 209.3 469.4 196.2 469C186.7 468.7 177 464 166.5 457.8C168.1 455 170 452.4 172.1 450.1C176.3 445.4 182 441.9 188.3 440.8C188.9 437.2 189.6 433.3 190.3 429C193.2 411.4 195.5 391.2 195.7 374.5C193.5 375.8 191.1 376.8 188.4 377.3C179.4 379.1 170.7 375.2 164.5 369.2C158.3 363.1 153.9 354.7 152 345C150.1 335.3 150.9 325.9 154.4 317.9C157.9 310 164.4 303.1 173.4 301.3C173.6 301.3 173.8 301.2 174 301.2C169.1 292.4 163.7 283.6 158.2 274.6C155.1 269.6 152.1 264.6 149.1 259.4C151.7 268.8 151.7 280.4 148.7 288.5C145.7 296.1 139.7 302.8 131.2 304.7C130.1 304.9 129 305.1 127.9 305.2C132.2 316.5 135.3 328.4 135.9 341C136.5 353.7 134.7 368.3 131.8 383.4C135 382.4 138.4 382.1 141.8 382.6C150.9 383.9 157.8 390.5 161.7 398.2C165.5 405.9 166.8 415.3 165.4 425.1C162.5 443.1 132 445.2 140.9 437.6C143.9 434.4 146.7 429 147.6 422.5C148.5 416.1 147.5 410.1 145.5 406.2C141.8 398.8 136 399.5 131.5 404.2C128.5 407.4 125.8 412.9 124.8 419.3C123.9 425.7 124.9 431.7 126.9 435.6C129.6 439.2 110.5 436.4 98.62 438.5C100 433.9 101.5 429.1 103 424.1C111.2 396.4 118.9 362.5 117.9 341.8C116.9 319 104.5 296.3 91.88 272.4C79.26 248.5 66.36 223.2 68.83 194.3C71.73 160.2 94.38 119.5 115.9 86.11C122.9 75.26 129.8 65.26 135.9 56.66Z" class="" fill="#48baff" fill-opacity="1"></path><path d="M137.6 92.32C133.8 93.59 130.8 97.87 129.4 100.8C128.3 104.5 126.3 109.8 128.9 113.2C132.6 112.5 136.3 108 137.9 104.5C139 101.5 141.2 92.02 137.6 92.32Z" class="" fill="#4a90e2" fill-opacity="1"></path><path d="M114.2 123.8C100 149.4 88.44 176.2 86.77 195.9C85.32 212.8 90.92 229.5 99.1 246.8C102.4 240.7 107.8 235.6 115 233.9C125.9 233.1 133.3 236.4 140 243.1C135.5 234.7 131.5 226 128.2 216.9C125.6 217.8 122.8 218.3 119.9 218.1C111.7 217.6 105.3 212.2 101.6 205.8C97.98 199.4 96.37 191.5 97 183.1C97.63 174.7 100.4 167.1 105 161.1C109.6 155.3 116.8 150.8 125 151.3C126.1 151.4 127.3 151.5 128.3 151.8C131.3 144.5 135 136.7 138.9 128.7C133.6 131.3 127.2 132.2 121.4 129.6C118.4 128.2 116.1 126.2 114.2 123.8Z" class="" fill="#4a90e2" fill-opacity="1"></path><path d="M123.6 169.2C117.9 171 115.4 179 115 184.2C114.6 189.3 115.7 193.9 117.3 196.7C119.9 201.5 123.5 199.9 125.7 197.2C127.7 194.6 129.5 190.2 129.9 185.2C129.8 180.9 129.6 169.9 123.6 169.2Z" class="" fill="#48baff" fill-opacity="1"></path><path d="M120.3 251.5C111.8 253.5 112.2 265.9 113.7 271.5C115.2 277 119.8 288.6 127.2 287.3C133.9 283.5 133.9 273.4 132.5 267.2C130.6 261.7 127.2 251.6 120.3 251.5Z" class="" fill="#48baff" fill-opacity="1"></path><path d="M178.5 319.2C168.4 319.8 168.4 334.6 169.6 341.5C171.4 348 176.4 361.1 184.9 359.6C193.2 356.2 193.5 344 192.2 337.1C190.3 330.3 186.5 318.7 178.5 319.2Z" class="" fill="#4a90e2" fill-opacity="1"></path></g></g></svg>