<svg xmlns="http://www.w3.org/2000/svg" viewBox="0 0 512 512" style="height: 512px; width: 512px;"><defs><filter id="shadow-1" height="300%" width="300%" x="-100%" y="-100%"><feFlood flood-color="rgba(255, 255, 255, 1)" result="flood"></feFlood><feComposite in="flood" in2="SourceGraphic" operator="atop" result="composite"></feComposite><feGaussianBlur in="composite" stdDeviation="15" result="blur"></feGaussianBlur><feOffset dx="0" dy="0" result="offset"></feOffset><feComposite in="SourceGraphic" in2="offset" operator="over"></feComposite></filter><filter id="shadow-12" height="300%" width="300%" x="-100%" y="-100%"><feFlood flood-color="rgba(255, 255, 255, 1)" result="flood"></feFlood><feComposite in="flood" in2="SourceGraphic" operator="atop" result="composite"></feComposite><feGaussianBlur in="composite" stdDeviation="15" result="blur"></feGaussianBlur><feOffset dx="0" dy="0" result="offset"></feOffset><feComposite in="SourceGraphic" in2="offset" operator="over"></feComposite></filter><filter id="shadow-13" height="300%" width="300%" x="-100%" y="-100%"><feFlood flood-color="rgba(255, 255, 255, 1)" result="flood"></feFlood><feComposite in="flood" in2="SourceGraphic" operator="atop" result="composite"></feComposite><feGaussianBlur in="composite" stdDeviation="15" result="blur"></feGaussianBlur><feOffset dx="0" dy="0" result="offset"></feOffset><feComposite in="SourceGraphic" in2="offset" operator="over"></feComposite></filter><filter id="shadow-14" height="300%" width="300%" x="-100%" y="-100%"><feFlood flood-color="rgba(255, 255, 255, 1)" result="flood"></feFlood><feComposite in="flood" in2="SourceGraphic" operator="atop" result="composite"></feComposite><feGaussianBlur in="composite" stdDeviation="15" result="blur"></feGaussianBlur><feOffset dx="0" dy="0" result="offset"></feOffset><feComposite in="SourceGraphic" in2="offset" operator="over"></feComposite></filter><filter id="shadow-15" height="300%" width="300%" x="-100%" y="-100%"><feFlood flood-color="rgba(255, 255, 255, 1)" result="flood"></feFlood><feComposite in="flood" in2="SourceGraphic" operator="atop" result="composite"></feComposite><feGaussianBlur in="composite" stdDeviation="15" result="blur"></feGaussianBlur><feOffset dx="0" dy="0" result="offset"></feOffset><feComposite in="SourceGraphic" in2="offset" operator="over"></feComposite></filter><filter id="shadow-16" height="300%" width="300%" x="-100%" y="-100%"><feFlood flood-color="rgba(255, 255, 255, 1)" result="flood"></feFlood><feComposite in="flood" in2="SourceGraphic" operator="atop" result="composite"></feComposite><feGaussianBlur in="composite" stdDeviation="15" result="blur"></feGaussianBlur><feOffset dx="0" dy="0" result="offset"></feOffset><feComposite in="SourceGraphic" in2="offset" operator="over"></feComposite></filter><filter id="shadow-17" height="300%" width="300%" x="-100%" y="-100%"><feFlood flood-color="rgba(255, 255, 255, 1)" result="flood"></feFlood><feComposite in="flood" in2="SourceGraphic" operator="atop" result="composite"></feComposite><feGaussianBlur in="composite" stdDeviation="15" result="blur"></feGaussianBlur><feOffset dx="0" dy="0" result="offset"></feOffset><feComposite in="SourceGraphic" in2="offset" operator="over"></feComposite></filter><filter id="shadow-18" height="300%" width="300%" x="-100%" y="-100%"><feFlood flood-color="rgba(255, 255, 255, 1)" result="flood"></feFlood><feComposite in="flood" in2="SourceGraphic" operator="atop" result="composite"></feComposite><feGaussianBlur in="composite" stdDeviation="15" result="blur"></feGaussianBlur><feOffset dx="0" dy="0" result="offset"></feOffset><feComposite in="SourceGraphic" in2="offset" operator="over"></feComposite></filter><filter id="shadow-19" height="300%" width="300%" x="-100%" y="-100%"><feFlood flood-color="rgba(255, 255, 255, 1)" result="flood"></feFlood><feComposite in="flood" in2="SourceGraphic" operator="atop" result="composite"></feComposite><feGaussianBlur in="composite" stdDeviation="15" result="blur"></feGaussianBlur><feOffset dx="0" dy="0" result="offset"></feOffset><feComposite in="SourceGraphic" in2="offset" operator="over"></feComposite></filter><filter id="shadow-20" height="300%" width="300%" x="-100%" y="-100%"><feFlood flood-color="rgba(255, 255, 255, 1)" result="flood"></feFlood><feComposite in="flood" in2="SourceGraphic" operator="atop" result="composite"></feComposite><feGaussianBlur in="composite" stdDeviation="15" result="blur"></feGaussianBlur><feOffset dx="0" dy="0" result="offset"></feOffset><feComposite in="SourceGraphic" in2="offset" operator="over"></feComposite></filter><filter id="shadow-21" height="300%" width="300%" x="-100%" y="-100%"><feFlood flood-color="rgba(255, 255, 255, 1)" result="flood"></feFlood><feComposite in="flood" in2="SourceGraphic" operator="atop" result="composite"></feComposite><feGaussianBlur in="composite" stdDeviation="15" result="blur"></feGaussianBlur><feOffset dx="0" dy="0" result="offset"></feOffset><feComposite in="SourceGraphic" in2="offset" operator="over"></feComposite></filter><filter id="shadow-22" height="300%" width="300%" x="-100%" y="-100%"><feFlood flood-color="rgba(255, 255, 255, 1)" result="flood"></feFlood><feComposite in="flood" in2="SourceGraphic" operator="atop" result="composite"></feComposite><feGaussianBlur in="composite" stdDeviation="15" result="blur"></feGaussianBlur><feOffset dx="0" dy="0" result="offset"></feOffset><feComposite in="SourceGraphic" in2="offset" operator="over"></feComposite></filter><filter id="shadow-23" height="300%" width="300%" x="-100%" y="-100%"><feFlood flood-color="rgba(255, 255, 255, 1)" result="flood"></feFlood><feComposite in="flood" in2="SourceGraphic" operator="atop" result="composite"></feComposite><feGaussianBlur in="composite" stdDeviation="15" result="blur"></feGaussianBlur><feOffset dx="0" dy="0" result="offset"></feOffset><feComposite in="SourceGraphic" in2="offset" operator="over"></feComposite></filter><filter id="shadow-24" height="300%" width="300%" x="-100%" y="-100%"><feFlood flood-color="rgba(255, 255, 255, 1)" result="flood"></feFlood><feComposite in="flood" in2="SourceGraphic" operator="atop" result="composite"></feComposite><feGaussianBlur in="composite" stdDeviation="15" result="blur"></feGaussianBlur><feOffset dx="0" dy="0" result="offset"></feOffset><feComposite in="SourceGraphic" in2="offset" operator="over"></feComposite></filter><filter id="shadow-27" height="300%" width="300%" x="-100%" y="-100%"><feFlood flood-color="rgba(255, 255, 255, 1)" result="flood"></feFlood><feComposite in="flood" in2="SourceGraphic" operator="atop" result="composite"></feComposite><feGaussianBlur in="composite" stdDeviation="15" result="blur"></feGaussianBlur><feOffset dx="0" dy="0" result="offset"></feOffset><feComposite in="SourceGraphic" in2="offset" operator="over"></feComposite></filter></defs><g class="" transform="translate(-3,-3)" style=""><g transform="translate(435.2, 435.2) scale(-0.7, -0.7) rotate(-540, 256, 256) skewX(0) skewY(0)"><path d="M21.98 21.35C63.71 95.32 121.5 181.9 128.4 271.3L167.8 363.3L230.6 441.8C236.4 447.6 246.1 451 256 451C265.9 451 275.6 447.6 281.4 441.8L344.2 363.3L383.6 271.3C390.5 181.9 448.3 95.33 490 21.35C400.2 67.71 353.6 103.2 312.4 211.2L295.6 204.8C308.6 170.7 322.5 143.3 338.1 120.2L315.1 60.46C289.1 73.48 273 81 256 81C239 81 222.9 73.48 196.9 60.46L173.9 120.2C189.5 143.3 203.4 170.7 216.4 204.8L199.6 211.2C158.4 103.2 111.8 67.71 21.98 21.35Z" class="" fill="#d0021b" fill-opacity="1"></path><path d="M136.9 228.2L158.4 249.6C174.6 265.9 184.8 278.1 194.4 287.6C203.9 297.2 212.8 304.4 228 311.9L233 314.4L233 314.7C246 318.7 246.8 384.5 240 400C235.9 384.4 228.1 371.1 216.6 358.4C212.9 356.5 206.9 353.5 200 349.4C189.1 343.1 176.7 335.3 169 325.6C160.1 314.5 154.4 298.2 150.1 284C145.7 269.8 143.2 257.9 143.2 257.9L136.9 228.2Z" class="" fill="#bd10e0" fill-opacity="1"></path><path d="M375.1 228.2L368.8 257.9C368.8 257.9 366.3 269.8 361.9 284C357.6 298.2 351.9 314.5 343 325.6C335.3 335.3 322.9 343.1 312 349.4C305.1 353.5 299.1 356.6 295.4 358.4C283.9 371.1 276.1 384.4 272 400C265.2 384.5 266 318.7 279 314.7L279 314.4L284 311.9C299.2 304.4 308.1 297.2 317.6 287.6C327.2 278.1 337.4 265.9 353.6 249.6L375.1 228.2Z" class="" fill="#bd10e0" fill-opacity="1"></path><path d="M208 312C201.373 312 196 317.373 196 324C196 330.627 201.373 336 208 336C214.627 336 220 330.627 220 324C220 317.373 214.627 312 208 312Z" class="selected" fill="#f5a623" fill-opacity="1"></path><path d="M304 312C297.373 312 292 317.373 292 324C292 330.627 297.373 336 304 336C310.627 336 316 330.627 316 324C316 317.373 310.627 312 304 312Z" class="" fill="#f5a623" fill-opacity="1"></path><path d="M153 373.7L153 396.8L182.5 433.7C182.6 427 182.8 420.9 183 415.7L183.2 411.4L153 373.7Z" class="" fill="#bd10e0" fill-opacity="1"></path><path d="M359 373.7L328.8 411.4L329 415.7C329.2 420.9 329.4 427 329.5 433.7L359 396.8L359 373.7Z" class="" fill="#bd10e0" fill-opacity="1"></path><path d="M200.6 436.4C200.4 448.6 200.5 461.6 201.3 474C201.8 482.6 202.8 490.3 204 496.6C205.7 492.4 207.5 487.8 209.2 482.8C212.8 471.9 215.4 460.1 216.4 452.9L211.3 446.5L200.6 436.4Z" class="" fill="#d0021b" fill-opacity="1"></path><path d="M311.4 436.4L300.7 446.5L295.6 452.9C296.6 460.1 299.2 471.9 302.8 482.8C304.5 487.8 306.3 492.4 308 496.6C309.2 490.3 310.2 482.6 310.7 474C311.5 461.6 311.6 448.6 311.4 436.4Z" class="" fill="#d0021b" fill-opacity="1"></path><path d="M232.9 464.5C231.6 470.9 229.7 477.8 227.5 484.7C237.4 491.8 246.9 495 256 495C265.1 495 274.6 491.8 284.5 484.7C282.3 477.8 280.4 470.9 279.1 464.5C271.8 467.6 263.9 469 256 469C248.1 469 240.2 467.6 232.9 464.5Z" class="" fill="#bd10e0" fill-opacity="1"></path></g></g></svg>