<svg xmlns="http://www.w3.org/2000/svg" viewBox="0 0 512 512" style="height: 512px; width: 512px;"><defs><filter id="shadow-1" height="300%" width="300%" x="-100%" y="-100%"><feFlood flood-color="rgba(255, 255, 255, 1)" result="flood"></feFlood><feComposite in="flood" in2="SourceGraphic" operator="atop" result="composite"></feComposite><feGaussianBlur in="composite" stdDeviation="15" result="blur"></feGaussianBlur><feOffset dx="0" dy="0" result="offset"></feOffset><feComposite in="SourceGraphic" in2="offset" operator="over"></feComposite></filter><filter id="shadow-16" height="300%" width="300%" x="-100%" y="-100%"><feFlood flood-color="rgba(255, 255, 255, 1)" result="flood"></feFlood><feComposite in="flood" in2="SourceGraphic" operator="atop" result="composite"></feComposite><feGaussianBlur in="composite" stdDeviation="15" result="blur"></feGaussianBlur><feOffset dx="0" dy="0" result="offset"></feOffset><feComposite in="SourceGraphic" in2="offset" operator="over"></feComposite></filter><filter id="shadow-17" height="300%" width="300%" x="-100%" y="-100%"><feFlood flood-color="rgba(255, 255, 255, 1)" result="flood"></feFlood><feComposite in="flood" in2="SourceGraphic" operator="atop" result="composite"></feComposite><feGaussianBlur in="composite" stdDeviation="15" result="blur"></feGaussianBlur><feOffset dx="0" dy="0" result="offset"></feOffset><feComposite in="SourceGraphic" in2="offset" operator="over"></feComposite></filter><filter id="shadow-18" height="300%" width="300%" x="-100%" y="-100%"><feFlood flood-color="rgba(255, 255, 255, 1)" result="flood"></feFlood><feComposite in="flood" in2="SourceGraphic" operator="atop" result="composite"></feComposite><feGaussianBlur in="composite" stdDeviation="15" result="blur"></feGaussianBlur><feOffset dx="0" dy="0" result="offset"></feOffset><feComposite in="SourceGraphic" in2="offset" operator="over"></feComposite></filter><filter id="shadow-19" height="300%" width="300%" x="-100%" y="-100%"><feFlood flood-color="rgba(255, 255, 255, 1)" result="flood"></feFlood><feComposite in="flood" in2="SourceGraphic" operator="atop" result="composite"></feComposite><feGaussianBlur in="composite" stdDeviation="15" result="blur"></feGaussianBlur><feOffset dx="0" dy="0" result="offset"></feOffset><feComposite in="SourceGraphic" in2="offset" operator="over"></feComposite></filter><filter id="shadow-20" height="300%" width="300%" x="-100%" y="-100%"><feFlood flood-color="rgba(255, 255, 255, 1)" result="flood"></feFlood><feComposite in="flood" in2="SourceGraphic" operator="atop" result="composite"></feComposite><feGaussianBlur in="composite" stdDeviation="15" result="blur"></feGaussianBlur><feOffset dx="0" dy="0" result="offset"></feOffset><feComposite in="SourceGraphic" in2="offset" operator="over"></feComposite></filter><filter id="shadow-21" height="300%" width="300%" x="-100%" y="-100%"><feFlood flood-color="rgba(255, 255, 255, 1)" result="flood"></feFlood><feComposite in="flood" in2="SourceGraphic" operator="atop" result="composite"></feComposite><feGaussianBlur in="composite" stdDeviation="15" result="blur"></feGaussianBlur><feOffset dx="0" dy="0" result="offset"></feOffset><feComposite in="SourceGraphic" in2="offset" operator="over"></feComposite></filter><filter id="shadow-22" height="300%" width="300%" x="-100%" y="-100%"><feFlood flood-color="rgba(255, 255, 255, 1)" result="flood"></feFlood><feComposite in="flood" in2="SourceGraphic" operator="atop" result="composite"></feComposite><feGaussianBlur in="composite" stdDeviation="15" result="blur"></feGaussianBlur><feOffset dx="0" dy="0" result="offset"></feOffset><feComposite in="SourceGraphic" in2="offset" operator="over"></feComposite></filter><filter id="shadow-23" height="300%" width="300%" x="-100%" y="-100%"><feFlood flood-color="rgba(255, 255, 255, 1)" result="flood"></feFlood><feComposite in="flood" in2="SourceGraphic" operator="atop" result="composite"></feComposite><feGaussianBlur in="composite" stdDeviation="15" result="blur"></feGaussianBlur><feOffset dx="0" dy="0" result="offset"></feOffset><feComposite in="SourceGraphic" in2="offset" operator="over"></feComposite></filter><filter id="shadow-24" height="300%" width="300%" x="-100%" y="-100%"><feFlood flood-color="rgba(255, 255, 255, 1)" result="flood"></feFlood><feComposite in="flood" in2="SourceGraphic" operator="atop" result="composite"></feComposite><feGaussianBlur in="composite" stdDeviation="15" result="blur"></feGaussianBlur><feOffset dx="0" dy="0" result="offset"></feOffset><feComposite in="SourceGraphic" in2="offset" operator="over"></feComposite></filter><filter id="shadow-27" height="300%" width="300%" x="-100%" y="-100%"><feFlood flood-color="rgba(255, 255, 255, 1)" result="flood"></feFlood><feComposite in="flood" in2="SourceGraphic" operator="atop" result="composite"></feComposite><feGaussianBlur in="composite" stdDeviation="15" result="blur"></feGaussianBlur><feOffset dx="0" dy="0" result="offset"></feOffset><feComposite in="SourceGraphic" in2="offset" operator="over"></feComposite></filter></defs><g class="" transform="translate(-3,-3)" style=""><g transform="translate(435.2, 435.2) scale(-0.7, -0.7) rotate(-540, 256, 256) skewX(0) skewY(0)"><path d="M398.97 17.5C346.105 18.334 265.66 69.43 301.844 173.938C313.931 171.578 326.412 172.18 338.156 175.594C303.386 72.872 379.716 36.877 419.656 45.188C460.356 53.658 477.834 105.865 457 125.968C437.964 144.338 411.705 150.735 395.156 133.718C369.233 107.065 395.109 70.44 433.126 74.75C387.96 50.892 349.699 101.177 373.906 136.156C398.891 172.259 456.566 176.618 482.969 131.156C514.27 77.258 461.215 18.47 401.56 17.5C400.696 17.486 399.831 17.486 398.967 17.5Z" class="selected" fill="#fc88fc" fill-opacity="1"></path><path d="M228.156 19.188C241.783 57.836 223.866 72.19 208.436 91.312C199.37 63.419 175.596 49.485 152.906 49.719C128.336 49.971 105.052 66.807 103.156 100.499C127.812 50.362 191.84 60.614 191 130.625L191.03 130.625C190.634 134.951 190.59 139.64 191 144.75C198.383 140.946 206.345 138.391 214.563 137.187C218.493 136.613 222.413 136.335 226.281 136.375C229.366 136.415 232.445 136.645 235.501 137.063C242.907 98.845 296.561 81.93 272.689 19.188L228.157 19.188Z" class="" fill="#b8e986" fill-opacity="1"></path><path d="M87.47 21C-3.384 49.15 3.057 151.056 67.5 194.53C32.184 214.372 14.417 269.18 51.25 315.656C34.17 264.219 58.82 218.63 97.063 217.75C111.657 204.314 131.105 196.922 151.125 197.437C152.425 191.196 154.493 185.14 157.281 179.407C49.75 184.102 4.483 81.236 87.47 21Z" class="" fill="#50e3c2" fill-opacity="1"></path><path d="M223.906 155.094C221.7 155.146 219.464 155.334 217.25 155.656C190.095 159.646 170.55 182.002 168.344 208.219L167.5 218.124L157.656 216.654C131.683 212.77 105.419 226.952 95.281 252.499C85.144 278.045 94.523 306.363 116.095 321.343L124.25 327L118.125 334.78C101.98 355.395 100.958 384.647 117.905 406.063C134.847 427.468 163.945 433.47 187.687 422.375L196.719 418.155L200.343 427.469C209.895 451.955 235.569 467.599 262.843 463.593C289.863 459.623 309.18 437.603 311.563 411.53L312.468 401.688L322.248 403.125C348.221 407.011 374.485 392.861 384.623 367.312C394.761 341.764 385.351 313.452 363.779 298.469L355.593 292.779L361.78 284.969C378.15 264.372 379.22 234.709 362.188 213.186C345.143 191.649 315.663 185.378 291.938 196.624L282.938 200.904L279.25 191.654C273.763 177.886 263.703 167.061 250.906 160.904C243.159 157.179 234.69 155.196 226.094 155.094C225.364 155.084 224.642 155.074 223.906 155.094Z" class="" fill="#48baff" fill-opacity="1"></path><path d="M424.062 199.594C482.792 226.05 482.38 298.701 412.812 312.656C408.527 312.614 404.245 312.886 400 313.469C404.507 323.014 406.997 333.385 407.313 343.936C463.436 347.039 487.883 408.306 450.063 460.843C510.823 421.565 498.36 351.803 453.563 324.28C512.381 295.717 501.951 203.51 424.063 199.594Z" class="" fill="#f5a623" fill-opacity="1"></path><path d="M234.47 208.03L240.375 248.28C244.855 248.304 249.385 248.804 253.875 249.844L258.969 237.064L276.343 243.938L271.249 256.781C275.159 259.086 278.709 261.793 281.937 264.814L313.874 239.532L325.468 254.189L293.5 279.5C295.725 283.43 297.517 287.589 298.844 291.906L312.656 289.876L315.376 308.344L301.531 310.374C301.503 314.856 300.98 319.32 299.971 323.687L337.907 338.719L331 356.093L293.062 341.03C290.799 344.887 288.116 348.482 285.062 351.75L293.782 362.78L279.125 374.375L270.375 363.312C266.476 365.532 262.347 367.324 258.062 368.656L264 409.094L245.53 411.814L239.594 371.406C235.136 371.394 230.692 370.89 226.344 369.906L221.188 382.906L203.813 376L208.938 363.062C205.035 360.786 201.398 358.082 198.094 355L166.124 380.313L154.531 365.656L186.501 340.344C184.286 336.464 182.495 332.357 181.157 328.094L167.501 330.094L164.781 311.594L178.376 309.594C178.386 305.114 178.882 300.609 179.906 296.124L142.126 281.124L149 263.75L186.78 278.75C189.068 274.847 191.783 271.21 194.875 267.906L186.375 257.156L201.031 245.562L209.563 256.344C213.474 254.124 217.612 252.332 221.907 251L216 210.75L234.47 208.03Z" class="" fill="#b8e986" fill-opacity="1"></path><path d="M238.97 266.906C222.244 267.251 206.65 277.401 200.063 294C191.238 316.032 202.036 341.037 224.125 349.72C246.158 358.544 271.162 347.745 279.845 325.656C288.67 303.623 277.871 278.617 255.781 269.936C250.436 267.814 244.72 266.784 238.971 266.906Z" class="" fill="#ffffff" fill-opacity="1"></path><path d="M50.405 387.78C7.917 401.082 7.315 472.593 60.655 486.125C109.439 498.499 141.477 475.46 155.843 446.155C145.82 445.221 136.023 442.279 127.03 437.5C116.717 456.7 97.285 470.775 66.53 461.563C32.05 451.23 25.348 407.9 50.407 387.78Z" class="" fill="#d0021b" fill-opacity="1"></path><path d="M391.249 392.938C383.043 403.462 372.299 411.501 360.279 416.5C381.125 434.397 388.654 459.88 378.843 494.47L415.749 494.47C426.963 454.24 414.939 417.484 391.249 392.937Z" class="" fill="#9b9b9b" fill-opacity="1"></path></g></g></svg>