<svg xmlns="http://www.w3.org/2000/svg" viewBox="0 0 512 512" style="height: 512px; width: 512px;"><defs><filter id="shadow-1" height="300%" width="300%" x="-100%" y="-100%"><feFlood flood-color="rgba(255, 255, 255, 1)" result="flood"></feFlood><feComposite in="flood" in2="SourceGraphic" operator="atop" result="composite"></feComposite><feGaussianBlur in="composite" stdDeviation="15" result="blur"></feGaussianBlur><feOffset dx="0" dy="0" result="offset"></feOffset><feComposite in="SourceGraphic" in2="offset" operator="over"></feComposite></filter><filter id="shadow-2" height="300%" width="300%" x="-100%" y="-100%"><feFlood flood-color="rgba(255, 255, 255, 1)" result="flood"></feFlood><feComposite in="flood" in2="SourceGraphic" operator="atop" result="composite"></feComposite><feGaussianBlur in="composite" stdDeviation="15" result="blur"></feGaussianBlur><feOffset dx="0" dy="0" result="offset"></feOffset><feComposite in="SourceGraphic" in2="offset" operator="over"></feComposite></filter><filter id="shadow-12" height="300%" width="300%" x="-100%" y="-100%"><feFlood flood-color="rgba(255, 255, 255, 1)" result="flood"></feFlood><feComposite in="flood" in2="SourceGraphic" operator="atop" result="composite"></feComposite><feGaussianBlur in="composite" stdDeviation="15" result="blur"></feGaussianBlur><feOffset dx="0" dy="0" result="offset"></feOffset><feComposite in="SourceGraphic" in2="offset" operator="over"></feComposite></filter><filter id="shadow-13" height="300%" width="300%" x="-100%" y="-100%"><feFlood flood-color="rgba(255, 255, 255, 1)" result="flood"></feFlood><feComposite in="flood" in2="SourceGraphic" operator="atop" result="composite"></feComposite><feGaussianBlur in="composite" stdDeviation="15" result="blur"></feGaussianBlur><feOffset dx="0" dy="0" result="offset"></feOffset><feComposite in="SourceGraphic" in2="offset" operator="over"></feComposite></filter><filter id="shadow-14" height="300%" width="300%" x="-100%" y="-100%"><feFlood flood-color="rgba(255, 255, 255, 1)" result="flood"></feFlood><feComposite in="flood" in2="SourceGraphic" operator="atop" result="composite"></feComposite><feGaussianBlur in="composite" stdDeviation="15" result="blur"></feGaussianBlur><feOffset dx="0" dy="0" result="offset"></feOffset><feComposite in="SourceGraphic" in2="offset" operator="over"></feComposite></filter><filter id="shadow-15" height="300%" width="300%" x="-100%" y="-100%"><feFlood flood-color="rgba(255, 255, 255, 1)" result="flood"></feFlood><feComposite in="flood" in2="SourceGraphic" operator="atop" result="composite"></feComposite><feGaussianBlur in="composite" stdDeviation="15" result="blur"></feGaussianBlur><feOffset dx="0" dy="0" result="offset"></feOffset><feComposite in="SourceGraphic" in2="offset" operator="over"></feComposite></filter><filter id="shadow-16" height="300%" width="300%" x="-100%" y="-100%"><feFlood flood-color="rgba(255, 255, 255, 1)" result="flood"></feFlood><feComposite in="flood" in2="SourceGraphic" operator="atop" result="composite"></feComposite><feGaussianBlur in="composite" stdDeviation="15" result="blur"></feGaussianBlur><feOffset dx="0" dy="0" result="offset"></feOffset><feComposite in="SourceGraphic" in2="offset" operator="over"></feComposite></filter><filter id="shadow-17" height="300%" width="300%" x="-100%" y="-100%"><feFlood flood-color="rgba(255, 255, 255, 1)" result="flood"></feFlood><feComposite in="flood" in2="SourceGraphic" operator="atop" result="composite"></feComposite><feGaussianBlur in="composite" stdDeviation="15" result="blur"></feGaussianBlur><feOffset dx="0" dy="0" result="offset"></feOffset><feComposite in="SourceGraphic" in2="offset" operator="over"></feComposite></filter></defs><g class="" transform="translate(-3,-3)" style=""><g transform="translate(435.2, 435.2) scale(-0.7, -0.7) rotate(-540, 256, 256) skewX(0) skewY(0)"><path d="M216.713 21.62C214.749 44.97 214.75 44.969 194.893 57.407C218.242 59.371 218.241 59.372 230.68 79.229C232.643 55.88 232.645 55.879 252.502 43.44C229.152 41.477 229.152 41.477 216.712 21.62Z" class="selected" fill="#c9c9c9" fill-opacity="1" filter="url(#shadow-2)"></path><path d="M309.186 64.608L181.473 121.101L139.064 176.551L221.43 198.901L287.453 151.833L312.393 173.866C300.904 183.05 298.383 182.47 279.603 177.989C293.838 195.129 293.837 195.129 288.666 216.799C305.806 202.565 305.806 202.565 327.476 207.735C315.422 193.221 313.596 190.953 316.453 177.452L326.535 186.36L380.621 136.4Z" class="" fill="#8b572a" fill-opacity="1"></path><path d="M91.46 98.093C104.906 126.093 104.906 126.094 90.573 153.651C118.573 140.205 118.574 140.203 146.132 154.536C132.685 126.536 132.684 126.536 147.017 98.979C119.016 112.426 119.017 112.425 91.46 98.093Z" class="" fill="#9b9b9b" fill-opacity="1"></path><path d="M437.308 141.208C422.334 168.422 422.335 168.421 391.579 172.771C403.421 179.286 410.106 182.968 414.243 187.581L360.712 249.419L367.019 273.194L455.52 281.872L434.686 199.368C441.445 190.828 448.233 189.855 468.872 186.937C441.658 171.963 441.657 171.964 437.308 141.208Z" class="" fill="#8b572a" fill-opacity="1"></path><path d="M58.38 270.268C50.504 309.326 50.505 309.324 14.534 326.458C53.591 334.334 53.59 334.335 70.724 370.306C78.599 331.249 78.6 331.248 114.571 314.114C75.514 306.239 75.513 306.24 58.38 270.269Z" class="" fill="#c9c9c9" fill-opacity="1"></path><path d="M295.071 278.678C277.932 292.913 277.931 292.914 256.261 287.743C267.763 301.593 269.966 304.262 267.661 316.208L249.378 305.239L237.673 280.159L209.769 296.784L168.585 283.972L159.138 348.669L216.108 410.487L297.69 334.226L273.66 319.808C283.274 312.529 286.682 313.325 304.136 317.489C289.901 300.35 289.9 300.349 295.071 278.679Z" class="" fill="#8b572a" fill-opacity="1"></path><path d="M465.901 316.306C450.928 343.52 450.927 343.52 420.171 347.87C447.385 362.844 447.386 362.845 451.735 393.6C466.709 366.386 466.708 366.386 497.464 362.036C470.249 347.063 470.251 347.061 465.901 316.306Z" class="" fill="#c9c9c9" fill-opacity="1"></path><path d="M148.03 362.749C133.318 380.986 133.316 380.985 109.9 380.157C128.136 394.87 128.136 394.871 127.308 418.288C142.02 400.052 142.022 400.052 165.438 400.88C147.202 386.167 147.202 386.166 148.03 362.749Z" class="" fill="#9b9b9b" fill-opacity="1"></path><path d="M363.37 374.319L320.56 421.112C307.392 405.24 307.415 404.585 312.454 383.468C295.314 397.702 295.316 397.701 273.646 392.53C287.88 409.67 287.879 409.67 282.708 431.34C299.35 417.52 299.998 417.166 319.851 421.888L310.8 431.78L335.628 488.53L471.337 490.38L437.937 397.93Z" class="" fill="#8b572a" fill-opacity="1"></path><path d="M89.304 376.501L31.14 416.89L47.39 485.378L134.204 468.345L93.759 423.855Z" class="" fill="#8b572a" fill-opacity="1"></path></g></g></svg>